%TF.GenerationSoftware,KiCad,Pcbnew,6.0.7*%
%TF.CreationDate,2022-09-06T10:13:29+02:00*%
%TF.ProjectId,gluhwurmchen,676c7568-7775-4726-9d63-68656e2e6b69,rev?*%
%TF.SameCoordinates,Original*%
%TF.FileFunction,Legend,Top*%
%TF.FilePolarity,Positive*%
%FSLAX46Y46*%
G04 Gerber Fmt 4.6, Leading zero omitted, Abs format (unit mm)*
G04 Created by KiCad (PCBNEW 6.0.7) date 2022-09-06 10:13:29*
%MOMM*%
%LPD*%
G01*
G04 APERTURE LIST*
%ADD10C,0.150000*%
%ADD11C,0.200000*%
%ADD12C,0.300000*%
%ADD13C,0.120000*%
%ADD14C,2.200000*%
%ADD15C,2.500000*%
%ADD16R,1.800000X2.500000*%
%ADD17O,1.800000X2.500000*%
%ADD18R,2.500000X1.800000*%
%ADD19O,2.500000X1.800000*%
%ADD20C,3.000000*%
G04 APERTURE END LIST*
D10*
X76352400Y-91363800D02*
X76504800Y-92049600D01*
X81153000Y-96647000D02*
X81661000Y-96139000D01*
X87820500Y-92430600D02*
X89090500Y-94691200D01*
X81153000Y-96647000D02*
X80518000Y-96139000D01*
X86131400Y-77952600D02*
X86410800Y-78562200D01*
X86182200Y-77952600D02*
X86766400Y-77622400D01*
X87807800Y-92430600D02*
X87630000Y-93192600D01*
X81153000Y-95123000D02*
X81153000Y-96647000D01*
X76327000Y-91338400D02*
X75565000Y-91440000D01*
X87820500Y-92430600D02*
X88506300Y-92583000D01*
X86131400Y-77952600D02*
X88950800Y-78816200D01*
X74320400Y-93802200D02*
X76301600Y-91363800D01*
D11*
X71006068Y-91033629D02*
X71531356Y-91474398D01*
X70497367Y-92173267D02*
X71268712Y-91254014D01*
X71066428Y-92650766D02*
X71580659Y-92037931D01*
X71433736Y-92213027D02*
X71550971Y-92162210D01*
X71631476Y-92155166D01*
X71755754Y-92184854D01*
X71843302Y-92258315D01*
X72029456Y-93458842D02*
X72433494Y-92977329D01*
X72463181Y-92853050D01*
X72412364Y-92735815D01*
X72237268Y-92588892D01*
X72112989Y-92559204D01*
X72066186Y-93415068D02*
X71941908Y-93385381D01*
X71723038Y-93201727D01*
X71672221Y-93084492D01*
X71701908Y-92960213D01*
X71775370Y-92872665D01*
X71892605Y-92821848D01*
X72016884Y-92851536D01*
X72235754Y-93035189D01*
X72360032Y-93064877D01*
X72981426Y-93213314D02*
X72467195Y-93826150D01*
X72907964Y-93300862D02*
X72988469Y-93293819D01*
X73112747Y-93323506D01*
X73244069Y-93433698D01*
X73294887Y-93550934D01*
X73265199Y-93675212D01*
X72861161Y-94156726D01*
X73291858Y-94443529D02*
X73342675Y-94560764D01*
X73517771Y-94707687D01*
X73642049Y-94737374D01*
X73759285Y-94686557D01*
X73796015Y-94642783D01*
X73825703Y-94518504D01*
X73774886Y-94401269D01*
X73643564Y-94291077D01*
X73592747Y-94173841D01*
X73622434Y-94049563D01*
X73659165Y-94005789D01*
X73776400Y-93954972D01*
X73900679Y-93984659D01*
X74032001Y-94094851D01*
X74082818Y-94212087D01*
X74043058Y-95148455D02*
X74557288Y-94535620D01*
X74814403Y-94229202D02*
X74733899Y-94236245D01*
X74740942Y-94316750D01*
X74821447Y-94309707D01*
X74814403Y-94229202D01*
X74740942Y-94316750D01*
X74473755Y-95435258D02*
X74524572Y-95552493D01*
X74699668Y-95699416D01*
X74823946Y-95729104D01*
X74941182Y-95678287D01*
X74977913Y-95634513D01*
X75007600Y-95510234D01*
X74956783Y-95392999D01*
X74825461Y-95282806D01*
X74774644Y-95165571D01*
X74804331Y-95041292D01*
X74841062Y-94997518D01*
X74958297Y-94946701D01*
X75082576Y-94976389D01*
X75213898Y-95086581D01*
X75264715Y-95203816D01*
X75607864Y-95417157D02*
X75958055Y-95711003D01*
X75996301Y-95220932D02*
X75335148Y-96008863D01*
X75305460Y-96133142D01*
X75356277Y-96250377D01*
X75443825Y-96323839D01*
X75881565Y-96691146D02*
X75830748Y-96573910D01*
X75823704Y-96493406D01*
X75853392Y-96369127D01*
X76073776Y-96106483D01*
X76191012Y-96055666D01*
X76271516Y-96048623D01*
X76395795Y-96078310D01*
X76527117Y-96188502D01*
X76577934Y-96305738D01*
X76584977Y-96386242D01*
X76555290Y-96510521D01*
X76334906Y-96773165D01*
X76217670Y-96823982D01*
X76137166Y-96831025D01*
X76012887Y-96801338D01*
X75881565Y-96691146D01*
X76581948Y-97278837D02*
X77096179Y-96666002D01*
X76949256Y-96841098D02*
X77066491Y-96790280D01*
X77146996Y-96783237D01*
X77271274Y-96812925D01*
X77358822Y-96886386D01*
X77229285Y-93322857D02*
X77515000Y-94522857D01*
X77743571Y-93665714D01*
X77972142Y-94522857D01*
X78257857Y-93322857D01*
X78715000Y-94522857D02*
X78715000Y-93722857D01*
X78715000Y-93322857D02*
X78657857Y-93380000D01*
X78715000Y-93437142D01*
X78772142Y-93380000D01*
X78715000Y-93322857D01*
X78715000Y-93437142D01*
X79800714Y-94522857D02*
X79800714Y-93322857D01*
X79800714Y-94465714D02*
X79686428Y-94522857D01*
X79457857Y-94522857D01*
X79343571Y-94465714D01*
X79286428Y-94408571D01*
X79229285Y-94294285D01*
X79229285Y-93951428D01*
X79286428Y-93837142D01*
X79343571Y-93780000D01*
X79457857Y-93722857D01*
X79686428Y-93722857D01*
X79800714Y-93780000D01*
X80829285Y-94465714D02*
X80715000Y-94522857D01*
X80486428Y-94522857D01*
X80372142Y-94465714D01*
X80315000Y-94351428D01*
X80315000Y-93894285D01*
X80372142Y-93780000D01*
X80486428Y-93722857D01*
X80715000Y-93722857D01*
X80829285Y-93780000D01*
X80886428Y-93894285D01*
X80886428Y-94008571D01*
X80315000Y-94122857D01*
X81400714Y-94522857D02*
X81400714Y-93722857D01*
X81400714Y-93951428D02*
X81457857Y-93837142D01*
X81515000Y-93780000D01*
X81629285Y-93722857D01*
X81743571Y-93722857D01*
X82086428Y-94465714D02*
X82200714Y-94522857D01*
X82429285Y-94522857D01*
X82543571Y-94465714D01*
X82600714Y-94351428D01*
X82600714Y-94294285D01*
X82543571Y-94180000D01*
X82429285Y-94122857D01*
X82257857Y-94122857D01*
X82143571Y-94065714D01*
X82086428Y-93951428D01*
X82086428Y-93894285D01*
X82143571Y-93780000D01*
X82257857Y-93722857D01*
X82429285Y-93722857D01*
X82543571Y-93780000D01*
X82943571Y-93722857D02*
X83400714Y-93722857D01*
X83115000Y-93322857D02*
X83115000Y-94351428D01*
X83172142Y-94465714D01*
X83286428Y-94522857D01*
X83400714Y-94522857D01*
X84315000Y-94522857D02*
X84315000Y-93894285D01*
X84257857Y-93780000D01*
X84143571Y-93722857D01*
X83915000Y-93722857D01*
X83800714Y-93780000D01*
X84315000Y-94465714D02*
X84200714Y-94522857D01*
X83915000Y-94522857D01*
X83800714Y-94465714D01*
X83743571Y-94351428D01*
X83743571Y-94237142D01*
X83800714Y-94122857D01*
X83915000Y-94065714D01*
X84200714Y-94065714D01*
X84315000Y-94008571D01*
X84886428Y-93722857D02*
X84886428Y-94522857D01*
X84886428Y-93837142D02*
X84943571Y-93780000D01*
X85057857Y-93722857D01*
X85229285Y-93722857D01*
X85343571Y-93780000D01*
X85400714Y-93894285D01*
X85400714Y-94522857D01*
X86486428Y-94522857D02*
X86486428Y-93322857D01*
X86486428Y-94465714D02*
X86372142Y-94522857D01*
X86143571Y-94522857D01*
X86029285Y-94465714D01*
X85972142Y-94408571D01*
X85915000Y-94294285D01*
X85915000Y-93951428D01*
X85972142Y-93837142D01*
X86029285Y-93780000D01*
X86143571Y-93722857D01*
X86372142Y-93722857D01*
X86486428Y-93780000D01*
X94846291Y-82795218D02*
X95213598Y-83232958D01*
X94294345Y-84004303D01*
X94589176Y-82488801D02*
X93976340Y-83003031D01*
X93669923Y-83260146D02*
X93750427Y-83267189D01*
X93757470Y-83186684D01*
X93676966Y-83179641D01*
X93669923Y-83260146D01*
X93757470Y-83186684D01*
X93847518Y-81693826D02*
X93964754Y-81744643D01*
X94111676Y-81919739D01*
X94141364Y-82044018D01*
X94134321Y-82124522D01*
X94083503Y-82241758D01*
X93820860Y-82462142D01*
X93696581Y-82491829D01*
X93616076Y-82484786D01*
X93498841Y-82433969D01*
X93351918Y-82258873D01*
X93322231Y-82134594D01*
X93560716Y-81263129D02*
X92641462Y-82034475D01*
X93230139Y-80869164D02*
X92748626Y-81273202D01*
X92697808Y-81390437D01*
X92727496Y-81514716D01*
X92837688Y-81646038D01*
X92954923Y-81696855D01*
X93035428Y-81703898D01*
X92360189Y-81076976D02*
X92066343Y-80726784D01*
X91943579Y-81202769D02*
X92731510Y-80541616D01*
X92782327Y-80424381D01*
X92752640Y-80300102D01*
X92679178Y-80212554D01*
X92415020Y-79986641D02*
X92385333Y-79862362D01*
X92238410Y-79687267D01*
X92121174Y-79636449D01*
X91996896Y-79666137D01*
X91953122Y-79702868D01*
X91902304Y-79820103D01*
X91931992Y-79944382D01*
X92042184Y-80075703D01*
X92071872Y-80199982D01*
X92021054Y-80317218D01*
X91977280Y-80353948D01*
X91853002Y-80383636D01*
X91735766Y-80332819D01*
X91625574Y-80201497D01*
X91595887Y-80077218D01*
X91460021Y-78848518D02*
X91577257Y-78899335D01*
X91724180Y-79074431D01*
X91753867Y-79198710D01*
X91703050Y-79315945D01*
X91352858Y-79609791D01*
X91228579Y-79639478D01*
X91111344Y-79588661D01*
X90964421Y-79413565D01*
X90934734Y-79289287D01*
X90985551Y-79172051D01*
X91073099Y-79098590D01*
X91527954Y-79462868D01*
X90523653Y-78888278D02*
X91136488Y-78374047D01*
X90611200Y-78814816D02*
X90530696Y-78807773D01*
X90413460Y-78756956D01*
X90303268Y-78625634D01*
X90273581Y-78501355D01*
X90324398Y-78384120D01*
X90805912Y-77980082D01*
X90431561Y-77622847D02*
X90401874Y-77498568D01*
X90254951Y-77323472D01*
X90137715Y-77272655D01*
X90013437Y-77302343D01*
X89969663Y-77339073D01*
X89918846Y-77456309D01*
X89948533Y-77580587D01*
X90058725Y-77711909D01*
X90088413Y-77836188D01*
X90037595Y-77953423D01*
X89993821Y-77990154D01*
X89869543Y-78019841D01*
X89752307Y-77969024D01*
X89642115Y-77837702D01*
X89612428Y-77713424D01*
X89703990Y-76666863D02*
X89733677Y-76791141D01*
X89726634Y-76871646D01*
X89675817Y-76988881D01*
X89413173Y-77209266D01*
X89288895Y-77238953D01*
X89208390Y-77231910D01*
X89091154Y-77181093D01*
X88980962Y-77049771D01*
X88951275Y-76925492D01*
X88958318Y-76844988D01*
X89009135Y-76727752D01*
X89271779Y-76507368D01*
X89396058Y-76477680D01*
X89476562Y-76484724D01*
X89593798Y-76535541D01*
X89703990Y-76666863D01*
X89116298Y-75966479D02*
X88503463Y-76480709D01*
X88678559Y-76333786D02*
X88554280Y-76363474D01*
X88473775Y-76356431D01*
X88356540Y-76305613D01*
X88283079Y-76218066D01*
D12*
X73261104Y-82439000D02*
X73070628Y-82343761D01*
X72784914Y-82343761D01*
X72499200Y-82439000D01*
X72308723Y-82629476D01*
X72213485Y-82819952D01*
X72118247Y-83200904D01*
X72118247Y-83486619D01*
X72213485Y-83867571D01*
X72308723Y-84058047D01*
X72499200Y-84248523D01*
X72784914Y-84343761D01*
X72975390Y-84343761D01*
X73261104Y-84248523D01*
X73356342Y-84153285D01*
X73356342Y-83486619D01*
X72975390Y-83486619D01*
X74499200Y-84343761D02*
X74308723Y-84248523D01*
X74213485Y-84058047D01*
X74213485Y-82343761D01*
X76118247Y-83010428D02*
X76118247Y-84343761D01*
X75261104Y-83010428D02*
X75261104Y-84058047D01*
X75356342Y-84248523D01*
X75546819Y-84343761D01*
X75832533Y-84343761D01*
X76023009Y-84248523D01*
X76118247Y-84153285D01*
X75356342Y-82343761D02*
X75451580Y-82439000D01*
X75356342Y-82534238D01*
X75261104Y-82439000D01*
X75356342Y-82343761D01*
X75356342Y-82534238D01*
X76118247Y-82343761D02*
X76213485Y-82439000D01*
X76118247Y-82534238D01*
X76023009Y-82439000D01*
X76118247Y-82343761D01*
X76118247Y-82534238D01*
X77070628Y-84343761D02*
X77070628Y-82343761D01*
X77927771Y-84343761D02*
X77927771Y-83296142D01*
X77832533Y-83105666D01*
X77642057Y-83010428D01*
X77356342Y-83010428D01*
X77165866Y-83105666D01*
X77070628Y-83200904D01*
X78689676Y-83010428D02*
X79070628Y-84343761D01*
X79451580Y-83391380D01*
X79832533Y-84343761D01*
X80213485Y-83010428D01*
X81832533Y-83010428D02*
X81832533Y-84343761D01*
X80975390Y-83010428D02*
X80975390Y-84058047D01*
X81070628Y-84248523D01*
X81261104Y-84343761D01*
X81546819Y-84343761D01*
X81737295Y-84248523D01*
X81832533Y-84153285D01*
X81070628Y-82343761D02*
X81165866Y-82439000D01*
X81070628Y-82534238D01*
X80975390Y-82439000D01*
X81070628Y-82343761D01*
X81070628Y-82534238D01*
X81832533Y-82343761D02*
X81927771Y-82439000D01*
X81832533Y-82534238D01*
X81737295Y-82439000D01*
X81832533Y-82343761D01*
X81832533Y-82534238D01*
X82784914Y-84343761D02*
X82784914Y-83010428D01*
X82784914Y-83391380D02*
X82880152Y-83200904D01*
X82975390Y-83105666D01*
X83165866Y-83010428D01*
X83356342Y-83010428D01*
X84023009Y-84343761D02*
X84023009Y-83010428D01*
X84023009Y-83200904D02*
X84118247Y-83105666D01*
X84308723Y-83010428D01*
X84594438Y-83010428D01*
X84784914Y-83105666D01*
X84880152Y-83296142D01*
X84880152Y-84343761D01*
X84880152Y-83296142D02*
X84975390Y-83105666D01*
X85165866Y-83010428D01*
X85451580Y-83010428D01*
X85642057Y-83105666D01*
X85737295Y-83296142D01*
X85737295Y-84343761D01*
X87546819Y-84248523D02*
X87356342Y-84343761D01*
X86975390Y-84343761D01*
X86784914Y-84248523D01*
X86689676Y-84153285D01*
X86594438Y-83962809D01*
X86594438Y-83391380D01*
X86689676Y-83200904D01*
X86784914Y-83105666D01*
X86975390Y-83010428D01*
X87356342Y-83010428D01*
X87546819Y-83105666D01*
X88403961Y-84343761D02*
X88403961Y-82343761D01*
X89261104Y-84343761D02*
X89261104Y-83296142D01*
X89165866Y-83105666D01*
X88975390Y-83010428D01*
X88689676Y-83010428D01*
X88499200Y-83105666D01*
X88403961Y-83200904D01*
X90975390Y-84248523D02*
X90784914Y-84343761D01*
X90403961Y-84343761D01*
X90213485Y-84248523D01*
X90118247Y-84058047D01*
X90118247Y-83296142D01*
X90213485Y-83105666D01*
X90403961Y-83010428D01*
X90784914Y-83010428D01*
X90975390Y-83105666D01*
X91070628Y-83296142D01*
X91070628Y-83486619D01*
X90118247Y-83677095D01*
X91927771Y-83010428D02*
X91927771Y-84343761D01*
X91927771Y-83200904D02*
X92023009Y-83105666D01*
X92213485Y-83010428D01*
X92499200Y-83010428D01*
X92689676Y-83105666D01*
X92784914Y-83296142D01*
X92784914Y-84343761D01*
D11*
X89684223Y-96504270D02*
X89189352Y-96789985D01*
X88589352Y-95750754D01*
X90030633Y-96304270D02*
X89630633Y-95611450D01*
X89430633Y-95265040D02*
X89409718Y-95343099D01*
X89487776Y-95364014D01*
X89508692Y-95285956D01*
X89430633Y-95265040D01*
X89487776Y-95364014D01*
X90942318Y-95711926D02*
X90871915Y-95818556D01*
X90673967Y-95932842D01*
X90546421Y-95940498D01*
X90468362Y-95919582D01*
X90361732Y-95849179D01*
X90190304Y-95552256D01*
X90182648Y-95424710D01*
X90203564Y-95346652D01*
X90273967Y-95240022D01*
X90471915Y-95125736D01*
X90599461Y-95118080D01*
X91416274Y-95504270D02*
X90816274Y-94465040D01*
X91861659Y-95247128D02*
X91547373Y-94702769D01*
X91440743Y-94632366D01*
X91313197Y-94640022D01*
X91164736Y-94725736D01*
X91094333Y-94832366D01*
X91073417Y-94910424D01*
X91808069Y-94354307D02*
X92203966Y-94125736D01*
X91756530Y-93922183D02*
X92270816Y-94812952D01*
X92377446Y-94883355D01*
X92504992Y-94875699D01*
X92603966Y-94818556D01*
D10*
X81437504Y-102407980D02*
X80866076Y-102407980D01*
X81151790Y-102407980D02*
X81151790Y-101407980D01*
X81056552Y-101550838D01*
X80961314Y-101646076D01*
X80866076Y-101693695D01*
X82056552Y-101407980D02*
X82151790Y-101407980D01*
X82247028Y-101455600D01*
X82294647Y-101503219D01*
X82342266Y-101598457D01*
X82389885Y-101788933D01*
X82389885Y-102027028D01*
X82342266Y-102217504D01*
X82294647Y-102312742D01*
X82247028Y-102360361D01*
X82151790Y-102407980D01*
X82056552Y-102407980D01*
X81961314Y-102360361D01*
X81913695Y-102312742D01*
X81866076Y-102217504D01*
X81818457Y-102027028D01*
X81818457Y-101788933D01*
X81866076Y-101598457D01*
X81913695Y-101503219D01*
X81961314Y-101455600D01*
X82056552Y-101407980D01*
X82818457Y-102312742D02*
X82866076Y-102360361D01*
X82818457Y-102407980D01*
X82770838Y-102360361D01*
X82818457Y-102312742D01*
X82818457Y-102407980D01*
X83294647Y-102312742D02*
X83342266Y-102360361D01*
X83294647Y-102407980D01*
X83247028Y-102360361D01*
X83294647Y-102312742D01*
X83294647Y-102407980D01*
X83770838Y-102312742D02*
X83818457Y-102360361D01*
X83770838Y-102407980D01*
X83723219Y-102360361D01*
X83770838Y-102312742D01*
X83770838Y-102407980D01*
X84770838Y-102407980D02*
X84199409Y-102407980D01*
X84485123Y-102407980D02*
X84485123Y-101407980D01*
X84389885Y-101550838D01*
X84294647Y-101646076D01*
X84199409Y-101693695D01*
X85389885Y-101407980D02*
X85485123Y-101407980D01*
X85580361Y-101455600D01*
X85627980Y-101503219D01*
X85675600Y-101598457D01*
X85723219Y-101788933D01*
X85723219Y-102027028D01*
X85675600Y-102217504D01*
X85627980Y-102312742D01*
X85580361Y-102360361D01*
X85485123Y-102407980D01*
X85389885Y-102407980D01*
X85294647Y-102360361D01*
X85247028Y-102312742D01*
X85199409Y-102217504D01*
X85151790Y-102027028D01*
X85151790Y-101788933D01*
X85199409Y-101598457D01*
X85247028Y-101503219D01*
X85294647Y-101455600D01*
X85389885Y-101407980D01*
X86342266Y-101407980D02*
X86437504Y-101407980D01*
X86532742Y-101455600D01*
X86580361Y-101503219D01*
X86627980Y-101598457D01*
X86675600Y-101788933D01*
X86675600Y-102027028D01*
X86627980Y-102217504D01*
X86580361Y-102312742D01*
X86532742Y-102360361D01*
X86437504Y-102407980D01*
X86342266Y-102407980D01*
X86247028Y-102360361D01*
X86199409Y-102312742D01*
X86151790Y-102217504D01*
X86104171Y-102027028D01*
X86104171Y-101788933D01*
X86151790Y-101598457D01*
X86199409Y-101503219D01*
X86247028Y-101455600D01*
X86342266Y-101407980D01*
X87104171Y-102407980D02*
X87104171Y-101407980D01*
X87199409Y-102027028D02*
X87485123Y-102407980D01*
X87485123Y-101741314D02*
X87104171Y-102122266D01*
X79144761Y-80136666D02*
X79192380Y-79993809D01*
X79192380Y-79755714D01*
X79144761Y-79660476D01*
X79097142Y-79612857D01*
X79001904Y-79565238D01*
X78906666Y-79565238D01*
X78811428Y-79612857D01*
X78763809Y-79660476D01*
X78716190Y-79755714D01*
X78668571Y-79946190D01*
X78620952Y-80041428D01*
X78573333Y-80089047D01*
X78478095Y-80136666D01*
X78382857Y-80136666D01*
X78287619Y-80089047D01*
X78240000Y-80041428D01*
X78192380Y-79946190D01*
X78192380Y-79708095D01*
X78240000Y-79565238D01*
X78668571Y-78803333D02*
X78668571Y-79136666D01*
X79192380Y-79136666D02*
X78192380Y-79136666D01*
X78192380Y-78660476D01*
X79192380Y-78279523D02*
X78192380Y-78279523D01*
X78668571Y-78279523D02*
X78668571Y-77708095D01*
X79192380Y-77708095D02*
X78192380Y-77708095D01*
X78192380Y-77327142D02*
X78192380Y-76708095D01*
X78573333Y-77041428D01*
X78573333Y-76898571D01*
X78620952Y-76803333D01*
X78668571Y-76755714D01*
X78763809Y-76708095D01*
X79001904Y-76708095D01*
X79097142Y-76755714D01*
X79144761Y-76803333D01*
X79192380Y-76898571D01*
X79192380Y-77184285D01*
X79144761Y-77279523D01*
X79097142Y-77327142D01*
X78192380Y-76089047D02*
X78192380Y-75993809D01*
X78240000Y-75898571D01*
X78287619Y-75850952D01*
X78382857Y-75803333D01*
X78573333Y-75755714D01*
X78811428Y-75755714D01*
X79001904Y-75803333D01*
X79097142Y-75850952D01*
X79144761Y-75898571D01*
X79192380Y-75993809D01*
X79192380Y-76089047D01*
X79144761Y-76184285D01*
X79097142Y-76231904D01*
X79001904Y-76279523D01*
X78811428Y-76327142D01*
X78573333Y-76327142D01*
X78382857Y-76279523D01*
X78287619Y-76231904D01*
X78240000Y-76184285D01*
X78192380Y-76089047D01*
X78192380Y-75136666D02*
X78192380Y-75041428D01*
X78240000Y-74946190D01*
X78287619Y-74898571D01*
X78382857Y-74850952D01*
X78573333Y-74803333D01*
X78811428Y-74803333D01*
X79001904Y-74850952D01*
X79097142Y-74898571D01*
X79144761Y-74946190D01*
X79192380Y-75041428D01*
X79192380Y-75136666D01*
X79144761Y-75231904D01*
X79097142Y-75279523D01*
X79001904Y-75327142D01*
X78811428Y-75374761D01*
X78573333Y-75374761D01*
X78382857Y-75327142D01*
X78287619Y-75279523D01*
X78240000Y-75231904D01*
X78192380Y-75136666D01*
X81077619Y-91614285D02*
X81030000Y-91566666D01*
X80982380Y-91471428D01*
X80982380Y-91233333D01*
X81030000Y-91138095D01*
X81077619Y-91090476D01*
X81172857Y-91042857D01*
X81268095Y-91042857D01*
X81410952Y-91090476D01*
X81982380Y-91661904D01*
X81982380Y-91042857D01*
X81982380Y-90614285D02*
X80982380Y-90614285D01*
X81982380Y-90042857D01*
X80982380Y-90042857D01*
X80982380Y-89661904D02*
X80982380Y-89042857D01*
X81363333Y-89376190D01*
X81363333Y-89233333D01*
X81410952Y-89138095D01*
X81458571Y-89090476D01*
X81553809Y-89042857D01*
X81791904Y-89042857D01*
X81887142Y-89090476D01*
X81934761Y-89138095D01*
X81982380Y-89233333D01*
X81982380Y-89519047D01*
X81934761Y-89614285D01*
X81887142Y-89661904D01*
X81982380Y-88566666D02*
X81982380Y-88376190D01*
X81934761Y-88280952D01*
X81887142Y-88233333D01*
X81744285Y-88138095D01*
X81553809Y-88090476D01*
X81172857Y-88090476D01*
X81077619Y-88138095D01*
X81030000Y-88185714D01*
X80982380Y-88280952D01*
X80982380Y-88471428D01*
X81030000Y-88566666D01*
X81077619Y-88614285D01*
X81172857Y-88661904D01*
X81410952Y-88661904D01*
X81506190Y-88614285D01*
X81553809Y-88566666D01*
X81601428Y-88471428D01*
X81601428Y-88280952D01*
X81553809Y-88185714D01*
X81506190Y-88138095D01*
X81410952Y-88090476D01*
X80982380Y-87471428D02*
X80982380Y-87376190D01*
X81030000Y-87280952D01*
X81077619Y-87233333D01*
X81172857Y-87185714D01*
X81363333Y-87138095D01*
X81601428Y-87138095D01*
X81791904Y-87185714D01*
X81887142Y-87233333D01*
X81934761Y-87280952D01*
X81982380Y-87376190D01*
X81982380Y-87471428D01*
X81934761Y-87566666D01*
X81887142Y-87614285D01*
X81791904Y-87661904D01*
X81601428Y-87709523D01*
X81363333Y-87709523D01*
X81172857Y-87661904D01*
X81077619Y-87614285D01*
X81030000Y-87566666D01*
X80982380Y-87471428D01*
X81315714Y-86280952D02*
X81982380Y-86280952D01*
X80934761Y-86519047D02*
X81649047Y-86757142D01*
X81649047Y-86138095D01*
X90309450Y-86494687D02*
X90646167Y-86831404D01*
X89939061Y-87538511D01*
X89703358Y-86629374D02*
X89467656Y-86393671D01*
X89737030Y-85922267D02*
X90073748Y-86258984D01*
X89366641Y-86966091D01*
X89029923Y-86629374D01*
X89433984Y-85619221D02*
X88726877Y-86326328D01*
X88558519Y-86157969D01*
X88491175Y-86023282D01*
X88491175Y-85888595D01*
X88524847Y-85787580D01*
X88625862Y-85619221D01*
X88726877Y-85518206D01*
X88895236Y-85417190D01*
X88996251Y-85383519D01*
X89130938Y-85383519D01*
X89265625Y-85450862D01*
X89433984Y-85619221D01*
D13*
X79200000Y-97340000D02*
X79200000Y-100780000D01*
X79200000Y-100780000D02*
X88440000Y-100780000D01*
X88440000Y-97340000D02*
X79200000Y-97340000D01*
X88440000Y-100780000D02*
X88440000Y-97340000D01*
X89130000Y-99060000D02*
X88440000Y-99060000D01*
X78510000Y-99060000D02*
X79200000Y-99060000D01*
X79990000Y-75925000D02*
X79990000Y-79015000D01*
X85540000Y-77470462D02*
G75*
G03*
X79990000Y-75925170I-2990000J462D01*
G01*
X79990000Y-79014830D02*
G75*
G03*
X85540000Y-77469538I2560000J1544830D01*
G01*
X85050000Y-77470000D02*
G75*
G03*
X85050000Y-77470000I-2500000J0D01*
G01*
X80440000Y-90840000D02*
X80440000Y-86990000D01*
X77641193Y-86543600D02*
G75*
G03*
X76140000Y-88900000I1098807J-2356400D01*
G01*
X80440000Y-86990000D02*
G75*
G03*
X79852264Y-86597617I-1700000J-1910000D01*
G01*
X76140000Y-88900000D02*
G75*
G03*
X77641193Y-91256400I2600000J0D01*
G01*
X79862045Y-91222631D02*
G75*
G03*
X80440000Y-90840000I-1122045J2322631D01*
G01*
X88920000Y-90445000D02*
X88920000Y-87355000D01*
X88920000Y-87355170D02*
G75*
G03*
X83370000Y-88900462I-2560000J-1544830D01*
G01*
X83370000Y-88899538D02*
G75*
G03*
X88920000Y-90444830I2990000J-462D01*
G01*
X88860000Y-88900000D02*
G75*
G03*
X88860000Y-88900000I-2500000J0D01*
G01*
%LPC*%
D14*
X73025000Y-98044000D03*
D15*
X77470000Y-99060000D03*
X90170000Y-99060000D03*
D14*
X95885000Y-88900000D03*
D16*
X81280000Y-77470000D03*
D17*
X83820000Y-77470000D03*
D14*
X73914000Y-78613000D03*
D18*
X78740000Y-91440000D03*
D19*
X78740000Y-88900000D03*
X78740000Y-86360000D03*
D16*
X87630000Y-88900000D03*
D17*
X85090000Y-88900000D03*
D20*
X91440000Y-88900000D03*
X71440000Y-88900000D03*
M02*
