%TF.GenerationSoftware,KiCad,Pcbnew,6.0.7*%
%TF.CreationDate,2022-09-06T10:13:32+02:00*%
%TF.ProjectId,gluhwurmchen,676c7568-7775-4726-9d63-68656e2e6b69,rev?*%
%TF.SameCoordinates,Original*%
%TF.FileFunction,Drillmap*%
%TF.FilePolarity,Positive*%
%FSLAX45Y45*%
G04 Gerber Fmt 4.5, Leading zero omitted, Abs format (unit mm)*
G04 Created by KiCad (PCBNEW 6.0.7) date 2022-09-06 10:13:32*
%MOMM*%
%LPD*%
G01*
G04 APERTURE LIST*
%ADD10C,0.100000*%
%ADD11C,0.200000*%
%ADD12C,0.080000*%
%ADD13C,0.090000*%
G04 APERTURE END LIST*
D10*
X9784283Y-8890000D02*
G75*
G03*
X9784283Y-8890000I-1529283J0D01*
G01*
D11*
D12*
X7707000Y-9866000D02*
X7787000Y-9946000D01*
X7787000Y-9866000D02*
X7707000Y-9946000D01*
X7834000Y-8596000D02*
X7914000Y-8676000D01*
X7914000Y-8596000D02*
X7834000Y-8676000D01*
X7834000Y-8850000D02*
X7914000Y-8930000D01*
X7914000Y-8850000D02*
X7834000Y-8930000D01*
X7834000Y-9104000D02*
X7914000Y-9184000D01*
X7914000Y-9104000D02*
X7834000Y-9184000D01*
X8977000Y-9866000D02*
X9057000Y-9946000D01*
X9057000Y-9866000D02*
X8977000Y-9946000D01*
D13*
X8173000Y-7747000D02*
G75*
G03*
X8173000Y-7747000I-45000J0D01*
G01*
X8427000Y-7747000D02*
G75*
G03*
X8427000Y-7747000I-45000J0D01*
G01*
X8554000Y-8890000D02*
G75*
G03*
X8554000Y-8890000I-45000J0D01*
G01*
X8808000Y-8890000D02*
G75*
G03*
X8808000Y-8890000I-45000J0D01*
G01*
D10*
X7144000Y-8840000D02*
X7144000Y-8940000D01*
X7094000Y-8890000D02*
X7194000Y-8890000D01*
X9144000Y-8840000D02*
X9144000Y-8940000D01*
X9094000Y-8890000D02*
X9194000Y-8890000D01*
D11*
X6978336Y-10734759D02*
X6978336Y-10534759D01*
X7025955Y-10534759D01*
X7054527Y-10544283D01*
X7073575Y-10563330D01*
X7083098Y-10582378D01*
X7092622Y-10620473D01*
X7092622Y-10649044D01*
X7083098Y-10687140D01*
X7073575Y-10706187D01*
X7054527Y-10725235D01*
X7025955Y-10734759D01*
X6978336Y-10734759D01*
X7178336Y-10734759D02*
X7178336Y-10601425D01*
X7178336Y-10639521D02*
X7187860Y-10620473D01*
X7197384Y-10610949D01*
X7216432Y-10601425D01*
X7235479Y-10601425D01*
X7302146Y-10734759D02*
X7302146Y-10601425D01*
X7302146Y-10534759D02*
X7292622Y-10544283D01*
X7302146Y-10553806D01*
X7311670Y-10544283D01*
X7302146Y-10534759D01*
X7302146Y-10553806D01*
X7425955Y-10734759D02*
X7406908Y-10725235D01*
X7397384Y-10706187D01*
X7397384Y-10534759D01*
X7530717Y-10734759D02*
X7511670Y-10725235D01*
X7502146Y-10706187D01*
X7502146Y-10534759D01*
X7759289Y-10734759D02*
X7759289Y-10534759D01*
X7825955Y-10677616D01*
X7892622Y-10534759D01*
X7892622Y-10734759D01*
X8073575Y-10734759D02*
X8073575Y-10629997D01*
X8064051Y-10610949D01*
X8045003Y-10601425D01*
X8006908Y-10601425D01*
X7987860Y-10610949D01*
X8073575Y-10725235D02*
X8054527Y-10734759D01*
X8006908Y-10734759D01*
X7987860Y-10725235D01*
X7978336Y-10706187D01*
X7978336Y-10687140D01*
X7987860Y-10668092D01*
X8006908Y-10658568D01*
X8054527Y-10658568D01*
X8073575Y-10649044D01*
X8168813Y-10601425D02*
X8168813Y-10801425D01*
X8168813Y-10610949D02*
X8187860Y-10601425D01*
X8225955Y-10601425D01*
X8245003Y-10610949D01*
X8254527Y-10620473D01*
X8264051Y-10639521D01*
X8264051Y-10696663D01*
X8254527Y-10715711D01*
X8245003Y-10725235D01*
X8225955Y-10734759D01*
X8187860Y-10734759D01*
X8168813Y-10725235D01*
X8349765Y-10715711D02*
X8359289Y-10725235D01*
X8349765Y-10734759D01*
X8340241Y-10725235D01*
X8349765Y-10715711D01*
X8349765Y-10734759D01*
X8349765Y-10610949D02*
X8359289Y-10620473D01*
X8349765Y-10629997D01*
X8340241Y-10620473D01*
X8349765Y-10610949D01*
X8349765Y-10629997D01*
D12*
X6640717Y-11024283D02*
X6720717Y-11104283D01*
X6720717Y-11024283D02*
X6640717Y-11104283D01*
D11*
X7016432Y-10954759D02*
X7035479Y-10954759D01*
X7054527Y-10964283D01*
X7064051Y-10973806D01*
X7073575Y-10992854D01*
X7083098Y-11030949D01*
X7083098Y-11078568D01*
X7073575Y-11116663D01*
X7064051Y-11135711D01*
X7054527Y-11145235D01*
X7035479Y-11154759D01*
X7016432Y-11154759D01*
X6997384Y-11145235D01*
X6987860Y-11135711D01*
X6978336Y-11116663D01*
X6968813Y-11078568D01*
X6968813Y-11030949D01*
X6978336Y-10992854D01*
X6987860Y-10973806D01*
X6997384Y-10964283D01*
X7016432Y-10954759D01*
X7168813Y-11135711D02*
X7178336Y-11145235D01*
X7168813Y-11154759D01*
X7159289Y-11145235D01*
X7168813Y-11135711D01*
X7168813Y-11154759D01*
X7292622Y-11040473D02*
X7273575Y-11030949D01*
X7264051Y-11021425D01*
X7254527Y-11002378D01*
X7254527Y-10992854D01*
X7264051Y-10973806D01*
X7273575Y-10964283D01*
X7292622Y-10954759D01*
X7330717Y-10954759D01*
X7349765Y-10964283D01*
X7359289Y-10973806D01*
X7368813Y-10992854D01*
X7368813Y-11002378D01*
X7359289Y-11021425D01*
X7349765Y-11030949D01*
X7330717Y-11040473D01*
X7292622Y-11040473D01*
X7273575Y-11049997D01*
X7264051Y-11059521D01*
X7254527Y-11078568D01*
X7254527Y-11116663D01*
X7264051Y-11135711D01*
X7273575Y-11145235D01*
X7292622Y-11154759D01*
X7330717Y-11154759D01*
X7349765Y-11145235D01*
X7359289Y-11135711D01*
X7368813Y-11116663D01*
X7368813Y-11078568D01*
X7359289Y-11059521D01*
X7349765Y-11049997D01*
X7330717Y-11040473D01*
X7492622Y-10954759D02*
X7511670Y-10954759D01*
X7530717Y-10964283D01*
X7540241Y-10973806D01*
X7549765Y-10992854D01*
X7559289Y-11030949D01*
X7559289Y-11078568D01*
X7549765Y-11116663D01*
X7540241Y-11135711D01*
X7530717Y-11145235D01*
X7511670Y-11154759D01*
X7492622Y-11154759D01*
X7473575Y-11145235D01*
X7464051Y-11135711D01*
X7454527Y-11116663D01*
X7445003Y-11078568D01*
X7445003Y-11030949D01*
X7454527Y-10992854D01*
X7464051Y-10973806D01*
X7473575Y-10964283D01*
X7492622Y-10954759D01*
X7683098Y-10954759D02*
X7702146Y-10954759D01*
X7721194Y-10964283D01*
X7730717Y-10973806D01*
X7740241Y-10992854D01*
X7749765Y-11030949D01*
X7749765Y-11078568D01*
X7740241Y-11116663D01*
X7730717Y-11135711D01*
X7721194Y-11145235D01*
X7702146Y-11154759D01*
X7683098Y-11154759D01*
X7664051Y-11145235D01*
X7654527Y-11135711D01*
X7645003Y-11116663D01*
X7635479Y-11078568D01*
X7635479Y-11030949D01*
X7645003Y-10992854D01*
X7654527Y-10973806D01*
X7664051Y-10964283D01*
X7683098Y-10954759D01*
X7835479Y-11154759D02*
X7835479Y-11021425D01*
X7835479Y-11040473D02*
X7845003Y-11030949D01*
X7864051Y-11021425D01*
X7892622Y-11021425D01*
X7911670Y-11030949D01*
X7921194Y-11049997D01*
X7921194Y-11154759D01*
X7921194Y-11049997D02*
X7930717Y-11030949D01*
X7949765Y-11021425D01*
X7978336Y-11021425D01*
X7997384Y-11030949D01*
X8006908Y-11049997D01*
X8006908Y-11154759D01*
X8102146Y-11154759D02*
X8102146Y-11021425D01*
X8102146Y-11040473D02*
X8111670Y-11030949D01*
X8130717Y-11021425D01*
X8159289Y-11021425D01*
X8178336Y-11030949D01*
X8187860Y-11049997D01*
X8187860Y-11154759D01*
X8187860Y-11049997D02*
X8197384Y-11030949D01*
X8216432Y-11021425D01*
X8245003Y-11021425D01*
X8264051Y-11030949D01*
X8273575Y-11049997D01*
X8273575Y-11154759D01*
X8664051Y-10945235D02*
X8492622Y-11202378D01*
X8921194Y-10954759D02*
X8940241Y-10954759D01*
X8959289Y-10964283D01*
X8968813Y-10973806D01*
X8978337Y-10992854D01*
X8987860Y-11030949D01*
X8987860Y-11078568D01*
X8978337Y-11116663D01*
X8968813Y-11135711D01*
X8959289Y-11145235D01*
X8940241Y-11154759D01*
X8921194Y-11154759D01*
X8902146Y-11145235D01*
X8892622Y-11135711D01*
X8883098Y-11116663D01*
X8873575Y-11078568D01*
X8873575Y-11030949D01*
X8883098Y-10992854D01*
X8892622Y-10973806D01*
X8902146Y-10964283D01*
X8921194Y-10954759D01*
X9073575Y-11135711D02*
X9083098Y-11145235D01*
X9073575Y-11154759D01*
X9064051Y-11145235D01*
X9073575Y-11135711D01*
X9073575Y-11154759D01*
X9206908Y-10954759D02*
X9225956Y-10954759D01*
X9245003Y-10964283D01*
X9254527Y-10973806D01*
X9264051Y-10992854D01*
X9273575Y-11030949D01*
X9273575Y-11078568D01*
X9264051Y-11116663D01*
X9254527Y-11135711D01*
X9245003Y-11145235D01*
X9225956Y-11154759D01*
X9206908Y-11154759D01*
X9187860Y-11145235D01*
X9178337Y-11135711D01*
X9168813Y-11116663D01*
X9159289Y-11078568D01*
X9159289Y-11030949D01*
X9168813Y-10992854D01*
X9178337Y-10973806D01*
X9187860Y-10964283D01*
X9206908Y-10954759D01*
X9340241Y-10954759D02*
X9464051Y-10954759D01*
X9397384Y-11030949D01*
X9425956Y-11030949D01*
X9445003Y-11040473D01*
X9454527Y-11049997D01*
X9464051Y-11069044D01*
X9464051Y-11116663D01*
X9454527Y-11135711D01*
X9445003Y-11145235D01*
X9425956Y-11154759D01*
X9368813Y-11154759D01*
X9349765Y-11145235D01*
X9340241Y-11135711D01*
X9654527Y-11154759D02*
X9540241Y-11154759D01*
X9597384Y-11154759D02*
X9597384Y-10954759D01*
X9578337Y-10983330D01*
X9559289Y-11002378D01*
X9540241Y-11011902D01*
X9835479Y-10954759D02*
X9740241Y-10954759D01*
X9730717Y-11049997D01*
X9740241Y-11040473D01*
X9759289Y-11030949D01*
X9806908Y-11030949D01*
X9825956Y-11040473D01*
X9835479Y-11049997D01*
X9845003Y-11069044D01*
X9845003Y-11116663D01*
X9835479Y-11135711D01*
X9825956Y-11145235D01*
X9806908Y-11154759D01*
X9759289Y-11154759D01*
X9740241Y-11145235D01*
X9730717Y-11135711D01*
X9921194Y-10954759D02*
X9921194Y-10992854D01*
X9997384Y-10954759D02*
X9997384Y-10992854D01*
X10292622Y-11230949D02*
X10283098Y-11221425D01*
X10264051Y-11192854D01*
X10254527Y-11173806D01*
X10245003Y-11145235D01*
X10235479Y-11097616D01*
X10235479Y-11059521D01*
X10245003Y-11011902D01*
X10254527Y-10983330D01*
X10264051Y-10964283D01*
X10283098Y-10935711D01*
X10292622Y-10926187D01*
X10464051Y-10954759D02*
X10368813Y-10954759D01*
X10359289Y-11049997D01*
X10368813Y-11040473D01*
X10387860Y-11030949D01*
X10435479Y-11030949D01*
X10454527Y-11040473D01*
X10464051Y-11049997D01*
X10473575Y-11069044D01*
X10473575Y-11116663D01*
X10464051Y-11135711D01*
X10454527Y-11145235D01*
X10435479Y-11154759D01*
X10387860Y-11154759D01*
X10368813Y-11145235D01*
X10359289Y-11135711D01*
X10711670Y-11154759D02*
X10711670Y-10954759D01*
X10797384Y-11154759D02*
X10797384Y-11049997D01*
X10787860Y-11030949D01*
X10768813Y-11021425D01*
X10740241Y-11021425D01*
X10721194Y-11030949D01*
X10711670Y-11040473D01*
X10921194Y-11154759D02*
X10902146Y-11145235D01*
X10892622Y-11135711D01*
X10883098Y-11116663D01*
X10883098Y-11059521D01*
X10892622Y-11040473D01*
X10902146Y-11030949D01*
X10921194Y-11021425D01*
X10949765Y-11021425D01*
X10968813Y-11030949D01*
X10978337Y-11040473D01*
X10987860Y-11059521D01*
X10987860Y-11116663D01*
X10978337Y-11135711D01*
X10968813Y-11145235D01*
X10949765Y-11154759D01*
X10921194Y-11154759D01*
X11102146Y-11154759D02*
X11083098Y-11145235D01*
X11073575Y-11126187D01*
X11073575Y-10954759D01*
X11254527Y-11145235D02*
X11235479Y-11154759D01*
X11197384Y-11154759D01*
X11178337Y-11145235D01*
X11168813Y-11126187D01*
X11168813Y-11049997D01*
X11178337Y-11030949D01*
X11197384Y-11021425D01*
X11235479Y-11021425D01*
X11254527Y-11030949D01*
X11264051Y-11049997D01*
X11264051Y-11069044D01*
X11168813Y-11088092D01*
X11340241Y-11145235D02*
X11359289Y-11154759D01*
X11397384Y-11154759D01*
X11416432Y-11145235D01*
X11425955Y-11126187D01*
X11425955Y-11116663D01*
X11416432Y-11097616D01*
X11397384Y-11088092D01*
X11368813Y-11088092D01*
X11349765Y-11078568D01*
X11340241Y-11059521D01*
X11340241Y-11049997D01*
X11349765Y-11030949D01*
X11368813Y-11021425D01*
X11397384Y-11021425D01*
X11416432Y-11030949D01*
X11492622Y-11230949D02*
X11502146Y-11221425D01*
X11521194Y-11192854D01*
X11530717Y-11173806D01*
X11540241Y-11145235D01*
X11549765Y-11097616D01*
X11549765Y-11059521D01*
X11540241Y-11011902D01*
X11530717Y-10983330D01*
X11521194Y-10964283D01*
X11502146Y-10935711D01*
X11492622Y-10926187D01*
D13*
X6720717Y-11328282D02*
G75*
G03*
X6720717Y-11328282I-45000J0D01*
G01*
D11*
X7016432Y-11218759D02*
X7035479Y-11218759D01*
X7054527Y-11228282D01*
X7064051Y-11237806D01*
X7073575Y-11256854D01*
X7083098Y-11294949D01*
X7083098Y-11342568D01*
X7073575Y-11380663D01*
X7064051Y-11399711D01*
X7054527Y-11409235D01*
X7035479Y-11418759D01*
X7016432Y-11418759D01*
X6997384Y-11409235D01*
X6987860Y-11399711D01*
X6978336Y-11380663D01*
X6968813Y-11342568D01*
X6968813Y-11294949D01*
X6978336Y-11256854D01*
X6987860Y-11237806D01*
X6997384Y-11228282D01*
X7016432Y-11218759D01*
X7168813Y-11399711D02*
X7178336Y-11409235D01*
X7168813Y-11418759D01*
X7159289Y-11409235D01*
X7168813Y-11399711D01*
X7168813Y-11418759D01*
X7273575Y-11418759D02*
X7311670Y-11418759D01*
X7330717Y-11409235D01*
X7340241Y-11399711D01*
X7359289Y-11371140D01*
X7368813Y-11333044D01*
X7368813Y-11256854D01*
X7359289Y-11237806D01*
X7349765Y-11228282D01*
X7330717Y-11218759D01*
X7292622Y-11218759D01*
X7273575Y-11228282D01*
X7264051Y-11237806D01*
X7254527Y-11256854D01*
X7254527Y-11304473D01*
X7264051Y-11323520D01*
X7273575Y-11333044D01*
X7292622Y-11342568D01*
X7330717Y-11342568D01*
X7349765Y-11333044D01*
X7359289Y-11323520D01*
X7368813Y-11304473D01*
X7492622Y-11218759D02*
X7511670Y-11218759D01*
X7530717Y-11228282D01*
X7540241Y-11237806D01*
X7549765Y-11256854D01*
X7559289Y-11294949D01*
X7559289Y-11342568D01*
X7549765Y-11380663D01*
X7540241Y-11399711D01*
X7530717Y-11409235D01*
X7511670Y-11418759D01*
X7492622Y-11418759D01*
X7473575Y-11409235D01*
X7464051Y-11399711D01*
X7454527Y-11380663D01*
X7445003Y-11342568D01*
X7445003Y-11294949D01*
X7454527Y-11256854D01*
X7464051Y-11237806D01*
X7473575Y-11228282D01*
X7492622Y-11218759D01*
X7683098Y-11218759D02*
X7702146Y-11218759D01*
X7721194Y-11228282D01*
X7730717Y-11237806D01*
X7740241Y-11256854D01*
X7749765Y-11294949D01*
X7749765Y-11342568D01*
X7740241Y-11380663D01*
X7730717Y-11399711D01*
X7721194Y-11409235D01*
X7702146Y-11418759D01*
X7683098Y-11418759D01*
X7664051Y-11409235D01*
X7654527Y-11399711D01*
X7645003Y-11380663D01*
X7635479Y-11342568D01*
X7635479Y-11294949D01*
X7645003Y-11256854D01*
X7654527Y-11237806D01*
X7664051Y-11228282D01*
X7683098Y-11218759D01*
X7835479Y-11418759D02*
X7835479Y-11285425D01*
X7835479Y-11304473D02*
X7845003Y-11294949D01*
X7864051Y-11285425D01*
X7892622Y-11285425D01*
X7911670Y-11294949D01*
X7921194Y-11313997D01*
X7921194Y-11418759D01*
X7921194Y-11313997D02*
X7930717Y-11294949D01*
X7949765Y-11285425D01*
X7978336Y-11285425D01*
X7997384Y-11294949D01*
X8006908Y-11313997D01*
X8006908Y-11418759D01*
X8102146Y-11418759D02*
X8102146Y-11285425D01*
X8102146Y-11304473D02*
X8111670Y-11294949D01*
X8130717Y-11285425D01*
X8159289Y-11285425D01*
X8178336Y-11294949D01*
X8187860Y-11313997D01*
X8187860Y-11418759D01*
X8187860Y-11313997D02*
X8197384Y-11294949D01*
X8216432Y-11285425D01*
X8245003Y-11285425D01*
X8264051Y-11294949D01*
X8273575Y-11313997D01*
X8273575Y-11418759D01*
X8664051Y-11209235D02*
X8492622Y-11466378D01*
X8921194Y-11218759D02*
X8940241Y-11218759D01*
X8959289Y-11228282D01*
X8968813Y-11237806D01*
X8978337Y-11256854D01*
X8987860Y-11294949D01*
X8987860Y-11342568D01*
X8978337Y-11380663D01*
X8968813Y-11399711D01*
X8959289Y-11409235D01*
X8940241Y-11418759D01*
X8921194Y-11418759D01*
X8902146Y-11409235D01*
X8892622Y-11399711D01*
X8883098Y-11380663D01*
X8873575Y-11342568D01*
X8873575Y-11294949D01*
X8883098Y-11256854D01*
X8892622Y-11237806D01*
X8902146Y-11228282D01*
X8921194Y-11218759D01*
X9073575Y-11399711D02*
X9083098Y-11409235D01*
X9073575Y-11418759D01*
X9064051Y-11409235D01*
X9073575Y-11399711D01*
X9073575Y-11418759D01*
X9206908Y-11218759D02*
X9225956Y-11218759D01*
X9245003Y-11228282D01*
X9254527Y-11237806D01*
X9264051Y-11256854D01*
X9273575Y-11294949D01*
X9273575Y-11342568D01*
X9264051Y-11380663D01*
X9254527Y-11399711D01*
X9245003Y-11409235D01*
X9225956Y-11418759D01*
X9206908Y-11418759D01*
X9187860Y-11409235D01*
X9178337Y-11399711D01*
X9168813Y-11380663D01*
X9159289Y-11342568D01*
X9159289Y-11294949D01*
X9168813Y-11256854D01*
X9178337Y-11237806D01*
X9187860Y-11228282D01*
X9206908Y-11218759D01*
X9340241Y-11218759D02*
X9464051Y-11218759D01*
X9397384Y-11294949D01*
X9425956Y-11294949D01*
X9445003Y-11304473D01*
X9454527Y-11313997D01*
X9464051Y-11333044D01*
X9464051Y-11380663D01*
X9454527Y-11399711D01*
X9445003Y-11409235D01*
X9425956Y-11418759D01*
X9368813Y-11418759D01*
X9349765Y-11409235D01*
X9340241Y-11399711D01*
X9645003Y-11218759D02*
X9549765Y-11218759D01*
X9540241Y-11313997D01*
X9549765Y-11304473D01*
X9568813Y-11294949D01*
X9616432Y-11294949D01*
X9635479Y-11304473D01*
X9645003Y-11313997D01*
X9654527Y-11333044D01*
X9654527Y-11380663D01*
X9645003Y-11399711D01*
X9635479Y-11409235D01*
X9616432Y-11418759D01*
X9568813Y-11418759D01*
X9549765Y-11409235D01*
X9540241Y-11399711D01*
X9825956Y-11285425D02*
X9825956Y-11418759D01*
X9778337Y-11209235D02*
X9730717Y-11352092D01*
X9854527Y-11352092D01*
X9921194Y-11218759D02*
X9921194Y-11256854D01*
X9997384Y-11218759D02*
X9997384Y-11256854D01*
X10292622Y-11494949D02*
X10283098Y-11485425D01*
X10264051Y-11456854D01*
X10254527Y-11437806D01*
X10245003Y-11409235D01*
X10235479Y-11361616D01*
X10235479Y-11323520D01*
X10245003Y-11275901D01*
X10254527Y-11247330D01*
X10264051Y-11228282D01*
X10283098Y-11199711D01*
X10292622Y-11190187D01*
X10454527Y-11285425D02*
X10454527Y-11418759D01*
X10406908Y-11209235D02*
X10359289Y-11352092D01*
X10483098Y-11352092D01*
X10711670Y-11418759D02*
X10711670Y-11218759D01*
X10797384Y-11418759D02*
X10797384Y-11313997D01*
X10787860Y-11294949D01*
X10768813Y-11285425D01*
X10740241Y-11285425D01*
X10721194Y-11294949D01*
X10711670Y-11304473D01*
X10921194Y-11418759D02*
X10902146Y-11409235D01*
X10892622Y-11399711D01*
X10883098Y-11380663D01*
X10883098Y-11323520D01*
X10892622Y-11304473D01*
X10902146Y-11294949D01*
X10921194Y-11285425D01*
X10949765Y-11285425D01*
X10968813Y-11294949D01*
X10978337Y-11304473D01*
X10987860Y-11323520D01*
X10987860Y-11380663D01*
X10978337Y-11399711D01*
X10968813Y-11409235D01*
X10949765Y-11418759D01*
X10921194Y-11418759D01*
X11102146Y-11418759D02*
X11083098Y-11409235D01*
X11073575Y-11390187D01*
X11073575Y-11218759D01*
X11254527Y-11409235D02*
X11235479Y-11418759D01*
X11197384Y-11418759D01*
X11178337Y-11409235D01*
X11168813Y-11390187D01*
X11168813Y-11313997D01*
X11178337Y-11294949D01*
X11197384Y-11285425D01*
X11235479Y-11285425D01*
X11254527Y-11294949D01*
X11264051Y-11313997D01*
X11264051Y-11333044D01*
X11168813Y-11352092D01*
X11340241Y-11409235D02*
X11359289Y-11418759D01*
X11397384Y-11418759D01*
X11416432Y-11409235D01*
X11425955Y-11390187D01*
X11425955Y-11380663D01*
X11416432Y-11361616D01*
X11397384Y-11352092D01*
X11368813Y-11352092D01*
X11349765Y-11342568D01*
X11340241Y-11323520D01*
X11340241Y-11313997D01*
X11349765Y-11294949D01*
X11368813Y-11285425D01*
X11397384Y-11285425D01*
X11416432Y-11294949D01*
X11492622Y-11494949D02*
X11502146Y-11485425D01*
X11521194Y-11456854D01*
X11530717Y-11437806D01*
X11540241Y-11409235D01*
X11549765Y-11361616D01*
X11549765Y-11323520D01*
X11540241Y-11275901D01*
X11530717Y-11247330D01*
X11521194Y-11228282D01*
X11502146Y-11199711D01*
X11492622Y-11190187D01*
D10*
X6670717Y-11542282D02*
X6670717Y-11642282D01*
X6620717Y-11592282D02*
X6720717Y-11592282D01*
D11*
X7083098Y-11682759D02*
X6968813Y-11682759D01*
X7025955Y-11682759D02*
X7025955Y-11482759D01*
X7006908Y-11511330D01*
X6987860Y-11530378D01*
X6968813Y-11539901D01*
X7168813Y-11663711D02*
X7178336Y-11673235D01*
X7168813Y-11682759D01*
X7159289Y-11673235D01*
X7168813Y-11663711D01*
X7168813Y-11682759D01*
X7302146Y-11482759D02*
X7321194Y-11482759D01*
X7340241Y-11492282D01*
X7349765Y-11501806D01*
X7359289Y-11520854D01*
X7368813Y-11558949D01*
X7368813Y-11606568D01*
X7359289Y-11644663D01*
X7349765Y-11663711D01*
X7340241Y-11673235D01*
X7321194Y-11682759D01*
X7302146Y-11682759D01*
X7283098Y-11673235D01*
X7273575Y-11663711D01*
X7264051Y-11644663D01*
X7254527Y-11606568D01*
X7254527Y-11558949D01*
X7264051Y-11520854D01*
X7273575Y-11501806D01*
X7283098Y-11492282D01*
X7302146Y-11482759D01*
X7492622Y-11482759D02*
X7511670Y-11482759D01*
X7530717Y-11492282D01*
X7540241Y-11501806D01*
X7549765Y-11520854D01*
X7559289Y-11558949D01*
X7559289Y-11606568D01*
X7549765Y-11644663D01*
X7540241Y-11663711D01*
X7530717Y-11673235D01*
X7511670Y-11682759D01*
X7492622Y-11682759D01*
X7473575Y-11673235D01*
X7464051Y-11663711D01*
X7454527Y-11644663D01*
X7445003Y-11606568D01*
X7445003Y-11558949D01*
X7454527Y-11520854D01*
X7464051Y-11501806D01*
X7473575Y-11492282D01*
X7492622Y-11482759D01*
X7683098Y-11482759D02*
X7702146Y-11482759D01*
X7721194Y-11492282D01*
X7730717Y-11501806D01*
X7740241Y-11520854D01*
X7749765Y-11558949D01*
X7749765Y-11606568D01*
X7740241Y-11644663D01*
X7730717Y-11663711D01*
X7721194Y-11673235D01*
X7702146Y-11682759D01*
X7683098Y-11682759D01*
X7664051Y-11673235D01*
X7654527Y-11663711D01*
X7645003Y-11644663D01*
X7635479Y-11606568D01*
X7635479Y-11558949D01*
X7645003Y-11520854D01*
X7654527Y-11501806D01*
X7664051Y-11492282D01*
X7683098Y-11482759D01*
X7835479Y-11682759D02*
X7835479Y-11549425D01*
X7835479Y-11568473D02*
X7845003Y-11558949D01*
X7864051Y-11549425D01*
X7892622Y-11549425D01*
X7911670Y-11558949D01*
X7921194Y-11577997D01*
X7921194Y-11682759D01*
X7921194Y-11577997D02*
X7930717Y-11558949D01*
X7949765Y-11549425D01*
X7978336Y-11549425D01*
X7997384Y-11558949D01*
X8006908Y-11577997D01*
X8006908Y-11682759D01*
X8102146Y-11682759D02*
X8102146Y-11549425D01*
X8102146Y-11568473D02*
X8111670Y-11558949D01*
X8130717Y-11549425D01*
X8159289Y-11549425D01*
X8178336Y-11558949D01*
X8187860Y-11577997D01*
X8187860Y-11682759D01*
X8187860Y-11577997D02*
X8197384Y-11558949D01*
X8216432Y-11549425D01*
X8245003Y-11549425D01*
X8264051Y-11558949D01*
X8273575Y-11577997D01*
X8273575Y-11682759D01*
X8664051Y-11473235D02*
X8492622Y-11730378D01*
X8921194Y-11482759D02*
X8940241Y-11482759D01*
X8959289Y-11492282D01*
X8968813Y-11501806D01*
X8978337Y-11520854D01*
X8987860Y-11558949D01*
X8987860Y-11606568D01*
X8978337Y-11644663D01*
X8968813Y-11663711D01*
X8959289Y-11673235D01*
X8940241Y-11682759D01*
X8921194Y-11682759D01*
X8902146Y-11673235D01*
X8892622Y-11663711D01*
X8883098Y-11644663D01*
X8873575Y-11606568D01*
X8873575Y-11558949D01*
X8883098Y-11520854D01*
X8892622Y-11501806D01*
X8902146Y-11492282D01*
X8921194Y-11482759D01*
X9073575Y-11663711D02*
X9083098Y-11673235D01*
X9073575Y-11682759D01*
X9064051Y-11673235D01*
X9073575Y-11663711D01*
X9073575Y-11682759D01*
X9206908Y-11482759D02*
X9225956Y-11482759D01*
X9245003Y-11492282D01*
X9254527Y-11501806D01*
X9264051Y-11520854D01*
X9273575Y-11558949D01*
X9273575Y-11606568D01*
X9264051Y-11644663D01*
X9254527Y-11663711D01*
X9245003Y-11673235D01*
X9225956Y-11682759D01*
X9206908Y-11682759D01*
X9187860Y-11673235D01*
X9178337Y-11663711D01*
X9168813Y-11644663D01*
X9159289Y-11606568D01*
X9159289Y-11558949D01*
X9168813Y-11520854D01*
X9178337Y-11501806D01*
X9187860Y-11492282D01*
X9206908Y-11482759D01*
X9340241Y-11482759D02*
X9464051Y-11482759D01*
X9397384Y-11558949D01*
X9425956Y-11558949D01*
X9445003Y-11568473D01*
X9454527Y-11577997D01*
X9464051Y-11597044D01*
X9464051Y-11644663D01*
X9454527Y-11663711D01*
X9445003Y-11673235D01*
X9425956Y-11682759D01*
X9368813Y-11682759D01*
X9349765Y-11673235D01*
X9340241Y-11663711D01*
X9559289Y-11682759D02*
X9597384Y-11682759D01*
X9616432Y-11673235D01*
X9625956Y-11663711D01*
X9645003Y-11635140D01*
X9654527Y-11597044D01*
X9654527Y-11520854D01*
X9645003Y-11501806D01*
X9635479Y-11492282D01*
X9616432Y-11482759D01*
X9578337Y-11482759D01*
X9559289Y-11492282D01*
X9549765Y-11501806D01*
X9540241Y-11520854D01*
X9540241Y-11568473D01*
X9549765Y-11587520D01*
X9559289Y-11597044D01*
X9578337Y-11606568D01*
X9616432Y-11606568D01*
X9635479Y-11597044D01*
X9645003Y-11587520D01*
X9654527Y-11568473D01*
X9825956Y-11549425D02*
X9825956Y-11682759D01*
X9778337Y-11473235D02*
X9730717Y-11616092D01*
X9854527Y-11616092D01*
X9921194Y-11482759D02*
X9921194Y-11520854D01*
X9997384Y-11482759D02*
X9997384Y-11520854D01*
X10292622Y-11758949D02*
X10283098Y-11749425D01*
X10264051Y-11720854D01*
X10254527Y-11701806D01*
X10245003Y-11673235D01*
X10235479Y-11625616D01*
X10235479Y-11587520D01*
X10245003Y-11539901D01*
X10254527Y-11511330D01*
X10264051Y-11492282D01*
X10283098Y-11463711D01*
X10292622Y-11454187D01*
X10359289Y-11501806D02*
X10368813Y-11492282D01*
X10387860Y-11482759D01*
X10435479Y-11482759D01*
X10454527Y-11492282D01*
X10464051Y-11501806D01*
X10473575Y-11520854D01*
X10473575Y-11539901D01*
X10464051Y-11568473D01*
X10349765Y-11682759D01*
X10473575Y-11682759D01*
X10711670Y-11682759D02*
X10711670Y-11482759D01*
X10797384Y-11682759D02*
X10797384Y-11577997D01*
X10787860Y-11558949D01*
X10768813Y-11549425D01*
X10740241Y-11549425D01*
X10721194Y-11558949D01*
X10711670Y-11568473D01*
X10921194Y-11682759D02*
X10902146Y-11673235D01*
X10892622Y-11663711D01*
X10883098Y-11644663D01*
X10883098Y-11587520D01*
X10892622Y-11568473D01*
X10902146Y-11558949D01*
X10921194Y-11549425D01*
X10949765Y-11549425D01*
X10968813Y-11558949D01*
X10978337Y-11568473D01*
X10987860Y-11587520D01*
X10987860Y-11644663D01*
X10978337Y-11663711D01*
X10968813Y-11673235D01*
X10949765Y-11682759D01*
X10921194Y-11682759D01*
X11102146Y-11682759D02*
X11083098Y-11673235D01*
X11073575Y-11654187D01*
X11073575Y-11482759D01*
X11254527Y-11673235D02*
X11235479Y-11682759D01*
X11197384Y-11682759D01*
X11178337Y-11673235D01*
X11168813Y-11654187D01*
X11168813Y-11577997D01*
X11178337Y-11558949D01*
X11197384Y-11549425D01*
X11235479Y-11549425D01*
X11254527Y-11558949D01*
X11264051Y-11577997D01*
X11264051Y-11597044D01*
X11168813Y-11616092D01*
X11340241Y-11673235D02*
X11359289Y-11682759D01*
X11397384Y-11682759D01*
X11416432Y-11673235D01*
X11425955Y-11654187D01*
X11425955Y-11644663D01*
X11416432Y-11625616D01*
X11397384Y-11616092D01*
X11368813Y-11616092D01*
X11349765Y-11606568D01*
X11340241Y-11587520D01*
X11340241Y-11577997D01*
X11349765Y-11558949D01*
X11368813Y-11549425D01*
X11397384Y-11549425D01*
X11416432Y-11558949D01*
X11492622Y-11758949D02*
X11502146Y-11749425D01*
X11521194Y-11720854D01*
X11530717Y-11701806D01*
X11540241Y-11673235D01*
X11549765Y-11625616D01*
X11549765Y-11587520D01*
X11540241Y-11539901D01*
X11530717Y-11511330D01*
X11521194Y-11492282D01*
X11502146Y-11463711D01*
X11492622Y-11454187D01*
M02*
