%TF.GenerationSoftware,KiCad,Pcbnew,6.0.7*%
%TF.CreationDate,2022-09-06T10:13:29+02:00*%
%TF.ProjectId,gluhwurmchen,676c7568-7775-4726-9d63-68656e2e6b69,rev?*%
%TF.SameCoordinates,Original*%
%TF.FileFunction,Legend,Bot*%
%TF.FilePolarity,Positive*%
%FSLAX46Y46*%
G04 Gerber Fmt 4.6, Leading zero omitted, Abs format (unit mm)*
G04 Created by KiCad (PCBNEW 6.0.7) date 2022-09-06 10:13:29*
%MOMM*%
%LPD*%
G01*
G04 APERTURE LIST*
%ADD10C,0.200000*%
%ADD11C,0.150000*%
%ADD12C,0.810000*%
%ADD13C,0.120000*%
%ADD14C,0.010000*%
%ADD15C,2.200000*%
%ADD16C,2.500000*%
%ADD17R,1.800000X2.500000*%
%ADD18O,1.800000X2.500000*%
%ADD19R,2.500000X1.800000*%
%ADD20O,2.500000X1.800000*%
%ADD21C,3.000000*%
G04 APERTURE END LIST*
D10*
X71707704Y-95432730D02*
X70911215Y-95728091D01*
X71340397Y-94994991D01*
X71302152Y-94504919D02*
X71309195Y-94424415D01*
X71279507Y-94300136D01*
X71095854Y-94081266D01*
X70978618Y-94030449D01*
X70898114Y-94023406D01*
X70773835Y-94053093D01*
X70686287Y-94126555D01*
X70591696Y-94280521D01*
X70507177Y-95246577D01*
X70029678Y-94677515D01*
X69786649Y-94210088D02*
X69706144Y-94203045D01*
X69699101Y-94283550D01*
X69779606Y-94290593D01*
X69786649Y-94210088D01*
X69699101Y-94283550D01*
X68927756Y-93364296D02*
X69368525Y-93889584D01*
X69148140Y-93626940D02*
X70067394Y-92855595D01*
X70009533Y-93053335D01*
X69995447Y-93214344D01*
X70025134Y-93338623D01*
D11*
X68936973Y-84563515D02*
X69273672Y-84964777D01*
X69298411Y-85068342D01*
X69256064Y-85166038D01*
X69110150Y-85288474D01*
X69006585Y-85313214D01*
X68967582Y-84599994D02*
X68864017Y-84624733D01*
X68681625Y-84777778D01*
X68639278Y-84875474D01*
X68664017Y-84979040D01*
X68725235Y-85051996D01*
X68822931Y-85094344D01*
X68926497Y-85069604D01*
X69108888Y-84916560D01*
X69212454Y-84891820D01*
X69362974Y-84330383D02*
X69368844Y-84263295D01*
X69301756Y-84257426D01*
X69295887Y-84324513D01*
X69362974Y-84330383D01*
X69301756Y-84257426D01*
X70605761Y-84033508D02*
X70323149Y-83400376D01*
X70775152Y-83642723D01*
X70614975Y-83155504D01*
X71189414Y-83543765D01*
X71052715Y-82788197D02*
X71481240Y-83298893D01*
X71695503Y-83554242D02*
X71628416Y-83548372D01*
X71634285Y-83481285D01*
X71701372Y-83487154D01*
X71695503Y-83554242D01*
X71634285Y-83481285D01*
X71526933Y-82390281D02*
X71484585Y-82487977D01*
X71509325Y-82591543D01*
X72060286Y-83248152D01*
X72147064Y-81869929D02*
X72789852Y-82635974D01*
X72177673Y-81906407D02*
X72074108Y-81931147D01*
X71928195Y-82053583D01*
X71885847Y-82151279D01*
X71879977Y-82218366D01*
X71904717Y-82321932D01*
X72088371Y-82540801D01*
X72186067Y-82583149D01*
X72253154Y-82589019D01*
X72356720Y-82564279D01*
X72502633Y-82441843D01*
X72544981Y-82344147D01*
X72511847Y-81563840D02*
X72940373Y-82074536D01*
X72879155Y-82001579D02*
X72946242Y-82007449D01*
X73049807Y-81982709D01*
X73159242Y-81890882D01*
X73201590Y-81793186D01*
X73176850Y-81689621D01*
X72840152Y-81288359D01*
X73176850Y-81689621D02*
X73274547Y-81731968D01*
X73378112Y-81707229D01*
X73487547Y-81615402D01*
X73529895Y-81517706D01*
X73505155Y-81414140D01*
X73168457Y-81012879D01*
X73861545Y-80431309D02*
X74198243Y-80832571D01*
X74222983Y-80936136D01*
X74180635Y-81033832D01*
X74034722Y-81156268D01*
X73931156Y-81181008D01*
X73892154Y-80467787D02*
X73788588Y-80492527D01*
X73606197Y-80645572D01*
X73563849Y-80743268D01*
X73588589Y-80846833D01*
X73649806Y-80919790D01*
X73747503Y-80962138D01*
X73851068Y-80937398D01*
X74033460Y-80784354D01*
X74137025Y-80759614D01*
X74654853Y-80635916D02*
X74226328Y-80125220D01*
X74593635Y-80562960D02*
X74660722Y-80568829D01*
X74764288Y-80544089D01*
X74873723Y-80452263D01*
X74916070Y-80354566D01*
X74891331Y-80251001D01*
X74554633Y-79849739D01*
X75347941Y-80054346D02*
X74919416Y-79543650D01*
X75286723Y-79981390D02*
X75353810Y-79987259D01*
X75457376Y-79962520D01*
X75566811Y-79870693D01*
X75609158Y-79772997D01*
X75584419Y-79669431D01*
X75247720Y-79268170D01*
X76524461Y-78196857D02*
X77167249Y-78962901D01*
X76555070Y-78233335D02*
X76451505Y-78258075D01*
X76305591Y-78380511D01*
X76263244Y-78478207D01*
X76257374Y-78545294D01*
X76282114Y-78648860D01*
X76465767Y-78867729D01*
X76563464Y-78910077D01*
X76630551Y-78915946D01*
X76734116Y-78891207D01*
X76880030Y-78768771D01*
X76922377Y-78671075D01*
X77211680Y-77682375D02*
X77108114Y-77707114D01*
X76962201Y-77829550D01*
X76919853Y-77927246D01*
X76944593Y-78030812D01*
X77189464Y-78322638D01*
X77287160Y-78364986D01*
X77390726Y-78340246D01*
X77536639Y-78217810D01*
X77578987Y-78120114D01*
X77554247Y-78016549D01*
X77493029Y-77943592D01*
X77067028Y-78176725D01*
X77539984Y-77406894D02*
X77582332Y-77309198D01*
X77728245Y-77186762D01*
X77831811Y-77162023D01*
X77929507Y-77204370D01*
X77960116Y-77240849D01*
X77984856Y-77344414D01*
X77942508Y-77442110D01*
X77833073Y-77533937D01*
X77790725Y-77631633D01*
X77815465Y-77735199D01*
X77846074Y-77771677D01*
X77943770Y-77814025D01*
X78047335Y-77789285D01*
X78156770Y-77697459D01*
X78199118Y-77599762D01*
X78165985Y-76819455D02*
X78594510Y-77330151D01*
X78808773Y-77585499D02*
X78741685Y-77579630D01*
X78747555Y-77512543D01*
X78814642Y-77518412D01*
X78808773Y-77585499D01*
X78747555Y-77512543D01*
X79287598Y-76748582D02*
X78767246Y-76128450D01*
X78669550Y-76086103D01*
X78602463Y-76080233D01*
X78498897Y-76104973D01*
X78389462Y-76196800D01*
X78347114Y-76294496D01*
X78889682Y-76274364D02*
X78786116Y-76299103D01*
X78640203Y-76421539D01*
X78597855Y-76519235D01*
X78591986Y-76586322D01*
X78616725Y-76689888D01*
X78800379Y-76908758D01*
X78898075Y-76951105D01*
X78965163Y-76956975D01*
X79068728Y-76932235D01*
X79214641Y-76809799D01*
X79256989Y-76712103D01*
X79652381Y-76442492D02*
X79223856Y-75931796D01*
X79591163Y-76369536D02*
X79658250Y-76375405D01*
X79761816Y-76350665D01*
X79871251Y-76258839D01*
X79913598Y-76161142D01*
X79888859Y-76057577D01*
X79552161Y-75656316D01*
D10*
X83776710Y-75175190D02*
X84265113Y-74501612D01*
X84284459Y-75116755D01*
X84694686Y-74657964D01*
X84635857Y-75487894D01*
X85339047Y-74892492D02*
X85065431Y-75644246D01*
X84928623Y-76020123D02*
X84894470Y-75946883D01*
X84967711Y-75912730D01*
X85001864Y-75985971D01*
X84928623Y-76020123D01*
X84967711Y-75912730D01*
X86286044Y-75297981D02*
X86198195Y-75205196D01*
X85983408Y-75127020D01*
X85856470Y-75141629D01*
X85763686Y-75229479D01*
X85607333Y-75659052D01*
X85621942Y-75785990D01*
X85709792Y-75878775D01*
X85924579Y-75956951D01*
X86051516Y-75942342D01*
X86144301Y-75854492D01*
X86183389Y-75747099D01*
X85685510Y-75444265D01*
X86568939Y-76191479D02*
X86842555Y-75439725D01*
X86608027Y-76084085D02*
X86642180Y-76157326D01*
X86730029Y-76250111D01*
X86891119Y-76308743D01*
X87018057Y-76294134D01*
X87110842Y-76206285D01*
X87325826Y-75615621D01*
X87344975Y-76899604D02*
X88507154Y-76045589D01*
X88096729Y-77173220D02*
X87755400Y-75771973D01*
X88502021Y-76895063D02*
X88931595Y-77051415D01*
X88526303Y-77329572D02*
X88878095Y-76363031D01*
X88970880Y-76275182D01*
X89097818Y-76260573D01*
X89205211Y-76299661D01*
X89581088Y-76436469D02*
X89307472Y-77188223D01*
X89385648Y-76973436D02*
X89400257Y-77100374D01*
X89434409Y-77173614D01*
X89522259Y-77266399D01*
X89629652Y-77305487D01*
X90762416Y-76866437D02*
X90547432Y-77457101D01*
X90454647Y-77544951D01*
X90327710Y-77559559D01*
X90112923Y-77481383D01*
X90025073Y-77388598D01*
X90742872Y-76920134D02*
X90655022Y-76827349D01*
X90386539Y-76729629D01*
X90259601Y-76744238D01*
X90166817Y-76832087D01*
X90127729Y-76939481D01*
X90142337Y-77066418D01*
X90230187Y-77159203D01*
X90498670Y-77256923D01*
X90586520Y-77349708D01*
D11*
X80505038Y-84837542D02*
X80552657Y-84885161D01*
X80695514Y-84932780D01*
X80790752Y-84932780D01*
X80933609Y-84885161D01*
X81028847Y-84789923D01*
X81076466Y-84694685D01*
X81124085Y-84504209D01*
X81124085Y-84361352D01*
X81076466Y-84170876D01*
X81028847Y-84075638D01*
X80933609Y-83980400D01*
X80790752Y-83932780D01*
X80695514Y-83932780D01*
X80552657Y-83980400D01*
X80505038Y-84028019D01*
X79505038Y-84932780D02*
X79838371Y-84456590D01*
X80076466Y-84932780D02*
X80076466Y-83932780D01*
X79695514Y-83932780D01*
X79600276Y-83980400D01*
X79552657Y-84028019D01*
X79505038Y-84123257D01*
X79505038Y-84266114D01*
X79552657Y-84361352D01*
X79600276Y-84408971D01*
X79695514Y-84456590D01*
X80076466Y-84456590D01*
X79124085Y-84028019D02*
X79076466Y-83980400D01*
X78981228Y-83932780D01*
X78743133Y-83932780D01*
X78647895Y-83980400D01*
X78600276Y-84028019D01*
X78552657Y-84123257D01*
X78552657Y-84218495D01*
X78600276Y-84361352D01*
X79171704Y-84932780D01*
X78552657Y-84932780D01*
X77933609Y-83932780D02*
X77838371Y-83932780D01*
X77743133Y-83980400D01*
X77695514Y-84028019D01*
X77647895Y-84123257D01*
X77600276Y-84313733D01*
X77600276Y-84551828D01*
X77647895Y-84742304D01*
X77695514Y-84837542D01*
X77743133Y-84885161D01*
X77838371Y-84932780D01*
X77933609Y-84932780D01*
X78028847Y-84885161D01*
X78076466Y-84837542D01*
X78124085Y-84742304D01*
X78171704Y-84551828D01*
X78171704Y-84313733D01*
X78124085Y-84123257D01*
X78076466Y-84028019D01*
X78028847Y-83980400D01*
X77933609Y-83932780D01*
X77266942Y-83932780D02*
X76647895Y-83932780D01*
X76981228Y-84313733D01*
X76838371Y-84313733D01*
X76743133Y-84361352D01*
X76695514Y-84408971D01*
X76647895Y-84504209D01*
X76647895Y-84742304D01*
X76695514Y-84837542D01*
X76743133Y-84885161D01*
X76838371Y-84932780D01*
X77124085Y-84932780D01*
X77219323Y-84885161D01*
X77266942Y-84837542D01*
X76266942Y-84028019D02*
X76219323Y-83980400D01*
X76124085Y-83932780D01*
X75885990Y-83932780D01*
X75790752Y-83980400D01*
X75743133Y-84028019D01*
X75695514Y-84123257D01*
X75695514Y-84218495D01*
X75743133Y-84361352D01*
X76314561Y-84932780D01*
X75695514Y-84932780D01*
D10*
X69641247Y-91470171D02*
X70403152Y-91470171D01*
X70022200Y-91089219D02*
X70022200Y-91851123D01*
X92602847Y-90784371D02*
X93364752Y-90784371D01*
D12*
X77745000Y-93300000D02*
G75*
G03*
X77745000Y-93300000I-405000J0D01*
G01*
D13*
X88690000Y-88900000D02*
G75*
G03*
X88690000Y-88900000I-3250000J0D01*
G01*
D12*
X85845000Y-79300000D02*
G75*
G03*
X85845000Y-79300000I-405000J0D01*
G01*
D13*
X96840000Y-88900000D02*
G75*
G03*
X96840000Y-88900000I-11400000J0D01*
G01*
D12*
X93945000Y-93300000D02*
G75*
G03*
X93945000Y-93300000I-405000J0D01*
G01*
D13*
X71440000Y-90400000D02*
X89440000Y-90400000D01*
X89440000Y-90400000D02*
X89440000Y-87400000D01*
X89440000Y-87400000D02*
X71440000Y-87400000D01*
X71440000Y-87400000D02*
X71440000Y-90400000D01*
X69040000Y-92200000D02*
X69040000Y-85600000D01*
X69040000Y-85600000D02*
X74492600Y-85600000D01*
X74492600Y-92200000D02*
X69040000Y-92200000D01*
G36*
X81948237Y-92763731D02*
G01*
X81947700Y-92720198D01*
X81945981Y-92574656D01*
X81945635Y-92463289D01*
X81947723Y-92382196D01*
X81953302Y-92327478D01*
X81963433Y-92295239D01*
X81979174Y-92281578D01*
X82001583Y-92282597D01*
X82031720Y-92294397D01*
X82070645Y-92313080D01*
X82078962Y-92317067D01*
X82113598Y-92336581D01*
X82131686Y-92359798D01*
X82138608Y-92398508D01*
X82139744Y-92464503D01*
X82139795Y-92583000D01*
X82261859Y-92583000D01*
X82336945Y-92586288D01*
X82395985Y-92599623D01*
X82445014Y-92626577D01*
X82448670Y-92629212D01*
X82498419Y-92673714D01*
X82533041Y-92727477D01*
X82554877Y-92797846D01*
X82566263Y-92892170D01*
X82569538Y-93017794D01*
X82568813Y-93109464D01*
X82565510Y-93178902D01*
X82558172Y-93227055D01*
X82545345Y-93263134D01*
X82525577Y-93296352D01*
X82507431Y-93321739D01*
X82441539Y-93390273D01*
X82366886Y-93427495D01*
X82273096Y-93439278D01*
X82165760Y-93427533D01*
X82072969Y-93385405D01*
X81999579Y-93311102D01*
X81994046Y-93303236D01*
X81981143Y-93282332D01*
X81971258Y-93258445D01*
X81963907Y-93226418D01*
X81958606Y-93181095D01*
X81954873Y-93117321D01*
X81952222Y-93029940D01*
X81951904Y-93011958D01*
X82139692Y-93011958D01*
X82140606Y-93062402D01*
X82150523Y-93154143D01*
X82173158Y-93214248D01*
X82210762Y-93247100D01*
X82265584Y-93257077D01*
X82288683Y-93254950D01*
X82328650Y-93233853D01*
X82355074Y-93186839D01*
X82369670Y-93109825D01*
X82374154Y-92998729D01*
X82374120Y-92980869D01*
X82372265Y-92900252D01*
X82366307Y-92847553D01*
X82354494Y-92813332D01*
X82335077Y-92788154D01*
X82333867Y-92786951D01*
X82286142Y-92754372D01*
X82239890Y-92757583D01*
X82187650Y-92797035D01*
X82174872Y-92810518D01*
X82156051Y-92838163D01*
X82145438Y-92874120D01*
X82140748Y-92928636D01*
X82139692Y-93011958D01*
X81951904Y-93011958D01*
X81950172Y-92913795D01*
X81948237Y-92763731D01*
G37*
D14*
X81948237Y-92763731D02*
X81947700Y-92720198D01*
X81945981Y-92574656D01*
X81945635Y-92463289D01*
X81947723Y-92382196D01*
X81953302Y-92327478D01*
X81963433Y-92295239D01*
X81979174Y-92281578D01*
X82001583Y-92282597D01*
X82031720Y-92294397D01*
X82070645Y-92313080D01*
X82078962Y-92317067D01*
X82113598Y-92336581D01*
X82131686Y-92359798D01*
X82138608Y-92398508D01*
X82139744Y-92464503D01*
X82139795Y-92583000D01*
X82261859Y-92583000D01*
X82336945Y-92586288D01*
X82395985Y-92599623D01*
X82445014Y-92626577D01*
X82448670Y-92629212D01*
X82498419Y-92673714D01*
X82533041Y-92727477D01*
X82554877Y-92797846D01*
X82566263Y-92892170D01*
X82569538Y-93017794D01*
X82568813Y-93109464D01*
X82565510Y-93178902D01*
X82558172Y-93227055D01*
X82545345Y-93263134D01*
X82525577Y-93296352D01*
X82507431Y-93321739D01*
X82441539Y-93390273D01*
X82366886Y-93427495D01*
X82273096Y-93439278D01*
X82165760Y-93427533D01*
X82072969Y-93385405D01*
X81999579Y-93311102D01*
X81994046Y-93303236D01*
X81981143Y-93282332D01*
X81971258Y-93258445D01*
X81963907Y-93226418D01*
X81958606Y-93181095D01*
X81954873Y-93117321D01*
X81952222Y-93029940D01*
X81951904Y-93011958D01*
X82139692Y-93011958D01*
X82140606Y-93062402D01*
X82150523Y-93154143D01*
X82173158Y-93214248D01*
X82210762Y-93247100D01*
X82265584Y-93257077D01*
X82288683Y-93254950D01*
X82328650Y-93233853D01*
X82355074Y-93186839D01*
X82369670Y-93109825D01*
X82374154Y-92998729D01*
X82374120Y-92980869D01*
X82372265Y-92900252D01*
X82366307Y-92847553D01*
X82354494Y-92813332D01*
X82335077Y-92788154D01*
X82333867Y-92786951D01*
X82286142Y-92754372D01*
X82239890Y-92757583D01*
X82187650Y-92797035D01*
X82174872Y-92810518D01*
X82156051Y-92838163D01*
X82145438Y-92874120D01*
X82140748Y-92928636D01*
X82139692Y-93011958D01*
X81951904Y-93011958D01*
X81950172Y-92913795D01*
X81948237Y-92763731D01*
G36*
X81201865Y-92981895D02*
G01*
X81202924Y-92887416D01*
X81206564Y-92821586D01*
X81214108Y-92775606D01*
X81226878Y-92740679D01*
X81246197Y-92708005D01*
X81250950Y-92701225D01*
X81301241Y-92647769D01*
X81358543Y-92607453D01*
X81387968Y-92594371D01*
X81493701Y-92572550D01*
X81598266Y-92586664D01*
X81694632Y-92634895D01*
X81775765Y-92715421D01*
X81782615Y-92726209D01*
X81804903Y-92788847D01*
X81819921Y-92876065D01*
X81827208Y-92976790D01*
X81826301Y-93079948D01*
X81816738Y-93174467D01*
X81798057Y-93249273D01*
X81774049Y-93299095D01*
X81706464Y-93376591D01*
X81614886Y-93424744D01*
X81502787Y-93441297D01*
X81472849Y-93440401D01*
X81384685Y-93422071D01*
X81312267Y-93375896D01*
X81245808Y-93296352D01*
X81241853Y-93290452D01*
X81223960Y-93258712D01*
X81212322Y-93222837D01*
X81205629Y-93174094D01*
X81202574Y-93103751D01*
X81201894Y-93009818D01*
X81397231Y-93009818D01*
X81399178Y-93093336D01*
X81408895Y-93172905D01*
X81428953Y-93223192D01*
X81461760Y-93249487D01*
X81509720Y-93257077D01*
X81527984Y-93255568D01*
X81579152Y-93227893D01*
X81612965Y-93165828D01*
X81629204Y-93069963D01*
X81627651Y-92940886D01*
X81627026Y-92932580D01*
X81617923Y-92861357D01*
X81601712Y-92816191D01*
X81574340Y-92785248D01*
X81528447Y-92756263D01*
X81483058Y-92754739D01*
X81436308Y-92788154D01*
X81428176Y-92796947D01*
X81412246Y-92823259D01*
X81402841Y-92861480D01*
X81398368Y-92920651D01*
X81397231Y-93009818D01*
X81201894Y-93009818D01*
X81201846Y-93003077D01*
X81201865Y-92981895D01*
G37*
X81201865Y-92981895D02*
X81202924Y-92887416D01*
X81206564Y-92821586D01*
X81214108Y-92775606D01*
X81226878Y-92740679D01*
X81246197Y-92708005D01*
X81250950Y-92701225D01*
X81301241Y-92647769D01*
X81358543Y-92607453D01*
X81387968Y-92594371D01*
X81493701Y-92572550D01*
X81598266Y-92586664D01*
X81694632Y-92634895D01*
X81775765Y-92715421D01*
X81782615Y-92726209D01*
X81804903Y-92788847D01*
X81819921Y-92876065D01*
X81827208Y-92976790D01*
X81826301Y-93079948D01*
X81816738Y-93174467D01*
X81798057Y-93249273D01*
X81774049Y-93299095D01*
X81706464Y-93376591D01*
X81614886Y-93424744D01*
X81502787Y-93441297D01*
X81472849Y-93440401D01*
X81384685Y-93422071D01*
X81312267Y-93375896D01*
X81245808Y-93296352D01*
X81241853Y-93290452D01*
X81223960Y-93258712D01*
X81212322Y-93222837D01*
X81205629Y-93174094D01*
X81202574Y-93103751D01*
X81201894Y-93009818D01*
X81397231Y-93009818D01*
X81399178Y-93093336D01*
X81408895Y-93172905D01*
X81428953Y-93223192D01*
X81461760Y-93249487D01*
X81509720Y-93257077D01*
X81527984Y-93255568D01*
X81579152Y-93227893D01*
X81612965Y-93165828D01*
X81629204Y-93069963D01*
X81627651Y-92940886D01*
X81627026Y-92932580D01*
X81617923Y-92861357D01*
X81601712Y-92816191D01*
X81574340Y-92785248D01*
X81528447Y-92756263D01*
X81483058Y-92754739D01*
X81436308Y-92788154D01*
X81428176Y-92796947D01*
X81412246Y-92823259D01*
X81402841Y-92861480D01*
X81398368Y-92920651D01*
X81397231Y-93009818D01*
X81201894Y-93009818D01*
X81201846Y-93003077D01*
X81201865Y-92981895D01*
G36*
X86635161Y-92907348D02*
G01*
X86646190Y-92803493D01*
X86670186Y-92725667D01*
X86709957Y-92666240D01*
X86768312Y-92617582D01*
X86823900Y-92589454D01*
X86917249Y-92573801D01*
X87010470Y-92590916D01*
X87094728Y-92638612D01*
X87161182Y-92714706D01*
X87169207Y-92728738D01*
X87179804Y-92753321D01*
X87187665Y-92784691D01*
X87193193Y-92828231D01*
X87196794Y-92889322D01*
X87198872Y-92973345D01*
X87199833Y-93085680D01*
X87200081Y-93231711D01*
X87200154Y-93685037D01*
X87136654Y-93658436D01*
X87119864Y-93651155D01*
X87093141Y-93634713D01*
X87077844Y-93609813D01*
X87069437Y-93566268D01*
X87063385Y-93493894D01*
X87057856Y-93428911D01*
X87050550Y-93386250D01*
X87040082Y-93370330D01*
X87024308Y-93374600D01*
X86984110Y-93389603D01*
X86912272Y-93393322D01*
X86834990Y-93379428D01*
X86768312Y-93349495D01*
X86731629Y-93321789D01*
X86684528Y-93267731D01*
X86654362Y-93198423D01*
X86638322Y-93106235D01*
X86633809Y-92989014D01*
X86770308Y-92989014D01*
X86770719Y-93055681D01*
X86773566Y-93120755D01*
X86780744Y-93162749D01*
X86794111Y-93190937D01*
X86815528Y-93214594D01*
X86828110Y-93225247D01*
X86893301Y-93253943D01*
X86961600Y-93249425D01*
X87020902Y-93211856D01*
X87033667Y-93196960D01*
X87049236Y-93168911D01*
X87058238Y-93129742D01*
X87062383Y-93070142D01*
X87063385Y-92980800D01*
X87062923Y-92909684D01*
X87060001Y-92845359D01*
X87052779Y-92803834D01*
X87039439Y-92775933D01*
X87018164Y-92752483D01*
X87013179Y-92747975D01*
X86949137Y-92714705D01*
X86881375Y-92718110D01*
X86818266Y-92757958D01*
X86799474Y-92778602D01*
X86783746Y-92805971D01*
X86774961Y-92843808D01*
X86771141Y-92901645D01*
X86770308Y-92989014D01*
X86633809Y-92989014D01*
X86633599Y-92983538D01*
X86635161Y-92907348D01*
G37*
X86635161Y-92907348D02*
X86646190Y-92803493D01*
X86670186Y-92725667D01*
X86709957Y-92666240D01*
X86768312Y-92617582D01*
X86823900Y-92589454D01*
X86917249Y-92573801D01*
X87010470Y-92590916D01*
X87094728Y-92638612D01*
X87161182Y-92714706D01*
X87169207Y-92728738D01*
X87179804Y-92753321D01*
X87187665Y-92784691D01*
X87193193Y-92828231D01*
X87196794Y-92889322D01*
X87198872Y-92973345D01*
X87199833Y-93085680D01*
X87200081Y-93231711D01*
X87200154Y-93685037D01*
X87136654Y-93658436D01*
X87119864Y-93651155D01*
X87093141Y-93634713D01*
X87077844Y-93609813D01*
X87069437Y-93566268D01*
X87063385Y-93493894D01*
X87057856Y-93428911D01*
X87050550Y-93386250D01*
X87040082Y-93370330D01*
X87024308Y-93374600D01*
X86984110Y-93389603D01*
X86912272Y-93393322D01*
X86834990Y-93379428D01*
X86768312Y-93349495D01*
X86731629Y-93321789D01*
X86684528Y-93267731D01*
X86654362Y-93198423D01*
X86638322Y-93106235D01*
X86633809Y-92989014D01*
X86770308Y-92989014D01*
X86770719Y-93055681D01*
X86773566Y-93120755D01*
X86780744Y-93162749D01*
X86794111Y-93190937D01*
X86815528Y-93214594D01*
X86828110Y-93225247D01*
X86893301Y-93253943D01*
X86961600Y-93249425D01*
X87020902Y-93211856D01*
X87033667Y-93196960D01*
X87049236Y-93168911D01*
X87058238Y-93129742D01*
X87062383Y-93070142D01*
X87063385Y-92980800D01*
X87062923Y-92909684D01*
X87060001Y-92845359D01*
X87052779Y-92803834D01*
X87039439Y-92775933D01*
X87018164Y-92752483D01*
X87013179Y-92747975D01*
X86949137Y-92714705D01*
X86881375Y-92718110D01*
X86818266Y-92757958D01*
X86799474Y-92778602D01*
X86783746Y-92805971D01*
X86774961Y-92843808D01*
X86771141Y-92901645D01*
X86770308Y-92989014D01*
X86633809Y-92989014D01*
X86633599Y-92983538D01*
X86635161Y-92907348D01*
G36*
X88576576Y-92579333D02*
G01*
X88615773Y-92595905D01*
X88665538Y-92618580D01*
X88665538Y-92909491D01*
X88665220Y-92984060D01*
X88662211Y-93097299D01*
X88654546Y-93181308D01*
X88640438Y-93242480D01*
X88618101Y-93287205D01*
X88585747Y-93321876D01*
X88541590Y-93352883D01*
X88485333Y-93378472D01*
X88381460Y-93393846D01*
X88334064Y-93392089D01*
X88292193Y-93381453D01*
X88253209Y-93354938D01*
X88203035Y-93305580D01*
X88170768Y-93270721D01*
X88137156Y-93225466D01*
X88121997Y-93183049D01*
X88118461Y-93129232D01*
X88118461Y-93041150D01*
X88178530Y-93072213D01*
X88226133Y-93110064D01*
X88258739Y-93161050D01*
X88264339Y-93174912D01*
X88307008Y-93228642D01*
X88366293Y-93255583D01*
X88430939Y-93252961D01*
X88489692Y-93218000D01*
X88514550Y-93189606D01*
X88529030Y-93153282D01*
X88513530Y-93120954D01*
X88465333Y-93088435D01*
X88381726Y-93051539D01*
X88369038Y-93046443D01*
X88292922Y-93013093D01*
X88227604Y-92980207D01*
X88186047Y-92954231D01*
X88144424Y-92907833D01*
X88116753Y-92833789D01*
X88119690Y-92754330D01*
X88152429Y-92679132D01*
X88214159Y-92617869D01*
X88264142Y-92591790D01*
X88360697Y-92573530D01*
X88414353Y-92575993D01*
X88464024Y-92589313D01*
X88483081Y-92617261D01*
X88475955Y-92663290D01*
X88473882Y-92669376D01*
X88457444Y-92701651D01*
X88430074Y-92713867D01*
X88377932Y-92713050D01*
X88341116Y-92711939D01*
X88298039Y-92721472D01*
X88268525Y-92749974D01*
X88251714Y-92785065D01*
X88249839Y-92821825D01*
X88249926Y-92822039D01*
X88271721Y-92841902D01*
X88318368Y-92870808D01*
X88378722Y-92903114D01*
X88441640Y-92933177D01*
X88495977Y-92955354D01*
X88530590Y-92964000D01*
X88535740Y-92955533D01*
X88542222Y-92915691D01*
X88546661Y-92850629D01*
X88548308Y-92768615D01*
X88548691Y-92711847D01*
X88550495Y-92640352D01*
X88553442Y-92591390D01*
X88557157Y-92573231D01*
X88576576Y-92579333D01*
G37*
X88576576Y-92579333D02*
X88615773Y-92595905D01*
X88665538Y-92618580D01*
X88665538Y-92909491D01*
X88665220Y-92984060D01*
X88662211Y-93097299D01*
X88654546Y-93181308D01*
X88640438Y-93242480D01*
X88618101Y-93287205D01*
X88585747Y-93321876D01*
X88541590Y-93352883D01*
X88485333Y-93378472D01*
X88381460Y-93393846D01*
X88334064Y-93392089D01*
X88292193Y-93381453D01*
X88253209Y-93354938D01*
X88203035Y-93305580D01*
X88170768Y-93270721D01*
X88137156Y-93225466D01*
X88121997Y-93183049D01*
X88118461Y-93129232D01*
X88118461Y-93041150D01*
X88178530Y-93072213D01*
X88226133Y-93110064D01*
X88258739Y-93161050D01*
X88264339Y-93174912D01*
X88307008Y-93228642D01*
X88366293Y-93255583D01*
X88430939Y-93252961D01*
X88489692Y-93218000D01*
X88514550Y-93189606D01*
X88529030Y-93153282D01*
X88513530Y-93120954D01*
X88465333Y-93088435D01*
X88381726Y-93051539D01*
X88369038Y-93046443D01*
X88292922Y-93013093D01*
X88227604Y-92980207D01*
X88186047Y-92954231D01*
X88144424Y-92907833D01*
X88116753Y-92833789D01*
X88119690Y-92754330D01*
X88152429Y-92679132D01*
X88214159Y-92617869D01*
X88264142Y-92591790D01*
X88360697Y-92573530D01*
X88414353Y-92575993D01*
X88464024Y-92589313D01*
X88483081Y-92617261D01*
X88475955Y-92663290D01*
X88473882Y-92669376D01*
X88457444Y-92701651D01*
X88430074Y-92713867D01*
X88377932Y-92713050D01*
X88341116Y-92711939D01*
X88298039Y-92721472D01*
X88268525Y-92749974D01*
X88251714Y-92785065D01*
X88249839Y-92821825D01*
X88249926Y-92822039D01*
X88271721Y-92841902D01*
X88318368Y-92870808D01*
X88378722Y-92903114D01*
X88441640Y-92933177D01*
X88495977Y-92955354D01*
X88530590Y-92964000D01*
X88535740Y-92955533D01*
X88542222Y-92915691D01*
X88546661Y-92850629D01*
X88548308Y-92768615D01*
X88548691Y-92711847D01*
X88550495Y-92640352D01*
X88553442Y-92591390D01*
X88557157Y-92573231D01*
X88576576Y-92579333D01*
G36*
X87476794Y-94176730D02*
G01*
X87506908Y-94197944D01*
X87558360Y-94241763D01*
X87626625Y-94304091D01*
X87707180Y-94380830D01*
X87795500Y-94467884D01*
X88087512Y-94760383D01*
X87632640Y-95429475D01*
X87701792Y-95579084D01*
X87701997Y-95579527D01*
X87743523Y-95674899D01*
X87785956Y-95781104D01*
X87820142Y-95875231D01*
X87825316Y-95890412D01*
X87851399Y-95960891D01*
X87874919Y-96015658D01*
X87891323Y-96043921D01*
X87898004Y-96047912D01*
X87938108Y-96061303D01*
X88006205Y-96078627D01*
X88094855Y-96098083D01*
X88196615Y-96117868D01*
X88227096Y-96123449D01*
X88337372Y-96143767D01*
X88440269Y-96162905D01*
X88525431Y-96178930D01*
X88582500Y-96189909D01*
X88685077Y-96210155D01*
X88685077Y-96637299D01*
X88685054Y-96689820D01*
X88684621Y-96817953D01*
X88683341Y-96913580D01*
X88680832Y-96981589D01*
X88676714Y-97026867D01*
X88670605Y-97054303D01*
X88662122Y-97068782D01*
X88650885Y-97075193D01*
X88640006Y-97077791D01*
X88595653Y-97086978D01*
X88524894Y-97101009D01*
X88434926Y-97118514D01*
X88332944Y-97138126D01*
X88226143Y-97158475D01*
X88121719Y-97178193D01*
X88026868Y-97195911D01*
X87948786Y-97210262D01*
X87894668Y-97219876D01*
X87871709Y-97223384D01*
X87870158Y-97225503D01*
X87857675Y-97252994D01*
X87836073Y-97305594D01*
X87808877Y-97374808D01*
X87771134Y-97468063D01*
X87724672Y-97575841D01*
X87681122Y-97670828D01*
X87671142Y-97692149D01*
X87643138Y-97758914D01*
X87626359Y-97810410D01*
X87624146Y-97836905D01*
X87625287Y-97838782D01*
X87643416Y-97866435D01*
X87679356Y-97920151D01*
X87729582Y-97994697D01*
X87790570Y-98084838D01*
X87858795Y-98185343D01*
X87935670Y-98299530D01*
X87993337Y-98388230D01*
X88032574Y-98453279D01*
X88055650Y-98498705D01*
X88064834Y-98528537D01*
X88062396Y-98546805D01*
X88061576Y-98548175D01*
X88039523Y-98574795D01*
X87994564Y-98623303D01*
X87931327Y-98688892D01*
X87854441Y-98766753D01*
X87768535Y-98852078D01*
X87679421Y-98938666D01*
X87592128Y-99020053D01*
X87527982Y-99074965D01*
X87485321Y-99104810D01*
X87462479Y-99110996D01*
X87459495Y-99109606D01*
X87428064Y-99090873D01*
X87371003Y-99054267D01*
X87293657Y-99003303D01*
X87201374Y-98941496D01*
X87099498Y-98872361D01*
X86767407Y-98645580D01*
X86617434Y-98713647D01*
X86613077Y-98715619D01*
X86521000Y-98755509D01*
X86423317Y-98795182D01*
X86340461Y-98826326D01*
X86340095Y-98826455D01*
X86274315Y-98850544D01*
X86223677Y-98870890D01*
X86199116Y-98883099D01*
X86198718Y-98883542D01*
X86190381Y-98908544D01*
X86176659Y-98965402D01*
X86158877Y-99047986D01*
X86138359Y-99150169D01*
X86116429Y-99265822D01*
X86115664Y-99269967D01*
X86093771Y-99387981D01*
X86073719Y-99494849D01*
X86056808Y-99583748D01*
X86044333Y-99647855D01*
X86037594Y-99680346D01*
X86037163Y-99682147D01*
X86032727Y-99696056D01*
X86023737Y-99706511D01*
X86005263Y-99714004D01*
X85972372Y-99719028D01*
X85920132Y-99722078D01*
X85843612Y-99723645D01*
X85737878Y-99724224D01*
X85598000Y-99724308D01*
X85580425Y-99724307D01*
X85444629Y-99724193D01*
X85342424Y-99723528D01*
X85268878Y-99721818D01*
X85219058Y-99718571D01*
X85188033Y-99713294D01*
X85170871Y-99705493D01*
X85162639Y-99694675D01*
X85158406Y-99680346D01*
X85158284Y-99679832D01*
X85151328Y-99646149D01*
X85138680Y-99581083D01*
X85121640Y-99491458D01*
X85101504Y-99384096D01*
X85079571Y-99265822D01*
X85077782Y-99256144D01*
X85055917Y-99141350D01*
X85035570Y-99040520D01*
X85018066Y-98959783D01*
X85004729Y-98905266D01*
X84996884Y-98883099D01*
X84996842Y-98883064D01*
X84972116Y-98870800D01*
X84921369Y-98850424D01*
X84855538Y-98826326D01*
X84851831Y-98825017D01*
X84767669Y-98793209D01*
X84669770Y-98753315D01*
X84578565Y-98713647D01*
X84428593Y-98645580D01*
X84096501Y-98872361D01*
X84073111Y-98888312D01*
X83972920Y-98956110D01*
X83883520Y-99015792D01*
X83810255Y-99063844D01*
X83758473Y-99096750D01*
X83733520Y-99110996D01*
X83716423Y-99107730D01*
X83677605Y-99082429D01*
X83617615Y-99032325D01*
X83534790Y-98956011D01*
X83427465Y-98852078D01*
X83417861Y-98842618D01*
X83332698Y-98757855D01*
X83257051Y-98681063D01*
X83195551Y-98617053D01*
X83152827Y-98570639D01*
X83133511Y-98546631D01*
X83133448Y-98546515D01*
X83130994Y-98528237D01*
X83140044Y-98498589D01*
X83162881Y-98453514D01*
X83201787Y-98388956D01*
X83259046Y-98300860D01*
X83336941Y-98185170D01*
X83350215Y-98165643D01*
X83417348Y-98066722D01*
X83476590Y-97979152D01*
X83524412Y-97908169D01*
X83557285Y-97859009D01*
X83571682Y-97836905D01*
X83572768Y-97832223D01*
X83565956Y-97797290D01*
X83545550Y-97740247D01*
X83514877Y-97670828D01*
X83473192Y-97580041D01*
X83426648Y-97472314D01*
X83387123Y-97374808D01*
X83377324Y-97349570D01*
X83351660Y-97285130D01*
X83332807Y-97240237D01*
X83324290Y-97223384D01*
X83314889Y-97222125D01*
X83272637Y-97214841D01*
X83203479Y-97202261D01*
X83114613Y-97185754D01*
X83013232Y-97166688D01*
X82906533Y-97146431D01*
X82801712Y-97126353D01*
X82705964Y-97107821D01*
X82626484Y-97092205D01*
X82570470Y-97080873D01*
X82545115Y-97075193D01*
X82540912Y-97073592D01*
X82530666Y-97064955D01*
X82523043Y-97046567D01*
X82517662Y-97013540D01*
X82514141Y-96960987D01*
X82512099Y-96884021D01*
X82511153Y-96777754D01*
X82510923Y-96637299D01*
X82510923Y-96210155D01*
X82613500Y-96189909D01*
X82625908Y-96187482D01*
X82691801Y-96174912D01*
X82782916Y-96157830D01*
X82888896Y-96138171D01*
X82999385Y-96117868D01*
X83042895Y-96109701D01*
X83140118Y-96089833D01*
X83221142Y-96071046D01*
X83278523Y-96055141D01*
X83304813Y-96043921D01*
X83316727Y-96025589D01*
X83338417Y-95977084D01*
X83360605Y-95914308D01*
X83368415Y-95890800D01*
X83397165Y-95813634D01*
X83434248Y-95722306D01*
X83473625Y-95631907D01*
X83494685Y-95584690D01*
X83524689Y-95514163D01*
X83545308Y-95461345D01*
X83552974Y-95435088D01*
X83552548Y-95433106D01*
X83538007Y-95405249D01*
X83505217Y-95351490D01*
X83457507Y-95277037D01*
X83398202Y-95187103D01*
X83330631Y-95086896D01*
X83108287Y-94760584D01*
X83400399Y-94467984D01*
X83428651Y-94439829D01*
X83515039Y-94355551D01*
X83592244Y-94282872D01*
X83655742Y-94225888D01*
X83701010Y-94188693D01*
X83723526Y-94175384D01*
X83747977Y-94185510D01*
X83799181Y-94214579D01*
X83871253Y-94259104D01*
X83958540Y-94315589D01*
X84055388Y-94380538D01*
X84150514Y-94444686D01*
X84236331Y-94501173D01*
X84306348Y-94545816D01*
X84355124Y-94575145D01*
X84377217Y-94585692D01*
X84378512Y-94585596D01*
X84407861Y-94575198D01*
X84459907Y-94550988D01*
X84524292Y-94517751D01*
X84524968Y-94517387D01*
X84610479Y-94474559D01*
X84669074Y-94453635D01*
X84705429Y-94453577D01*
X84724225Y-94473346D01*
X84732181Y-94492805D01*
X84753653Y-94544920D01*
X84786727Y-94625036D01*
X84829644Y-94728893D01*
X84880644Y-94852233D01*
X84937967Y-94990799D01*
X84999854Y-95140330D01*
X85055948Y-95276364D01*
X85113023Y-95415950D01*
X85163521Y-95540685D01*
X85205746Y-95646328D01*
X85238005Y-95728635D01*
X85258603Y-95783365D01*
X85265846Y-95806274D01*
X85252014Y-95827282D01*
X85213588Y-95862358D01*
X85159193Y-95903113D01*
X85028605Y-96009733D01*
X84911740Y-96145975D01*
X84826220Y-96295882D01*
X84772569Y-96455029D01*
X84751316Y-96618988D01*
X84762986Y-96783333D01*
X84808106Y-96943639D01*
X84887203Y-97095480D01*
X85000803Y-97234428D01*
X85060035Y-97288540D01*
X85201946Y-97384218D01*
X85353794Y-97446595D01*
X85511139Y-97477156D01*
X85669544Y-97477385D01*
X85824571Y-97448768D01*
X85971780Y-97392790D01*
X86106734Y-97310936D01*
X86224995Y-97204691D01*
X86322123Y-97075541D01*
X86393682Y-96924969D01*
X86435231Y-96754461D01*
X86442857Y-96672278D01*
X86432366Y-96494225D01*
X86385118Y-96325296D01*
X86302511Y-96168478D01*
X86185941Y-96026755D01*
X86036807Y-95903113D01*
X85984439Y-95864018D01*
X85945168Y-95828557D01*
X85930154Y-95806308D01*
X85936141Y-95786912D01*
X85955568Y-95734941D01*
X85986806Y-95654998D01*
X86028161Y-95551327D01*
X86077939Y-95428168D01*
X86134447Y-95289766D01*
X86195991Y-95140363D01*
X86251992Y-95004980D01*
X86309816Y-94865148D01*
X86361500Y-94740128D01*
X86405282Y-94634178D01*
X86439403Y-94551559D01*
X86462102Y-94496528D01*
X86471620Y-94473346D01*
X86471731Y-94473072D01*
X86490772Y-94453497D01*
X86527306Y-94453721D01*
X86586046Y-94474790D01*
X86671708Y-94517751D01*
X86678451Y-94521369D01*
X86742062Y-94553913D01*
X86792293Y-94576950D01*
X86818782Y-94585692D01*
X86840494Y-94575361D01*
X86889016Y-94546212D01*
X86958837Y-94501713D01*
X87044516Y-94445332D01*
X87140612Y-94380538D01*
X87235294Y-94317016D01*
X87322868Y-94260295D01*
X87395358Y-94215453D01*
X87447111Y-94185984D01*
X87472474Y-94175384D01*
X87476794Y-94176730D01*
G37*
X87476794Y-94176730D02*
X87506908Y-94197944D01*
X87558360Y-94241763D01*
X87626625Y-94304091D01*
X87707180Y-94380830D01*
X87795500Y-94467884D01*
X88087512Y-94760383D01*
X87632640Y-95429475D01*
X87701792Y-95579084D01*
X87701997Y-95579527D01*
X87743523Y-95674899D01*
X87785956Y-95781104D01*
X87820142Y-95875231D01*
X87825316Y-95890412D01*
X87851399Y-95960891D01*
X87874919Y-96015658D01*
X87891323Y-96043921D01*
X87898004Y-96047912D01*
X87938108Y-96061303D01*
X88006205Y-96078627D01*
X88094855Y-96098083D01*
X88196615Y-96117868D01*
X88227096Y-96123449D01*
X88337372Y-96143767D01*
X88440269Y-96162905D01*
X88525431Y-96178930D01*
X88582500Y-96189909D01*
X88685077Y-96210155D01*
X88685077Y-96637299D01*
X88685054Y-96689820D01*
X88684621Y-96817953D01*
X88683341Y-96913580D01*
X88680832Y-96981589D01*
X88676714Y-97026867D01*
X88670605Y-97054303D01*
X88662122Y-97068782D01*
X88650885Y-97075193D01*
X88640006Y-97077791D01*
X88595653Y-97086978D01*
X88524894Y-97101009D01*
X88434926Y-97118514D01*
X88332944Y-97138126D01*
X88226143Y-97158475D01*
X88121719Y-97178193D01*
X88026868Y-97195911D01*
X87948786Y-97210262D01*
X87894668Y-97219876D01*
X87871709Y-97223384D01*
X87870158Y-97225503D01*
X87857675Y-97252994D01*
X87836073Y-97305594D01*
X87808877Y-97374808D01*
X87771134Y-97468063D01*
X87724672Y-97575841D01*
X87681122Y-97670828D01*
X87671142Y-97692149D01*
X87643138Y-97758914D01*
X87626359Y-97810410D01*
X87624146Y-97836905D01*
X87625287Y-97838782D01*
X87643416Y-97866435D01*
X87679356Y-97920151D01*
X87729582Y-97994697D01*
X87790570Y-98084838D01*
X87858795Y-98185343D01*
X87935670Y-98299530D01*
X87993337Y-98388230D01*
X88032574Y-98453279D01*
X88055650Y-98498705D01*
X88064834Y-98528537D01*
X88062396Y-98546805D01*
X88061576Y-98548175D01*
X88039523Y-98574795D01*
X87994564Y-98623303D01*
X87931327Y-98688892D01*
X87854441Y-98766753D01*
X87768535Y-98852078D01*
X87679421Y-98938666D01*
X87592128Y-99020053D01*
X87527982Y-99074965D01*
X87485321Y-99104810D01*
X87462479Y-99110996D01*
X87459495Y-99109606D01*
X87428064Y-99090873D01*
X87371003Y-99054267D01*
X87293657Y-99003303D01*
X87201374Y-98941496D01*
X87099498Y-98872361D01*
X86767407Y-98645580D01*
X86617434Y-98713647D01*
X86613077Y-98715619D01*
X86521000Y-98755509D01*
X86423317Y-98795182D01*
X86340461Y-98826326D01*
X86340095Y-98826455D01*
X86274315Y-98850544D01*
X86223677Y-98870890D01*
X86199116Y-98883099D01*
X86198718Y-98883542D01*
X86190381Y-98908544D01*
X86176659Y-98965402D01*
X86158877Y-99047986D01*
X86138359Y-99150169D01*
X86116429Y-99265822D01*
X86115664Y-99269967D01*
X86093771Y-99387981D01*
X86073719Y-99494849D01*
X86056808Y-99583748D01*
X86044333Y-99647855D01*
X86037594Y-99680346D01*
X86037163Y-99682147D01*
X86032727Y-99696056D01*
X86023737Y-99706511D01*
X86005263Y-99714004D01*
X85972372Y-99719028D01*
X85920132Y-99722078D01*
X85843612Y-99723645D01*
X85737878Y-99724224D01*
X85598000Y-99724308D01*
X85580425Y-99724307D01*
X85444629Y-99724193D01*
X85342424Y-99723528D01*
X85268878Y-99721818D01*
X85219058Y-99718571D01*
X85188033Y-99713294D01*
X85170871Y-99705493D01*
X85162639Y-99694675D01*
X85158406Y-99680346D01*
X85158284Y-99679832D01*
X85151328Y-99646149D01*
X85138680Y-99581083D01*
X85121640Y-99491458D01*
X85101504Y-99384096D01*
X85079571Y-99265822D01*
X85077782Y-99256144D01*
X85055917Y-99141350D01*
X85035570Y-99040520D01*
X85018066Y-98959783D01*
X85004729Y-98905266D01*
X84996884Y-98883099D01*
X84996842Y-98883064D01*
X84972116Y-98870800D01*
X84921369Y-98850424D01*
X84855538Y-98826326D01*
X84851831Y-98825017D01*
X84767669Y-98793209D01*
X84669770Y-98753315D01*
X84578565Y-98713647D01*
X84428593Y-98645580D01*
X84096501Y-98872361D01*
X84073111Y-98888312D01*
X83972920Y-98956110D01*
X83883520Y-99015792D01*
X83810255Y-99063844D01*
X83758473Y-99096750D01*
X83733520Y-99110996D01*
X83716423Y-99107730D01*
X83677605Y-99082429D01*
X83617615Y-99032325D01*
X83534790Y-98956011D01*
X83427465Y-98852078D01*
X83417861Y-98842618D01*
X83332698Y-98757855D01*
X83257051Y-98681063D01*
X83195551Y-98617053D01*
X83152827Y-98570639D01*
X83133511Y-98546631D01*
X83133448Y-98546515D01*
X83130994Y-98528237D01*
X83140044Y-98498589D01*
X83162881Y-98453514D01*
X83201787Y-98388956D01*
X83259046Y-98300860D01*
X83336941Y-98185170D01*
X83350215Y-98165643D01*
X83417348Y-98066722D01*
X83476590Y-97979152D01*
X83524412Y-97908169D01*
X83557285Y-97859009D01*
X83571682Y-97836905D01*
X83572768Y-97832223D01*
X83565956Y-97797290D01*
X83545550Y-97740247D01*
X83514877Y-97670828D01*
X83473192Y-97580041D01*
X83426648Y-97472314D01*
X83387123Y-97374808D01*
X83377324Y-97349570D01*
X83351660Y-97285130D01*
X83332807Y-97240237D01*
X83324290Y-97223384D01*
X83314889Y-97222125D01*
X83272637Y-97214841D01*
X83203479Y-97202261D01*
X83114613Y-97185754D01*
X83013232Y-97166688D01*
X82906533Y-97146431D01*
X82801712Y-97126353D01*
X82705964Y-97107821D01*
X82626484Y-97092205D01*
X82570470Y-97080873D01*
X82545115Y-97075193D01*
X82540912Y-97073592D01*
X82530666Y-97064955D01*
X82523043Y-97046567D01*
X82517662Y-97013540D01*
X82514141Y-96960987D01*
X82512099Y-96884021D01*
X82511153Y-96777754D01*
X82510923Y-96637299D01*
X82510923Y-96210155D01*
X82613500Y-96189909D01*
X82625908Y-96187482D01*
X82691801Y-96174912D01*
X82782916Y-96157830D01*
X82888896Y-96138171D01*
X82999385Y-96117868D01*
X83042895Y-96109701D01*
X83140118Y-96089833D01*
X83221142Y-96071046D01*
X83278523Y-96055141D01*
X83304813Y-96043921D01*
X83316727Y-96025589D01*
X83338417Y-95977084D01*
X83360605Y-95914308D01*
X83368415Y-95890800D01*
X83397165Y-95813634D01*
X83434248Y-95722306D01*
X83473625Y-95631907D01*
X83494685Y-95584690D01*
X83524689Y-95514163D01*
X83545308Y-95461345D01*
X83552974Y-95435088D01*
X83552548Y-95433106D01*
X83538007Y-95405249D01*
X83505217Y-95351490D01*
X83457507Y-95277037D01*
X83398202Y-95187103D01*
X83330631Y-95086896D01*
X83108287Y-94760584D01*
X83400399Y-94467984D01*
X83428651Y-94439829D01*
X83515039Y-94355551D01*
X83592244Y-94282872D01*
X83655742Y-94225888D01*
X83701010Y-94188693D01*
X83723526Y-94175384D01*
X83747977Y-94185510D01*
X83799181Y-94214579D01*
X83871253Y-94259104D01*
X83958540Y-94315589D01*
X84055388Y-94380538D01*
X84150514Y-94444686D01*
X84236331Y-94501173D01*
X84306348Y-94545816D01*
X84355124Y-94575145D01*
X84377217Y-94585692D01*
X84378512Y-94585596D01*
X84407861Y-94575198D01*
X84459907Y-94550988D01*
X84524292Y-94517751D01*
X84524968Y-94517387D01*
X84610479Y-94474559D01*
X84669074Y-94453635D01*
X84705429Y-94453577D01*
X84724225Y-94473346D01*
X84732181Y-94492805D01*
X84753653Y-94544920D01*
X84786727Y-94625036D01*
X84829644Y-94728893D01*
X84880644Y-94852233D01*
X84937967Y-94990799D01*
X84999854Y-95140330D01*
X85055948Y-95276364D01*
X85113023Y-95415950D01*
X85163521Y-95540685D01*
X85205746Y-95646328D01*
X85238005Y-95728635D01*
X85258603Y-95783365D01*
X85265846Y-95806274D01*
X85252014Y-95827282D01*
X85213588Y-95862358D01*
X85159193Y-95903113D01*
X85028605Y-96009733D01*
X84911740Y-96145975D01*
X84826220Y-96295882D01*
X84772569Y-96455029D01*
X84751316Y-96618988D01*
X84762986Y-96783333D01*
X84808106Y-96943639D01*
X84887203Y-97095480D01*
X85000803Y-97234428D01*
X85060035Y-97288540D01*
X85201946Y-97384218D01*
X85353794Y-97446595D01*
X85511139Y-97477156D01*
X85669544Y-97477385D01*
X85824571Y-97448768D01*
X85971780Y-97392790D01*
X86106734Y-97310936D01*
X86224995Y-97204691D01*
X86322123Y-97075541D01*
X86393682Y-96924969D01*
X86435231Y-96754461D01*
X86442857Y-96672278D01*
X86432366Y-96494225D01*
X86385118Y-96325296D01*
X86302511Y-96168478D01*
X86185941Y-96026755D01*
X86036807Y-95903113D01*
X85984439Y-95864018D01*
X85945168Y-95828557D01*
X85930154Y-95806308D01*
X85936141Y-95786912D01*
X85955568Y-95734941D01*
X85986806Y-95654998D01*
X86028161Y-95551327D01*
X86077939Y-95428168D01*
X86134447Y-95289766D01*
X86195991Y-95140363D01*
X86251992Y-95004980D01*
X86309816Y-94865148D01*
X86361500Y-94740128D01*
X86405282Y-94634178D01*
X86439403Y-94551559D01*
X86462102Y-94496528D01*
X86471620Y-94473346D01*
X86471731Y-94473072D01*
X86490772Y-94453497D01*
X86527306Y-94453721D01*
X86586046Y-94474790D01*
X86671708Y-94517751D01*
X86678451Y-94521369D01*
X86742062Y-94553913D01*
X86792293Y-94576950D01*
X86818782Y-94585692D01*
X86840494Y-94575361D01*
X86889016Y-94546212D01*
X86958837Y-94501713D01*
X87044516Y-94445332D01*
X87140612Y-94380538D01*
X87235294Y-94317016D01*
X87322868Y-94260295D01*
X87395358Y-94215453D01*
X87447111Y-94185984D01*
X87472474Y-94175384D01*
X87476794Y-94176730D01*
G36*
X87530638Y-92581567D02*
G01*
X87554544Y-92584538D01*
X87616199Y-92590824D01*
X87659308Y-92593328D01*
X87672095Y-92592945D01*
X87724554Y-92588800D01*
X87787978Y-92581567D01*
X87808270Y-92579082D01*
X87859390Y-92578105D01*
X87896793Y-92593538D01*
X87939401Y-92631637D01*
X88001231Y-92693467D01*
X88001231Y-93043657D01*
X88000749Y-93147143D01*
X87999247Y-93245808D01*
X87996911Y-93323932D01*
X87993929Y-93375338D01*
X87990491Y-93393846D01*
X87989770Y-93393796D01*
X87964797Y-93384587D01*
X87922601Y-93364293D01*
X87865451Y-93334739D01*
X87860072Y-93027254D01*
X87854692Y-92719769D01*
X87737461Y-92719769D01*
X87732115Y-93056808D01*
X87730421Y-93148426D01*
X87727995Y-93246351D01*
X87725366Y-93324094D01*
X87722754Y-93375358D01*
X87720377Y-93393846D01*
X87719694Y-93393781D01*
X87696004Y-93386980D01*
X87652454Y-93372396D01*
X87590923Y-93350946D01*
X87590624Y-93054896D01*
X87590324Y-93003468D01*
X87588246Y-92903534D01*
X87584530Y-92820075D01*
X87579570Y-92760623D01*
X87573760Y-92732713D01*
X87552976Y-92717786D01*
X87510560Y-92713175D01*
X87463923Y-92719769D01*
X87458577Y-93056808D01*
X87456664Y-93142454D01*
X87452697Y-93243828D01*
X87447509Y-93323345D01*
X87441501Y-93375264D01*
X87435073Y-93393846D01*
X87410002Y-93387966D01*
X87367150Y-93371171D01*
X87317385Y-93348497D01*
X87317385Y-92693467D01*
X87379215Y-92631637D01*
X87393338Y-92617772D01*
X87432464Y-92586954D01*
X87471922Y-92576972D01*
X87530638Y-92581567D01*
G37*
X87530638Y-92581567D02*
X87554544Y-92584538D01*
X87616199Y-92590824D01*
X87659308Y-92593328D01*
X87672095Y-92592945D01*
X87724554Y-92588800D01*
X87787978Y-92581567D01*
X87808270Y-92579082D01*
X87859390Y-92578105D01*
X87896793Y-92593538D01*
X87939401Y-92631637D01*
X88001231Y-92693467D01*
X88001231Y-93043657D01*
X88000749Y-93147143D01*
X87999247Y-93245808D01*
X87996911Y-93323932D01*
X87993929Y-93375338D01*
X87990491Y-93393846D01*
X87989770Y-93393796D01*
X87964797Y-93384587D01*
X87922601Y-93364293D01*
X87865451Y-93334739D01*
X87860072Y-93027254D01*
X87854692Y-92719769D01*
X87737461Y-92719769D01*
X87732115Y-93056808D01*
X87730421Y-93148426D01*
X87727995Y-93246351D01*
X87725366Y-93324094D01*
X87722754Y-93375358D01*
X87720377Y-93393846D01*
X87719694Y-93393781D01*
X87696004Y-93386980D01*
X87652454Y-93372396D01*
X87590923Y-93350946D01*
X87590624Y-93054896D01*
X87590324Y-93003468D01*
X87588246Y-92903534D01*
X87584530Y-92820075D01*
X87579570Y-92760623D01*
X87573760Y-92732713D01*
X87552976Y-92717786D01*
X87510560Y-92713175D01*
X87463923Y-92719769D01*
X87458577Y-93056808D01*
X87456664Y-93142454D01*
X87452697Y-93243828D01*
X87447509Y-93323345D01*
X87441501Y-93375264D01*
X87435073Y-93393846D01*
X87410002Y-93387966D01*
X87367150Y-93371171D01*
X87317385Y-93348497D01*
X87317385Y-92693467D01*
X87379215Y-92631637D01*
X87393338Y-92617772D01*
X87432464Y-92586954D01*
X87471922Y-92576972D01*
X87530638Y-92581567D01*
G36*
X89447587Y-92927551D02*
G01*
X89452359Y-92824953D01*
X89464850Y-92749874D01*
X89487879Y-92694252D01*
X89524268Y-92650025D01*
X89576838Y-92609131D01*
X89610286Y-92590534D01*
X89663902Y-92578009D01*
X89739220Y-92578997D01*
X89781328Y-92582965D01*
X89832121Y-92595080D01*
X89872720Y-92621415D01*
X89919951Y-92670486D01*
X89926262Y-92677654D01*
X89968723Y-92732811D01*
X89988982Y-92780850D01*
X89994154Y-92837816D01*
X89994154Y-92921529D01*
X89935654Y-92899448D01*
X89893006Y-92873636D01*
X89855936Y-92813072D01*
X89848197Y-92793680D01*
X89804926Y-92738765D01*
X89746024Y-92711121D01*
X89681889Y-92713607D01*
X89622923Y-92749077D01*
X89602658Y-92771195D01*
X89584280Y-92804564D01*
X89590029Y-92834883D01*
X89623113Y-92866087D01*
X89686739Y-92902113D01*
X89784115Y-92946897D01*
X89984385Y-93034555D01*
X89989699Y-93121393D01*
X89987353Y-93186337D01*
X89957814Y-93268410D01*
X89920528Y-93313639D01*
X89843224Y-93364162D01*
X89751522Y-93389684D01*
X89656726Y-93387664D01*
X89570141Y-93355560D01*
X89551080Y-93343233D01*
X89507360Y-93305088D01*
X89477460Y-93256833D01*
X89459032Y-93191290D01*
X89449730Y-93101280D01*
X89448501Y-93042052D01*
X89566471Y-93042052D01*
X89571349Y-93095884D01*
X89583636Y-93148527D01*
X89621959Y-93214849D01*
X89677280Y-93252220D01*
X89743360Y-93257279D01*
X89813960Y-93226661D01*
X89833526Y-93211352D01*
X89857217Y-93176704D01*
X89847312Y-93142462D01*
X89802244Y-93105904D01*
X89720443Y-93064308D01*
X89706908Y-93058282D01*
X89642182Y-93030247D01*
X89593753Y-93010528D01*
X89571249Y-93003077D01*
X89567839Y-93008562D01*
X89566471Y-93042052D01*
X89448501Y-93042052D01*
X89447206Y-92979624D01*
X89447587Y-92927551D01*
G37*
X89447587Y-92927551D02*
X89452359Y-92824953D01*
X89464850Y-92749874D01*
X89487879Y-92694252D01*
X89524268Y-92650025D01*
X89576838Y-92609131D01*
X89610286Y-92590534D01*
X89663902Y-92578009D01*
X89739220Y-92578997D01*
X89781328Y-92582965D01*
X89832121Y-92595080D01*
X89872720Y-92621415D01*
X89919951Y-92670486D01*
X89926262Y-92677654D01*
X89968723Y-92732811D01*
X89988982Y-92780850D01*
X89994154Y-92837816D01*
X89994154Y-92921529D01*
X89935654Y-92899448D01*
X89893006Y-92873636D01*
X89855936Y-92813072D01*
X89848197Y-92793680D01*
X89804926Y-92738765D01*
X89746024Y-92711121D01*
X89681889Y-92713607D01*
X89622923Y-92749077D01*
X89602658Y-92771195D01*
X89584280Y-92804564D01*
X89590029Y-92834883D01*
X89623113Y-92866087D01*
X89686739Y-92902113D01*
X89784115Y-92946897D01*
X89984385Y-93034555D01*
X89989699Y-93121393D01*
X89987353Y-93186337D01*
X89957814Y-93268410D01*
X89920528Y-93313639D01*
X89843224Y-93364162D01*
X89751522Y-93389684D01*
X89656726Y-93387664D01*
X89570141Y-93355560D01*
X89551080Y-93343233D01*
X89507360Y-93305088D01*
X89477460Y-93256833D01*
X89459032Y-93191290D01*
X89449730Y-93101280D01*
X89448501Y-93042052D01*
X89566471Y-93042052D01*
X89571349Y-93095884D01*
X89583636Y-93148527D01*
X89621959Y-93214849D01*
X89677280Y-93252220D01*
X89743360Y-93257279D01*
X89813960Y-93226661D01*
X89833526Y-93211352D01*
X89857217Y-93176704D01*
X89847312Y-93142462D01*
X89802244Y-93105904D01*
X89720443Y-93064308D01*
X89706908Y-93058282D01*
X89642182Y-93030247D01*
X89593753Y-93010528D01*
X89571249Y-93003077D01*
X89567839Y-93008562D01*
X89566471Y-93042052D01*
X89448501Y-93042052D01*
X89447206Y-92979624D01*
X89447587Y-92927551D01*
G36*
X88811038Y-92579333D02*
G01*
X88850234Y-92595905D01*
X88851411Y-92596442D01*
X88871765Y-92607097D01*
X88885454Y-92621718D01*
X88893801Y-92647327D01*
X88898126Y-92690946D01*
X88899752Y-92759597D01*
X88900000Y-92860302D01*
X88900500Y-92924187D01*
X88905836Y-93044249D01*
X88918055Y-93132191D01*
X88938448Y-93192625D01*
X88968305Y-93230164D01*
X89008918Y-93249419D01*
X89014552Y-93250761D01*
X89090622Y-93251809D01*
X89149948Y-93217729D01*
X89190923Y-93149402D01*
X89198230Y-93129649D01*
X89214886Y-93085934D01*
X89223321Y-93065845D01*
X89240644Y-93068613D01*
X89278475Y-93083635D01*
X89313760Y-93108444D01*
X89329846Y-93155330D01*
X89325048Y-93188913D01*
X89295569Y-93257033D01*
X89247902Y-93320866D01*
X89192161Y-93365012D01*
X89168807Y-93375218D01*
X89080381Y-93392282D01*
X88986499Y-93385524D01*
X88905833Y-93355560D01*
X88872286Y-93333046D01*
X88838313Y-93300788D01*
X88814081Y-93259754D01*
X88797999Y-93203892D01*
X88788479Y-93127149D01*
X88783932Y-93023475D01*
X88782769Y-92886816D01*
X88782997Y-92816195D01*
X88784140Y-92719692D01*
X88786081Y-92642677D01*
X88788635Y-92591681D01*
X88791619Y-92573231D01*
X88811038Y-92579333D01*
G37*
X88811038Y-92579333D02*
X88850234Y-92595905D01*
X88851411Y-92596442D01*
X88871765Y-92607097D01*
X88885454Y-92621718D01*
X88893801Y-92647327D01*
X88898126Y-92690946D01*
X88899752Y-92759597D01*
X88900000Y-92860302D01*
X88900500Y-92924187D01*
X88905836Y-93044249D01*
X88918055Y-93132191D01*
X88938448Y-93192625D01*
X88968305Y-93230164D01*
X89008918Y-93249419D01*
X89014552Y-93250761D01*
X89090622Y-93251809D01*
X89149948Y-93217729D01*
X89190923Y-93149402D01*
X89198230Y-93129649D01*
X89214886Y-93085934D01*
X89223321Y-93065845D01*
X89240644Y-93068613D01*
X89278475Y-93083635D01*
X89313760Y-93108444D01*
X89329846Y-93155330D01*
X89325048Y-93188913D01*
X89295569Y-93257033D01*
X89247902Y-93320866D01*
X89192161Y-93365012D01*
X89168807Y-93375218D01*
X89080381Y-93392282D01*
X88986499Y-93385524D01*
X88905833Y-93355560D01*
X88872286Y-93333046D01*
X88838313Y-93300788D01*
X88814081Y-93259754D01*
X88797999Y-93203892D01*
X88788479Y-93127149D01*
X88783932Y-93023475D01*
X88782769Y-92886816D01*
X88782997Y-92816195D01*
X88784140Y-92719692D01*
X88786081Y-92642677D01*
X88788635Y-92591681D01*
X88791619Y-92573231D01*
X88811038Y-92579333D01*
G36*
X85058482Y-92573294D02*
G01*
X85082459Y-92580088D01*
X85126161Y-92594680D01*
X85187692Y-92616130D01*
X85187662Y-92892642D01*
X85187616Y-92917258D01*
X85185030Y-93045581D01*
X85177087Y-93142616D01*
X85161845Y-93214943D01*
X85137364Y-93269145D01*
X85101702Y-93311802D01*
X85052918Y-93349495D01*
X85005339Y-93373090D01*
X84929268Y-93391328D01*
X84854444Y-93392364D01*
X84796923Y-93374622D01*
X84792598Y-93372171D01*
X84779262Y-93372434D01*
X84770149Y-93392961D01*
X84763572Y-93440020D01*
X84757846Y-93519880D01*
X84748077Y-93683764D01*
X84621077Y-93630194D01*
X84621077Y-93095545D01*
X84621340Y-92956906D01*
X84622042Y-92832195D01*
X84623117Y-92726443D01*
X84624500Y-92644678D01*
X84626126Y-92591931D01*
X84627930Y-92573231D01*
X84628636Y-92573294D01*
X84652613Y-92580088D01*
X84696315Y-92594680D01*
X84757846Y-92616130D01*
X84757846Y-92891383D01*
X84758237Y-92999534D01*
X84760054Y-93077974D01*
X84764233Y-93131353D01*
X84771714Y-93166744D01*
X84783433Y-93191221D01*
X84800329Y-93211856D01*
X84811848Y-93222830D01*
X84874136Y-93253225D01*
X84942789Y-93250534D01*
X85005702Y-93214594D01*
X85014861Y-93205675D01*
X85029529Y-93187156D01*
X85039567Y-93162674D01*
X85045849Y-93125607D01*
X85049252Y-93069333D01*
X85050651Y-92987229D01*
X85050923Y-92872671D01*
X85051053Y-92814570D01*
X85051901Y-92719007D01*
X85053406Y-92642474D01*
X85055415Y-92591655D01*
X85057777Y-92573231D01*
X85058482Y-92573294D01*
G37*
X85058482Y-92573294D02*
X85082459Y-92580088D01*
X85126161Y-92594680D01*
X85187692Y-92616130D01*
X85187662Y-92892642D01*
X85187616Y-92917258D01*
X85185030Y-93045581D01*
X85177087Y-93142616D01*
X85161845Y-93214943D01*
X85137364Y-93269145D01*
X85101702Y-93311802D01*
X85052918Y-93349495D01*
X85005339Y-93373090D01*
X84929268Y-93391328D01*
X84854444Y-93392364D01*
X84796923Y-93374622D01*
X84792598Y-93372171D01*
X84779262Y-93372434D01*
X84770149Y-93392961D01*
X84763572Y-93440020D01*
X84757846Y-93519880D01*
X84748077Y-93683764D01*
X84621077Y-93630194D01*
X84621077Y-93095545D01*
X84621340Y-92956906D01*
X84622042Y-92832195D01*
X84623117Y-92726443D01*
X84624500Y-92644678D01*
X84626126Y-92591931D01*
X84627930Y-92573231D01*
X84628636Y-92573294D01*
X84652613Y-92580088D01*
X84696315Y-92594680D01*
X84757846Y-92616130D01*
X84757846Y-92891383D01*
X84758237Y-92999534D01*
X84760054Y-93077974D01*
X84764233Y-93131353D01*
X84771714Y-93166744D01*
X84783433Y-93191221D01*
X84800329Y-93211856D01*
X84811848Y-93222830D01*
X84874136Y-93253225D01*
X84942789Y-93250534D01*
X85005702Y-93214594D01*
X85014861Y-93205675D01*
X85029529Y-93187156D01*
X85039567Y-93162674D01*
X85045849Y-93125607D01*
X85049252Y-93069333D01*
X85050651Y-92987229D01*
X85050923Y-92872671D01*
X85051053Y-92814570D01*
X85051901Y-92719007D01*
X85053406Y-92642474D01*
X85055415Y-92591655D01*
X85057777Y-92573231D01*
X85058482Y-92573294D01*
G36*
X82693426Y-92910357D02*
G01*
X82696934Y-92878979D01*
X82723073Y-92767295D01*
X82770306Y-92682358D01*
X82842138Y-92617259D01*
X82846198Y-92614572D01*
X82937513Y-92576366D01*
X83032856Y-92572966D01*
X83124726Y-92602061D01*
X83205621Y-92661340D01*
X83268038Y-92748490D01*
X83269086Y-92750591D01*
X83289827Y-92804711D01*
X83305020Y-92866219D01*
X83313079Y-92923961D01*
X83312418Y-92966785D01*
X83301452Y-92983538D01*
X83291710Y-92982520D01*
X83245123Y-92963991D01*
X83192318Y-92929919D01*
X83147397Y-92890478D01*
X83124465Y-92855845D01*
X83100627Y-92808867D01*
X83051770Y-92766138D01*
X82995037Y-92749077D01*
X82974242Y-92754010D01*
X82933196Y-92778843D01*
X82897443Y-92813315D01*
X82882154Y-92844589D01*
X82882158Y-92844705D01*
X82899505Y-92859067D01*
X82945753Y-92884975D01*
X83013933Y-92918790D01*
X83097077Y-92956871D01*
X83097534Y-92957073D01*
X83187862Y-92997291D01*
X83248408Y-93026267D01*
X83285112Y-93048526D01*
X83303914Y-93068593D01*
X83310754Y-93090991D01*
X83311571Y-93120244D01*
X83304378Y-93190346D01*
X83268816Y-93285588D01*
X83209286Y-93360433D01*
X83132254Y-93412255D01*
X83044185Y-93438427D01*
X82951546Y-93436324D01*
X82860802Y-93403319D01*
X82778421Y-93336785D01*
X82732778Y-93270945D01*
X82699992Y-93176964D01*
X82694661Y-93127532D01*
X82882154Y-93127532D01*
X82892276Y-93181153D01*
X82927369Y-93229881D01*
X82978177Y-93255144D01*
X83034819Y-93252594D01*
X83087416Y-93217880D01*
X83108090Y-93193893D01*
X83113000Y-93175637D01*
X83093089Y-93158223D01*
X83043479Y-93132128D01*
X83042024Y-93131390D01*
X82983494Y-93103517D01*
X82931132Y-93081281D01*
X82897914Y-93071874D01*
X82884590Y-93084448D01*
X82882154Y-93127532D01*
X82694661Y-93127532D01*
X82687213Y-93058464D01*
X82693426Y-92910357D01*
G37*
X82693426Y-92910357D02*
X82696934Y-92878979D01*
X82723073Y-92767295D01*
X82770306Y-92682358D01*
X82842138Y-92617259D01*
X82846198Y-92614572D01*
X82937513Y-92576366D01*
X83032856Y-92572966D01*
X83124726Y-92602061D01*
X83205621Y-92661340D01*
X83268038Y-92748490D01*
X83269086Y-92750591D01*
X83289827Y-92804711D01*
X83305020Y-92866219D01*
X83313079Y-92923961D01*
X83312418Y-92966785D01*
X83301452Y-92983538D01*
X83291710Y-92982520D01*
X83245123Y-92963991D01*
X83192318Y-92929919D01*
X83147397Y-92890478D01*
X83124465Y-92855845D01*
X83100627Y-92808867D01*
X83051770Y-92766138D01*
X82995037Y-92749077D01*
X82974242Y-92754010D01*
X82933196Y-92778843D01*
X82897443Y-92813315D01*
X82882154Y-92844589D01*
X82882158Y-92844705D01*
X82899505Y-92859067D01*
X82945753Y-92884975D01*
X83013933Y-92918790D01*
X83097077Y-92956871D01*
X83097534Y-92957073D01*
X83187862Y-92997291D01*
X83248408Y-93026267D01*
X83285112Y-93048526D01*
X83303914Y-93068593D01*
X83310754Y-93090991D01*
X83311571Y-93120244D01*
X83304378Y-93190346D01*
X83268816Y-93285588D01*
X83209286Y-93360433D01*
X83132254Y-93412255D01*
X83044185Y-93438427D01*
X82951546Y-93436324D01*
X82860802Y-93403319D01*
X82778421Y-93336785D01*
X82732778Y-93270945D01*
X82699992Y-93176964D01*
X82694661Y-93127532D01*
X82882154Y-93127532D01*
X82892276Y-93181153D01*
X82927369Y-93229881D01*
X82978177Y-93255144D01*
X83034819Y-93252594D01*
X83087416Y-93217880D01*
X83108090Y-93193893D01*
X83113000Y-93175637D01*
X83093089Y-93158223D01*
X83043479Y-93132128D01*
X83042024Y-93131390D01*
X82983494Y-93103517D01*
X82931132Y-93081281D01*
X82897914Y-93071874D01*
X82884590Y-93084448D01*
X82882154Y-93127532D01*
X82694661Y-93127532D01*
X82687213Y-93058464D01*
X82693426Y-92910357D01*
G36*
X85746710Y-92573354D02*
G01*
X85772681Y-92583198D01*
X85815695Y-92603972D01*
X85875141Y-92634713D01*
X85868077Y-92911702D01*
X85867586Y-92930072D01*
X85861975Y-93059008D01*
X85852062Y-93156186D01*
X85835825Y-93228075D01*
X85811241Y-93281148D01*
X85776285Y-93321873D01*
X85728936Y-93356721D01*
X85728060Y-93357267D01*
X85651501Y-93385697D01*
X85562956Y-93390500D01*
X85477542Y-93372772D01*
X85410378Y-93333611D01*
X85380831Y-93303098D01*
X85324052Y-93211890D01*
X85304923Y-93112452D01*
X85304923Y-93044040D01*
X85367809Y-93070482D01*
X85411300Y-93097163D01*
X85445574Y-93152554D01*
X85449093Y-93163976D01*
X85486972Y-93222162D01*
X85544064Y-93253593D01*
X85609617Y-93254942D01*
X85672883Y-93222884D01*
X85682328Y-93214617D01*
X85713913Y-93178689D01*
X85719129Y-93147365D01*
X85695235Y-93116609D01*
X85639490Y-93082383D01*
X85549154Y-93040650D01*
X85543044Y-93038007D01*
X85442759Y-92991245D01*
X85374265Y-92949819D01*
X85332101Y-92908458D01*
X85310807Y-92861889D01*
X85304923Y-92804840D01*
X85312634Y-92741592D01*
X85351570Y-92660636D01*
X85420068Y-92602478D01*
X85469612Y-92585017D01*
X85539531Y-92575463D01*
X85607425Y-92577504D01*
X85655907Y-92591918D01*
X85661057Y-92595507D01*
X85674733Y-92620584D01*
X85665243Y-92664782D01*
X85648754Y-92699473D01*
X85622313Y-92713916D01*
X85572166Y-92713197D01*
X85502547Y-92717340D01*
X85457057Y-92745946D01*
X85441692Y-92798896D01*
X85441706Y-92800418D01*
X85451017Y-92831155D01*
X85482689Y-92859357D01*
X85544269Y-92891864D01*
X85628014Y-92931002D01*
X85683482Y-92952294D01*
X85715503Y-92950921D01*
X85730466Y-92922797D01*
X85734758Y-92863830D01*
X85734769Y-92769932D01*
X85735248Y-92711969D01*
X85737444Y-92640388D01*
X85741014Y-92591394D01*
X85745509Y-92573231D01*
X85746710Y-92573354D01*
G37*
X85746710Y-92573354D02*
X85772681Y-92583198D01*
X85815695Y-92603972D01*
X85875141Y-92634713D01*
X85868077Y-92911702D01*
X85867586Y-92930072D01*
X85861975Y-93059008D01*
X85852062Y-93156186D01*
X85835825Y-93228075D01*
X85811241Y-93281148D01*
X85776285Y-93321873D01*
X85728936Y-93356721D01*
X85728060Y-93357267D01*
X85651501Y-93385697D01*
X85562956Y-93390500D01*
X85477542Y-93372772D01*
X85410378Y-93333611D01*
X85380831Y-93303098D01*
X85324052Y-93211890D01*
X85304923Y-93112452D01*
X85304923Y-93044040D01*
X85367809Y-93070482D01*
X85411300Y-93097163D01*
X85445574Y-93152554D01*
X85449093Y-93163976D01*
X85486972Y-93222162D01*
X85544064Y-93253593D01*
X85609617Y-93254942D01*
X85672883Y-93222884D01*
X85682328Y-93214617D01*
X85713913Y-93178689D01*
X85719129Y-93147365D01*
X85695235Y-93116609D01*
X85639490Y-93082383D01*
X85549154Y-93040650D01*
X85543044Y-93038007D01*
X85442759Y-92991245D01*
X85374265Y-92949819D01*
X85332101Y-92908458D01*
X85310807Y-92861889D01*
X85304923Y-92804840D01*
X85312634Y-92741592D01*
X85351570Y-92660636D01*
X85420068Y-92602478D01*
X85469612Y-92585017D01*
X85539531Y-92575463D01*
X85607425Y-92577504D01*
X85655907Y-92591918D01*
X85661057Y-92595507D01*
X85674733Y-92620584D01*
X85665243Y-92664782D01*
X85648754Y-92699473D01*
X85622313Y-92713916D01*
X85572166Y-92713197D01*
X85502547Y-92717340D01*
X85457057Y-92745946D01*
X85441692Y-92798896D01*
X85441706Y-92800418D01*
X85451017Y-92831155D01*
X85482689Y-92859357D01*
X85544269Y-92891864D01*
X85628014Y-92931002D01*
X85683482Y-92952294D01*
X85715503Y-92950921D01*
X85730466Y-92922797D01*
X85734758Y-92863830D01*
X85734769Y-92769932D01*
X85735248Y-92711969D01*
X85737444Y-92640388D01*
X85741014Y-92591394D01*
X85745509Y-92573231D01*
X85746710Y-92573354D01*
G36*
X83497697Y-92573262D02*
G01*
X83544754Y-92591213D01*
X83579985Y-92608489D01*
X83602983Y-92630758D01*
X83616345Y-92664835D01*
X83622672Y-92717537D01*
X83624563Y-92795677D01*
X83624615Y-92906072D01*
X83624883Y-92994065D01*
X83626479Y-93078498D01*
X83630288Y-93136166D01*
X83637180Y-93174012D01*
X83648025Y-93198976D01*
X83663692Y-93218000D01*
X83702208Y-93244847D01*
X83766909Y-93254966D01*
X83830919Y-93229394D01*
X83835144Y-93226120D01*
X83848311Y-93210993D01*
X83858025Y-93186732D01*
X83865097Y-93147350D01*
X83870344Y-93086859D01*
X83874579Y-92999271D01*
X83878615Y-92878598D01*
X83888385Y-92555485D01*
X84054461Y-92629935D01*
X84054461Y-92924938D01*
X84054117Y-93005081D01*
X84051153Y-93116569D01*
X84043649Y-93199579D01*
X84029810Y-93260801D01*
X84007845Y-93306925D01*
X83975961Y-93344642D01*
X83932367Y-93380642D01*
X83869664Y-93416911D01*
X83770883Y-93440588D01*
X83671628Y-93430316D01*
X83580371Y-93387431D01*
X83505584Y-93313271D01*
X83490083Y-93290056D01*
X83477226Y-93263744D01*
X83468107Y-93230580D01*
X83461898Y-93184119D01*
X83457767Y-93117918D01*
X83454884Y-93025532D01*
X83452421Y-92900515D01*
X83446303Y-92553722D01*
X83497697Y-92573262D01*
G37*
X83497697Y-92573262D02*
X83544754Y-92591213D01*
X83579985Y-92608489D01*
X83602983Y-92630758D01*
X83616345Y-92664835D01*
X83622672Y-92717537D01*
X83624563Y-92795677D01*
X83624615Y-92906072D01*
X83624883Y-92994065D01*
X83626479Y-93078498D01*
X83630288Y-93136166D01*
X83637180Y-93174012D01*
X83648025Y-93198976D01*
X83663692Y-93218000D01*
X83702208Y-93244847D01*
X83766909Y-93254966D01*
X83830919Y-93229394D01*
X83835144Y-93226120D01*
X83848311Y-93210993D01*
X83858025Y-93186732D01*
X83865097Y-93147350D01*
X83870344Y-93086859D01*
X83874579Y-92999271D01*
X83878615Y-92878598D01*
X83888385Y-92555485D01*
X84054461Y-92629935D01*
X84054461Y-92924938D01*
X84054117Y-93005081D01*
X84051153Y-93116569D01*
X84043649Y-93199579D01*
X84029810Y-93260801D01*
X84007845Y-93306925D01*
X83975961Y-93344642D01*
X83932367Y-93380642D01*
X83869664Y-93416911D01*
X83770883Y-93440588D01*
X83671628Y-93430316D01*
X83580371Y-93387431D01*
X83505584Y-93313271D01*
X83490083Y-93290056D01*
X83477226Y-93263744D01*
X83468107Y-93230580D01*
X83461898Y-93184119D01*
X83457767Y-93117918D01*
X83454884Y-93025532D01*
X83452421Y-92900515D01*
X83446303Y-92553722D01*
X83497697Y-92573262D01*
G36*
X86011406Y-92578699D02*
G01*
X86054834Y-92595267D01*
X86065060Y-92600112D01*
X86081033Y-92611080D01*
X86092046Y-92629110D01*
X86099250Y-92660604D01*
X86103792Y-92711964D01*
X86106820Y-92789590D01*
X86109484Y-92899885D01*
X86110215Y-92932125D01*
X86113035Y-93033950D01*
X86116696Y-93105212D01*
X86122306Y-93152668D01*
X86130971Y-93183075D01*
X86143798Y-93203190D01*
X86161895Y-93219771D01*
X86215475Y-93248839D01*
X86281388Y-93254436D01*
X86340365Y-93232193D01*
X86382797Y-93186141D01*
X86399077Y-93120308D01*
X86399530Y-93102413D01*
X86408422Y-93070018D01*
X86434675Y-93065075D01*
X86486081Y-93084367D01*
X86497987Y-93090554D01*
X86530165Y-93126942D01*
X86530802Y-93181046D01*
X86500144Y-93255872D01*
X86472022Y-93296650D01*
X86400117Y-93354579D01*
X86311362Y-93387330D01*
X86216458Y-93391788D01*
X86126108Y-93364833D01*
X86119940Y-93361419D01*
X86069553Y-93322308D01*
X86024502Y-93272025D01*
X86016645Y-93260661D01*
X86001624Y-93234140D01*
X85990893Y-93202664D01*
X85983514Y-93159409D01*
X85978548Y-93097551D01*
X85975058Y-93010267D01*
X85972107Y-92890731D01*
X85971689Y-92870522D01*
X85970346Y-92739501D01*
X85972239Y-92646704D01*
X85977395Y-92591493D01*
X85985842Y-92573231D01*
X86011406Y-92578699D01*
G37*
X86011406Y-92578699D02*
X86054834Y-92595267D01*
X86065060Y-92600112D01*
X86081033Y-92611080D01*
X86092046Y-92629110D01*
X86099250Y-92660604D01*
X86103792Y-92711964D01*
X86106820Y-92789590D01*
X86109484Y-92899885D01*
X86110215Y-92932125D01*
X86113035Y-93033950D01*
X86116696Y-93105212D01*
X86122306Y-93152668D01*
X86130971Y-93183075D01*
X86143798Y-93203190D01*
X86161895Y-93219771D01*
X86215475Y-93248839D01*
X86281388Y-93254436D01*
X86340365Y-93232193D01*
X86382797Y-93186141D01*
X86399077Y-93120308D01*
X86399530Y-93102413D01*
X86408422Y-93070018D01*
X86434675Y-93065075D01*
X86486081Y-93084367D01*
X86497987Y-93090554D01*
X86530165Y-93126942D01*
X86530802Y-93181046D01*
X86500144Y-93255872D01*
X86472022Y-93296650D01*
X86400117Y-93354579D01*
X86311362Y-93387330D01*
X86216458Y-93391788D01*
X86126108Y-93364833D01*
X86119940Y-93361419D01*
X86069553Y-93322308D01*
X86024502Y-93272025D01*
X86016645Y-93260661D01*
X86001624Y-93234140D01*
X85990893Y-93202664D01*
X85983514Y-93159409D01*
X85978548Y-93097551D01*
X85975058Y-93010267D01*
X85972107Y-92890731D01*
X85971689Y-92870522D01*
X85970346Y-92739501D01*
X85972239Y-92646704D01*
X85977395Y-92591493D01*
X85985842Y-92573231D01*
X86011406Y-92578699D01*
%LPC*%
D15*
X73025000Y-98044000D03*
D16*
X77470000Y-99060000D03*
X90170000Y-99060000D03*
D15*
X95885000Y-88900000D03*
D17*
X81280000Y-77470000D03*
D18*
X83820000Y-77470000D03*
D15*
X73914000Y-78613000D03*
D19*
X78740000Y-91440000D03*
D20*
X78740000Y-88900000D03*
X78740000Y-86360000D03*
D17*
X87630000Y-88900000D03*
D18*
X85090000Y-88900000D03*
D21*
X91440000Y-88900000D03*
X71440000Y-88900000D03*
M02*
