%TF.GenerationSoftware,KiCad,Pcbnew,6.0.7*%
%TF.CreationDate,2022-09-06T10:13:28+02:00*%
%TF.ProjectId,gluhwurmchen,676c7568-7775-4726-9d63-68656e2e6b69,rev?*%
%TF.SameCoordinates,Original*%
%TF.FileFunction,Copper,L1,Top*%
%TF.FilePolarity,Positive*%
%FSLAX46Y46*%
G04 Gerber Fmt 4.6, Leading zero omitted, Abs format (unit mm)*
G04 Created by KiCad (PCBNEW 6.0.7) date 2022-09-06 10:13:28*
%MOMM*%
%LPD*%
G01*
G04 APERTURE LIST*
%TA.AperFunction,EtchedComponent*%
%ADD10C,0.010000*%
%TD*%
%TA.AperFunction,ComponentPad*%
%ADD11C,2.500000*%
%TD*%
%TA.AperFunction,ComponentPad*%
%ADD12R,1.800000X2.500000*%
%TD*%
%TA.AperFunction,ComponentPad*%
%ADD13O,1.800000X2.500000*%
%TD*%
%TA.AperFunction,ComponentPad*%
%ADD14R,2.500000X1.800000*%
%TD*%
%TA.AperFunction,ComponentPad*%
%ADD15O,2.500000X1.800000*%
%TD*%
%TA.AperFunction,ComponentPad*%
%ADD16C,3.000000*%
%TD*%
%TA.AperFunction,Conductor*%
%ADD17C,0.500000*%
%TD*%
G04 APERTURE END LIST*
G36*
X92104345Y-97594080D02*
G01*
X92069990Y-97565486D01*
X92046728Y-97536258D01*
X92030552Y-97502882D01*
X92026517Y-97491641D01*
X92011316Y-97427141D01*
X92012402Y-97405424D01*
X92149691Y-97405424D01*
X92159758Y-97451273D01*
X92194444Y-97495151D01*
X92253951Y-97537280D01*
X92285353Y-97553991D01*
X92328567Y-97573791D01*
X92358804Y-97582162D01*
X92384611Y-97580676D01*
X92402187Y-97575478D01*
X92448632Y-97547889D01*
X92476338Y-97506962D01*
X92482828Y-97457694D01*
X92475852Y-97427160D01*
X92465528Y-97402099D01*
X92452572Y-97383447D01*
X92431539Y-97366399D01*
X92396980Y-97346154D01*
X92364383Y-97328844D01*
X92317344Y-97304936D01*
X92285516Y-97291713D01*
X92262189Y-97287533D01*
X92240657Y-97290753D01*
X92226851Y-97295186D01*
X92182232Y-97321308D01*
X92156891Y-97362648D01*
X92149691Y-97405424D01*
X92012402Y-97405424D01*
X92014222Y-97369050D01*
X92036247Y-97308674D01*
X92050894Y-97281488D01*
X92100125Y-97215573D01*
X92158203Y-97173145D01*
X92225228Y-97154178D01*
X92301300Y-97158647D01*
X92386521Y-97186525D01*
X92399048Y-97192229D01*
X92483214Y-97239624D01*
X92549811Y-97293601D01*
X92595679Y-97351393D01*
X92607536Y-97375004D01*
X92622707Y-97442160D01*
X92616706Y-97513068D01*
X92591551Y-97581749D01*
X92549262Y-97642226D01*
X92504287Y-97680792D01*
X92451554Y-97705842D01*
X92394282Y-97718132D01*
X92393061Y-97718212D01*
X92361858Y-97718617D01*
X92333318Y-97714110D01*
X92300703Y-97702528D01*
X92257273Y-97681709D01*
X92222357Y-97663426D01*
X92191092Y-97646154D01*
X92153798Y-97625554D01*
X92104345Y-97594080D01*
G37*
D10*
X92104345Y-97594080D02*
X92069990Y-97565486D01*
X92046728Y-97536258D01*
X92030552Y-97502882D01*
X92026517Y-97491641D01*
X92011316Y-97427141D01*
X92012402Y-97405424D01*
X92149691Y-97405424D01*
X92159758Y-97451273D01*
X92194444Y-97495151D01*
X92253951Y-97537280D01*
X92285353Y-97553991D01*
X92328567Y-97573791D01*
X92358804Y-97582162D01*
X92384611Y-97580676D01*
X92402187Y-97575478D01*
X92448632Y-97547889D01*
X92476338Y-97506962D01*
X92482828Y-97457694D01*
X92475852Y-97427160D01*
X92465528Y-97402099D01*
X92452572Y-97383447D01*
X92431539Y-97366399D01*
X92396980Y-97346154D01*
X92364383Y-97328844D01*
X92317344Y-97304936D01*
X92285516Y-97291713D01*
X92262189Y-97287533D01*
X92240657Y-97290753D01*
X92226851Y-97295186D01*
X92182232Y-97321308D01*
X92156891Y-97362648D01*
X92149691Y-97405424D01*
X92012402Y-97405424D01*
X92014222Y-97369050D01*
X92036247Y-97308674D01*
X92050894Y-97281488D01*
X92100125Y-97215573D01*
X92158203Y-97173145D01*
X92225228Y-97154178D01*
X92301300Y-97158647D01*
X92386521Y-97186525D01*
X92399048Y-97192229D01*
X92483214Y-97239624D01*
X92549811Y-97293601D01*
X92595679Y-97351393D01*
X92607536Y-97375004D01*
X92622707Y-97442160D01*
X92616706Y-97513068D01*
X92591551Y-97581749D01*
X92549262Y-97642226D01*
X92504287Y-97680792D01*
X92451554Y-97705842D01*
X92394282Y-97718132D01*
X92393061Y-97718212D01*
X92361858Y-97718617D01*
X92333318Y-97714110D01*
X92300703Y-97702528D01*
X92257273Y-97681709D01*
X92222357Y-97663426D01*
X92191092Y-97646154D01*
X92153798Y-97625554D01*
X92104345Y-97594080D01*
G36*
X91155608Y-91670958D02*
G01*
X91173831Y-91703693D01*
X91199287Y-91752557D01*
X91230266Y-91814229D01*
X91265053Y-91885384D01*
X91284694Y-91926316D01*
X91320601Y-92000987D01*
X91353326Y-92067811D01*
X91381212Y-92123508D01*
X91402607Y-92164797D01*
X91415854Y-92188398D01*
X91419051Y-92192641D01*
X91433442Y-92195515D01*
X91467911Y-92200603D01*
X91517546Y-92207303D01*
X91577434Y-92215016D01*
X91642664Y-92223138D01*
X91708323Y-92231069D01*
X91769500Y-92238208D01*
X91821279Y-92243955D01*
X91858752Y-92247709D01*
X91877005Y-92248867D01*
X91877803Y-92248774D01*
X91886890Y-92239292D01*
X91909920Y-92213363D01*
X91944538Y-92173695D01*
X91988390Y-92122991D01*
X92039119Y-92063959D01*
X92068632Y-92029469D01*
X92122974Y-91966469D01*
X92172709Y-91909941D01*
X92215268Y-91862715D01*
X92248081Y-91827619D01*
X92268579Y-91807483D01*
X92273473Y-91803883D01*
X92290491Y-91807413D01*
X92324967Y-91822239D01*
X92373129Y-91846179D01*
X92431206Y-91877052D01*
X92495423Y-91912675D01*
X92562006Y-91950867D01*
X92627185Y-91989446D01*
X92687185Y-92026231D01*
X92738234Y-92059040D01*
X92776559Y-92085690D01*
X92798388Y-92104000D01*
X92801964Y-92109488D01*
X92799165Y-92128337D01*
X92789058Y-92165864D01*
X92773104Y-92217180D01*
X92752772Y-92277392D01*
X92745397Y-92298252D01*
X92709596Y-92398682D01*
X92681572Y-92478162D01*
X92660489Y-92539371D01*
X92645511Y-92584987D01*
X92635801Y-92617687D01*
X92630524Y-92640150D01*
X92628844Y-92655054D01*
X92629924Y-92665076D01*
X92630372Y-92666650D01*
X92641083Y-92685961D01*
X92664319Y-92719401D01*
X92697039Y-92763216D01*
X92736202Y-92813650D01*
X92778766Y-92866948D01*
X92821690Y-92919353D01*
X92861933Y-92967110D01*
X92896453Y-93006465D01*
X92922210Y-93033662D01*
X92936161Y-93044944D01*
X92936815Y-93045053D01*
X92954097Y-93044094D01*
X92992444Y-93041423D01*
X93047856Y-93037336D01*
X93116328Y-93032131D01*
X93193861Y-93026104D01*
X93215907Y-93024369D01*
X93295460Y-93018724D01*
X93367321Y-93014829D01*
X93427419Y-93012806D01*
X93471687Y-93012780D01*
X93496057Y-93014874D01*
X93498664Y-93015799D01*
X93506695Y-93030498D01*
X93519195Y-93065520D01*
X93535076Y-93116661D01*
X93553247Y-93179717D01*
X93572620Y-93250486D01*
X93592103Y-93324764D01*
X93610608Y-93398348D01*
X93627046Y-93467034D01*
X93640325Y-93526618D01*
X93649357Y-93572898D01*
X93653052Y-93601669D01*
X93652347Y-93608630D01*
X93639063Y-93618113D01*
X93608061Y-93635332D01*
X93564479Y-93657534D01*
X93530128Y-93674142D01*
X93467459Y-93703991D01*
X93393475Y-93739471D01*
X93319451Y-93775168D01*
X93279750Y-93794415D01*
X93145539Y-93859660D01*
X93142245Y-93977571D01*
X93139895Y-94030798D01*
X93136340Y-94075161D01*
X93132178Y-94104162D01*
X93130029Y-94110916D01*
X93116172Y-94112529D01*
X93080566Y-94110936D01*
X93026351Y-94106536D01*
X92956666Y-94099724D01*
X92874652Y-94090898D01*
X92783447Y-94080456D01*
X92686193Y-94068793D01*
X92586029Y-94056308D01*
X92486095Y-94043397D01*
X92389529Y-94030459D01*
X92299474Y-94017889D01*
X92219069Y-94006086D01*
X92151452Y-93995444D01*
X92099764Y-93986363D01*
X92067146Y-93979239D01*
X92056870Y-93975189D01*
X92051264Y-93957028D01*
X92045823Y-93921211D01*
X92041659Y-93875209D01*
X92041420Y-93871412D01*
X92022564Y-93747844D01*
X91982985Y-93634134D01*
X91924863Y-93532329D01*
X91850383Y-93444478D01*
X91761727Y-93372627D01*
X91661077Y-93318826D01*
X91550617Y-93285120D01*
X91432528Y-93273558D01*
X91404843Y-93274231D01*
X91284658Y-93291480D01*
X91173953Y-93329917D01*
X91074608Y-93387084D01*
X90988501Y-93460523D01*
X90917512Y-93547778D01*
X90863519Y-93646390D01*
X90828404Y-93753902D01*
X90814043Y-93867856D01*
X90822317Y-93985794D01*
X90830406Y-94025469D01*
X90864597Y-94134297D01*
X90913091Y-94227212D01*
X90979674Y-94310185D01*
X91053968Y-94377880D01*
X91146921Y-94437669D01*
X91251840Y-94477829D01*
X91364580Y-94498040D01*
X91480994Y-94497981D01*
X91596939Y-94477333D01*
X91708267Y-94435778D01*
X91721194Y-94429333D01*
X91762886Y-94409339D01*
X91796982Y-94395526D01*
X91816425Y-94390737D01*
X91816921Y-94390792D01*
X91828964Y-94401182D01*
X91853773Y-94429135D01*
X91889434Y-94472128D01*
X91934036Y-94527641D01*
X91985666Y-94593153D01*
X92042409Y-94666144D01*
X92102352Y-94744093D01*
X92163585Y-94824479D01*
X92224192Y-94904780D01*
X92282261Y-94982478D01*
X92335878Y-95055050D01*
X92383132Y-95119975D01*
X92422108Y-95174735D01*
X92450895Y-95216808D01*
X92467578Y-95243671D01*
X92470914Y-95252537D01*
X92456794Y-95265589D01*
X92426371Y-95287700D01*
X92384972Y-95315105D01*
X92361541Y-95329790D01*
X92261074Y-95391598D01*
X92271676Y-95540450D01*
X92277221Y-95616512D01*
X92283499Y-95699908D01*
X92289565Y-95778162D01*
X92292707Y-95817419D01*
X92296425Y-95872229D01*
X92298134Y-95917809D01*
X92297690Y-95948258D01*
X92296088Y-95957307D01*
X92282473Y-95963963D01*
X92248102Y-95976245D01*
X92196447Y-95993046D01*
X92130981Y-96013254D01*
X92055178Y-96035761D01*
X92006783Y-96049734D01*
X91920994Y-96073532D01*
X91845222Y-96093158D01*
X91782642Y-96107881D01*
X91736432Y-96116976D01*
X91709769Y-96119714D01*
X91705197Y-96118815D01*
X91694172Y-96104377D01*
X91674471Y-96070694D01*
X91647995Y-96021341D01*
X91616645Y-95959886D01*
X91582323Y-95889904D01*
X91572875Y-95870184D01*
X91538595Y-95798410D01*
X91507659Y-95733914D01*
X91481812Y-95680309D01*
X91462800Y-95641211D01*
X91452365Y-95620233D01*
X91451242Y-95618140D01*
X91436831Y-95611980D01*
X91402236Y-95603474D01*
X91352230Y-95593378D01*
X91291585Y-95582450D01*
X91225077Y-95571443D01*
X91157477Y-95561117D01*
X91093558Y-95552224D01*
X91038093Y-95545522D01*
X90995855Y-95541767D01*
X90971616Y-95541716D01*
X90970314Y-95541955D01*
X90961421Y-95545346D01*
X90950041Y-95553176D01*
X90934275Y-95567508D01*
X90912220Y-95590406D01*
X90881976Y-95623932D01*
X90841643Y-95670149D01*
X90789316Y-95731122D01*
X90723098Y-95808911D01*
X90708785Y-95825768D01*
X90665758Y-95875378D01*
X90627100Y-95917963D01*
X90596310Y-95949811D01*
X90576894Y-95967207D01*
X90573594Y-95969137D01*
X90556327Y-95965489D01*
X90521632Y-95950596D01*
X90473285Y-95926634D01*
X90415061Y-95895780D01*
X90350737Y-95860211D01*
X90284089Y-95822103D01*
X90218892Y-95783633D01*
X90158923Y-95746977D01*
X90107957Y-95714313D01*
X90069770Y-95687815D01*
X90048137Y-95669662D01*
X90044686Y-95664255D01*
X90047946Y-95647127D01*
X90058599Y-95609993D01*
X90075482Y-95556490D01*
X90097429Y-95490261D01*
X90123275Y-95414942D01*
X90137629Y-95374064D01*
X90164944Y-95296550D01*
X90189117Y-95227319D01*
X90208983Y-95169765D01*
X90223374Y-95127279D01*
X90231125Y-95103253D01*
X90232138Y-95099148D01*
X90224099Y-95086578D01*
X90203722Y-95058056D01*
X90173990Y-95017534D01*
X90137881Y-94968967D01*
X90098376Y-94916313D01*
X90058456Y-94863522D01*
X90021102Y-94814551D01*
X89989294Y-94773355D01*
X89966012Y-94743888D01*
X89954238Y-94730104D01*
X89953647Y-94729634D01*
X89938543Y-94728832D01*
X89902063Y-94729971D01*
X89847888Y-94732843D01*
X89779698Y-94737237D01*
X89701174Y-94742947D01*
X89655917Y-94746493D01*
X89573081Y-94752739D01*
X89498336Y-94757612D01*
X89435427Y-94760927D01*
X89388095Y-94762505D01*
X89360086Y-94762163D01*
X89354354Y-94761138D01*
X89347571Y-94747396D01*
X89335766Y-94713413D01*
X89320076Y-94663318D01*
X89301641Y-94601238D01*
X89281597Y-94531300D01*
X89261082Y-94457632D01*
X89241234Y-94384361D01*
X89223191Y-94315612D01*
X89208089Y-94255515D01*
X89197068Y-94208196D01*
X89191265Y-94177782D01*
X89191004Y-94168577D01*
X89203267Y-94160916D01*
X89235054Y-94144009D01*
X89283199Y-94119458D01*
X89344535Y-94088860D01*
X89415896Y-94053819D01*
X89470014Y-94027552D01*
X89744029Y-93895179D01*
X89774024Y-93670283D01*
X89804020Y-93445387D01*
X89571292Y-93245379D01*
X89338565Y-93045370D01*
X89652393Y-92501805D01*
X89941969Y-92603349D01*
X90231544Y-92704893D01*
X90591080Y-92428044D01*
X90568711Y-92124553D01*
X90562686Y-92039699D01*
X90557698Y-91963258D01*
X90553940Y-91898778D01*
X90551609Y-91849804D01*
X90550902Y-91819881D01*
X90551475Y-91812173D01*
X90565224Y-91805631D01*
X90599301Y-91794364D01*
X90649560Y-91779446D01*
X90711861Y-91761954D01*
X90782057Y-91742964D01*
X90856008Y-91723553D01*
X90929569Y-91704794D01*
X90998598Y-91687767D01*
X91058950Y-91673546D01*
X91106483Y-91663207D01*
X91137052Y-91657827D01*
X91146330Y-91657678D01*
X91155608Y-91670958D01*
G37*
X91155608Y-91670958D02*
X91173831Y-91703693D01*
X91199287Y-91752557D01*
X91230266Y-91814229D01*
X91265053Y-91885384D01*
X91284694Y-91926316D01*
X91320601Y-92000987D01*
X91353326Y-92067811D01*
X91381212Y-92123508D01*
X91402607Y-92164797D01*
X91415854Y-92188398D01*
X91419051Y-92192641D01*
X91433442Y-92195515D01*
X91467911Y-92200603D01*
X91517546Y-92207303D01*
X91577434Y-92215016D01*
X91642664Y-92223138D01*
X91708323Y-92231069D01*
X91769500Y-92238208D01*
X91821279Y-92243955D01*
X91858752Y-92247709D01*
X91877005Y-92248867D01*
X91877803Y-92248774D01*
X91886890Y-92239292D01*
X91909920Y-92213363D01*
X91944538Y-92173695D01*
X91988390Y-92122991D01*
X92039119Y-92063959D01*
X92068632Y-92029469D01*
X92122974Y-91966469D01*
X92172709Y-91909941D01*
X92215268Y-91862715D01*
X92248081Y-91827619D01*
X92268579Y-91807483D01*
X92273473Y-91803883D01*
X92290491Y-91807413D01*
X92324967Y-91822239D01*
X92373129Y-91846179D01*
X92431206Y-91877052D01*
X92495423Y-91912675D01*
X92562006Y-91950867D01*
X92627185Y-91989446D01*
X92687185Y-92026231D01*
X92738234Y-92059040D01*
X92776559Y-92085690D01*
X92798388Y-92104000D01*
X92801964Y-92109488D01*
X92799165Y-92128337D01*
X92789058Y-92165864D01*
X92773104Y-92217180D01*
X92752772Y-92277392D01*
X92745397Y-92298252D01*
X92709596Y-92398682D01*
X92681572Y-92478162D01*
X92660489Y-92539371D01*
X92645511Y-92584987D01*
X92635801Y-92617687D01*
X92630524Y-92640150D01*
X92628844Y-92655054D01*
X92629924Y-92665076D01*
X92630372Y-92666650D01*
X92641083Y-92685961D01*
X92664319Y-92719401D01*
X92697039Y-92763216D01*
X92736202Y-92813650D01*
X92778766Y-92866948D01*
X92821690Y-92919353D01*
X92861933Y-92967110D01*
X92896453Y-93006465D01*
X92922210Y-93033662D01*
X92936161Y-93044944D01*
X92936815Y-93045053D01*
X92954097Y-93044094D01*
X92992444Y-93041423D01*
X93047856Y-93037336D01*
X93116328Y-93032131D01*
X93193861Y-93026104D01*
X93215907Y-93024369D01*
X93295460Y-93018724D01*
X93367321Y-93014829D01*
X93427419Y-93012806D01*
X93471687Y-93012780D01*
X93496057Y-93014874D01*
X93498664Y-93015799D01*
X93506695Y-93030498D01*
X93519195Y-93065520D01*
X93535076Y-93116661D01*
X93553247Y-93179717D01*
X93572620Y-93250486D01*
X93592103Y-93324764D01*
X93610608Y-93398348D01*
X93627046Y-93467034D01*
X93640325Y-93526618D01*
X93649357Y-93572898D01*
X93653052Y-93601669D01*
X93652347Y-93608630D01*
X93639063Y-93618113D01*
X93608061Y-93635332D01*
X93564479Y-93657534D01*
X93530128Y-93674142D01*
X93467459Y-93703991D01*
X93393475Y-93739471D01*
X93319451Y-93775168D01*
X93279750Y-93794415D01*
X93145539Y-93859660D01*
X93142245Y-93977571D01*
X93139895Y-94030798D01*
X93136340Y-94075161D01*
X93132178Y-94104162D01*
X93130029Y-94110916D01*
X93116172Y-94112529D01*
X93080566Y-94110936D01*
X93026351Y-94106536D01*
X92956666Y-94099724D01*
X92874652Y-94090898D01*
X92783447Y-94080456D01*
X92686193Y-94068793D01*
X92586029Y-94056308D01*
X92486095Y-94043397D01*
X92389529Y-94030459D01*
X92299474Y-94017889D01*
X92219069Y-94006086D01*
X92151452Y-93995444D01*
X92099764Y-93986363D01*
X92067146Y-93979239D01*
X92056870Y-93975189D01*
X92051264Y-93957028D01*
X92045823Y-93921211D01*
X92041659Y-93875209D01*
X92041420Y-93871412D01*
X92022564Y-93747844D01*
X91982985Y-93634134D01*
X91924863Y-93532329D01*
X91850383Y-93444478D01*
X91761727Y-93372627D01*
X91661077Y-93318826D01*
X91550617Y-93285120D01*
X91432528Y-93273558D01*
X91404843Y-93274231D01*
X91284658Y-93291480D01*
X91173953Y-93329917D01*
X91074608Y-93387084D01*
X90988501Y-93460523D01*
X90917512Y-93547778D01*
X90863519Y-93646390D01*
X90828404Y-93753902D01*
X90814043Y-93867856D01*
X90822317Y-93985794D01*
X90830406Y-94025469D01*
X90864597Y-94134297D01*
X90913091Y-94227212D01*
X90979674Y-94310185D01*
X91053968Y-94377880D01*
X91146921Y-94437669D01*
X91251840Y-94477829D01*
X91364580Y-94498040D01*
X91480994Y-94497981D01*
X91596939Y-94477333D01*
X91708267Y-94435778D01*
X91721194Y-94429333D01*
X91762886Y-94409339D01*
X91796982Y-94395526D01*
X91816425Y-94390737D01*
X91816921Y-94390792D01*
X91828964Y-94401182D01*
X91853773Y-94429135D01*
X91889434Y-94472128D01*
X91934036Y-94527641D01*
X91985666Y-94593153D01*
X92042409Y-94666144D01*
X92102352Y-94744093D01*
X92163585Y-94824479D01*
X92224192Y-94904780D01*
X92282261Y-94982478D01*
X92335878Y-95055050D01*
X92383132Y-95119975D01*
X92422108Y-95174735D01*
X92450895Y-95216808D01*
X92467578Y-95243671D01*
X92470914Y-95252537D01*
X92456794Y-95265589D01*
X92426371Y-95287700D01*
X92384972Y-95315105D01*
X92361541Y-95329790D01*
X92261074Y-95391598D01*
X92271676Y-95540450D01*
X92277221Y-95616512D01*
X92283499Y-95699908D01*
X92289565Y-95778162D01*
X92292707Y-95817419D01*
X92296425Y-95872229D01*
X92298134Y-95917809D01*
X92297690Y-95948258D01*
X92296088Y-95957307D01*
X92282473Y-95963963D01*
X92248102Y-95976245D01*
X92196447Y-95993046D01*
X92130981Y-96013254D01*
X92055178Y-96035761D01*
X92006783Y-96049734D01*
X91920994Y-96073532D01*
X91845222Y-96093158D01*
X91782642Y-96107881D01*
X91736432Y-96116976D01*
X91709769Y-96119714D01*
X91705197Y-96118815D01*
X91694172Y-96104377D01*
X91674471Y-96070694D01*
X91647995Y-96021341D01*
X91616645Y-95959886D01*
X91582323Y-95889904D01*
X91572875Y-95870184D01*
X91538595Y-95798410D01*
X91507659Y-95733914D01*
X91481812Y-95680309D01*
X91462800Y-95641211D01*
X91452365Y-95620233D01*
X91451242Y-95618140D01*
X91436831Y-95611980D01*
X91402236Y-95603474D01*
X91352230Y-95593378D01*
X91291585Y-95582450D01*
X91225077Y-95571443D01*
X91157477Y-95561117D01*
X91093558Y-95552224D01*
X91038093Y-95545522D01*
X90995855Y-95541767D01*
X90971616Y-95541716D01*
X90970314Y-95541955D01*
X90961421Y-95545346D01*
X90950041Y-95553176D01*
X90934275Y-95567508D01*
X90912220Y-95590406D01*
X90881976Y-95623932D01*
X90841643Y-95670149D01*
X90789316Y-95731122D01*
X90723098Y-95808911D01*
X90708785Y-95825768D01*
X90665758Y-95875378D01*
X90627100Y-95917963D01*
X90596310Y-95949811D01*
X90576894Y-95967207D01*
X90573594Y-95969137D01*
X90556327Y-95965489D01*
X90521632Y-95950596D01*
X90473285Y-95926634D01*
X90415061Y-95895780D01*
X90350737Y-95860211D01*
X90284089Y-95822103D01*
X90218892Y-95783633D01*
X90158923Y-95746977D01*
X90107957Y-95714313D01*
X90069770Y-95687815D01*
X90048137Y-95669662D01*
X90044686Y-95664255D01*
X90047946Y-95647127D01*
X90058599Y-95609993D01*
X90075482Y-95556490D01*
X90097429Y-95490261D01*
X90123275Y-95414942D01*
X90137629Y-95374064D01*
X90164944Y-95296550D01*
X90189117Y-95227319D01*
X90208983Y-95169765D01*
X90223374Y-95127279D01*
X90231125Y-95103253D01*
X90232138Y-95099148D01*
X90224099Y-95086578D01*
X90203722Y-95058056D01*
X90173990Y-95017534D01*
X90137881Y-94968967D01*
X90098376Y-94916313D01*
X90058456Y-94863522D01*
X90021102Y-94814551D01*
X89989294Y-94773355D01*
X89966012Y-94743888D01*
X89954238Y-94730104D01*
X89953647Y-94729634D01*
X89938543Y-94728832D01*
X89902063Y-94729971D01*
X89847888Y-94732843D01*
X89779698Y-94737237D01*
X89701174Y-94742947D01*
X89655917Y-94746493D01*
X89573081Y-94752739D01*
X89498336Y-94757612D01*
X89435427Y-94760927D01*
X89388095Y-94762505D01*
X89360086Y-94762163D01*
X89354354Y-94761138D01*
X89347571Y-94747396D01*
X89335766Y-94713413D01*
X89320076Y-94663318D01*
X89301641Y-94601238D01*
X89281597Y-94531300D01*
X89261082Y-94457632D01*
X89241234Y-94384361D01*
X89223191Y-94315612D01*
X89208089Y-94255515D01*
X89197068Y-94208196D01*
X89191265Y-94177782D01*
X89191004Y-94168577D01*
X89203267Y-94160916D01*
X89235054Y-94144009D01*
X89283199Y-94119458D01*
X89344535Y-94088860D01*
X89415896Y-94053819D01*
X89470014Y-94027552D01*
X89744029Y-93895179D01*
X89774024Y-93670283D01*
X89804020Y-93445387D01*
X89571292Y-93245379D01*
X89338565Y-93045370D01*
X89652393Y-92501805D01*
X89941969Y-92603349D01*
X90231544Y-92704893D01*
X90591080Y-92428044D01*
X90568711Y-92124553D01*
X90562686Y-92039699D01*
X90557698Y-91963258D01*
X90553940Y-91898778D01*
X90551609Y-91849804D01*
X90550902Y-91819881D01*
X90551475Y-91812173D01*
X90565224Y-91805631D01*
X90599301Y-91794364D01*
X90649560Y-91779446D01*
X90711861Y-91761954D01*
X90782057Y-91742964D01*
X90856008Y-91723553D01*
X90929569Y-91704794D01*
X90998598Y-91687767D01*
X91058950Y-91673546D01*
X91106483Y-91663207D01*
X91137052Y-91657827D01*
X91146330Y-91657678D01*
X91155608Y-91670958D01*
G36*
X94061415Y-96213348D02*
G01*
X93993838Y-96167231D01*
X93947184Y-96125537D01*
X93918600Y-96084483D01*
X93905238Y-96040288D01*
X93903456Y-96003843D01*
X93905630Y-95993647D01*
X94052133Y-95993647D01*
X94061287Y-96033629D01*
X94064540Y-96039106D01*
X94088997Y-96064493D01*
X94128520Y-96093450D01*
X94176020Y-96122031D01*
X94224410Y-96146295D01*
X94266603Y-96162297D01*
X94293285Y-96166388D01*
X94341588Y-96151469D01*
X94374266Y-96119512D01*
X94388332Y-96075221D01*
X94381985Y-96026769D01*
X94372018Y-96004053D01*
X94355653Y-95984687D01*
X94327510Y-95963793D01*
X94282712Y-95936785D01*
X94236973Y-95912425D01*
X94195222Y-95893730D01*
X94165529Y-95884254D01*
X94162612Y-95883848D01*
X94121117Y-95890815D01*
X94086143Y-95915758D01*
X94061784Y-95952196D01*
X94052133Y-95993647D01*
X93905630Y-95993647D01*
X93912850Y-95959784D01*
X93935372Y-95911244D01*
X93966022Y-95865921D01*
X93999798Y-95831511D01*
X94024612Y-95817353D01*
X94057500Y-95806759D01*
X93803664Y-95660206D01*
X93872822Y-95540420D01*
X94613317Y-95967945D01*
X94578738Y-96027838D01*
X94557647Y-96062013D01*
X94542974Y-96077682D01*
X94530042Y-96078908D01*
X94523553Y-96075834D01*
X94510488Y-96069757D01*
X94504101Y-96075313D01*
X94501246Y-96097955D01*
X94500219Y-96116250D01*
X94485763Y-96180424D01*
X94452608Y-96240114D01*
X94412217Y-96280885D01*
X94355840Y-96308018D01*
X94291070Y-96316118D01*
X94227122Y-96304110D01*
X94223875Y-96302870D01*
X94189842Y-96286922D01*
X94142490Y-96261423D01*
X94107343Y-96240983D01*
X94089522Y-96230619D01*
X94061415Y-96213348D01*
G37*
X94061415Y-96213348D02*
X93993838Y-96167231D01*
X93947184Y-96125537D01*
X93918600Y-96084483D01*
X93905238Y-96040288D01*
X93903456Y-96003843D01*
X93905630Y-95993647D01*
X94052133Y-95993647D01*
X94061287Y-96033629D01*
X94064540Y-96039106D01*
X94088997Y-96064493D01*
X94128520Y-96093450D01*
X94176020Y-96122031D01*
X94224410Y-96146295D01*
X94266603Y-96162297D01*
X94293285Y-96166388D01*
X94341588Y-96151469D01*
X94374266Y-96119512D01*
X94388332Y-96075221D01*
X94381985Y-96026769D01*
X94372018Y-96004053D01*
X94355653Y-95984687D01*
X94327510Y-95963793D01*
X94282712Y-95936785D01*
X94236973Y-95912425D01*
X94195222Y-95893730D01*
X94165529Y-95884254D01*
X94162612Y-95883848D01*
X94121117Y-95890815D01*
X94086143Y-95915758D01*
X94061784Y-95952196D01*
X94052133Y-95993647D01*
X93905630Y-95993647D01*
X93912850Y-95959784D01*
X93935372Y-95911244D01*
X93966022Y-95865921D01*
X93999798Y-95831511D01*
X94024612Y-95817353D01*
X94057500Y-95806759D01*
X93803664Y-95660206D01*
X93872822Y-95540420D01*
X94613317Y-95967945D01*
X94578738Y-96027838D01*
X94557647Y-96062013D01*
X94542974Y-96077682D01*
X94530042Y-96078908D01*
X94523553Y-96075834D01*
X94510488Y-96069757D01*
X94504101Y-96075313D01*
X94501246Y-96097955D01*
X94500219Y-96116250D01*
X94485763Y-96180424D01*
X94452608Y-96240114D01*
X94412217Y-96280885D01*
X94355840Y-96308018D01*
X94291070Y-96316118D01*
X94227122Y-96304110D01*
X94223875Y-96302870D01*
X94189842Y-96286922D01*
X94142490Y-96261423D01*
X94107343Y-96240983D01*
X94089522Y-96230619D01*
X94061415Y-96213348D01*
G36*
X94633206Y-94971566D02*
G01*
X94680258Y-95023038D01*
X94736996Y-95085159D01*
X94796164Y-95149985D01*
X94848906Y-95207811D01*
X94968917Y-95339453D01*
X94943050Y-95391842D01*
X94917184Y-95444231D01*
X94810973Y-95419418D01*
X94745067Y-95403880D01*
X94672517Y-95386563D01*
X94608541Y-95371099D01*
X94605997Y-95370478D01*
X94562003Y-95361117D01*
X94530596Y-95357135D01*
X94516746Y-95359049D01*
X94516969Y-95361215D01*
X94528693Y-95375133D01*
X94554558Y-95403648D01*
X94591285Y-95443216D01*
X94635601Y-95490292D01*
X94660060Y-95516042D01*
X94793414Y-95656007D01*
X94735543Y-95756243D01*
X94436096Y-95690199D01*
X94352077Y-95671705D01*
X94275741Y-95654973D01*
X94210675Y-95640785D01*
X94160469Y-95629920D01*
X94128711Y-95623160D01*
X94119374Y-95621287D01*
X94112578Y-95614579D01*
X94118545Y-95596152D01*
X94138603Y-95562220D01*
X94141953Y-95557030D01*
X94181807Y-95495639D01*
X94358197Y-95542201D01*
X94422595Y-95559063D01*
X94479333Y-95573665D01*
X94523476Y-95584753D01*
X94550087Y-95591078D01*
X94554511Y-95591962D01*
X94553253Y-95584314D01*
X94537249Y-95561118D01*
X94508809Y-95525308D01*
X94470239Y-95479819D01*
X94434814Y-95439736D01*
X94295194Y-95284313D01*
X94323292Y-95243112D01*
X94351392Y-95201910D01*
X94753988Y-95284197D01*
X94704288Y-95231962D01*
X94673408Y-95199967D01*
X94631457Y-95157111D01*
X94585186Y-95110274D01*
X94560301Y-95085267D01*
X94466012Y-94990805D01*
X94537514Y-94866961D01*
X94633206Y-94971566D01*
G37*
X94633206Y-94971566D02*
X94680258Y-95023038D01*
X94736996Y-95085159D01*
X94796164Y-95149985D01*
X94848906Y-95207811D01*
X94968917Y-95339453D01*
X94943050Y-95391842D01*
X94917184Y-95444231D01*
X94810973Y-95419418D01*
X94745067Y-95403880D01*
X94672517Y-95386563D01*
X94608541Y-95371099D01*
X94605997Y-95370478D01*
X94562003Y-95361117D01*
X94530596Y-95357135D01*
X94516746Y-95359049D01*
X94516969Y-95361215D01*
X94528693Y-95375133D01*
X94554558Y-95403648D01*
X94591285Y-95443216D01*
X94635601Y-95490292D01*
X94660060Y-95516042D01*
X94793414Y-95656007D01*
X94735543Y-95756243D01*
X94436096Y-95690199D01*
X94352077Y-95671705D01*
X94275741Y-95654973D01*
X94210675Y-95640785D01*
X94160469Y-95629920D01*
X94128711Y-95623160D01*
X94119374Y-95621287D01*
X94112578Y-95614579D01*
X94118545Y-95596152D01*
X94138603Y-95562220D01*
X94141953Y-95557030D01*
X94181807Y-95495639D01*
X94358197Y-95542201D01*
X94422595Y-95559063D01*
X94479333Y-95573665D01*
X94523476Y-95584753D01*
X94550087Y-95591078D01*
X94554511Y-95591962D01*
X94553253Y-95584314D01*
X94537249Y-95561118D01*
X94508809Y-95525308D01*
X94470239Y-95479819D01*
X94434814Y-95439736D01*
X94295194Y-95284313D01*
X94323292Y-95243112D01*
X94351392Y-95201910D01*
X94753988Y-95284197D01*
X94704288Y-95231962D01*
X94673408Y-95199967D01*
X94631457Y-95157111D01*
X94585186Y-95110274D01*
X94560301Y-95085267D01*
X94466012Y-94990805D01*
X94537514Y-94866961D01*
X94633206Y-94971566D01*
G36*
X95174294Y-94022558D02*
G01*
X95140812Y-93961179D01*
X95131466Y-93895938D01*
X95136848Y-93869980D01*
X95266007Y-93869980D01*
X95268329Y-93919812D01*
X95287384Y-93964435D01*
X95318426Y-93993842D01*
X95328632Y-93986268D01*
X95347738Y-93961104D01*
X95372550Y-93922806D01*
X95388335Y-93896268D01*
X95415768Y-93847980D01*
X95431728Y-93816720D01*
X95437704Y-93797967D01*
X95435182Y-93787194D01*
X95426454Y-93780341D01*
X95391760Y-93772759D01*
X95349229Y-93779543D01*
X95309148Y-93797629D01*
X95282197Y-93823310D01*
X95266007Y-93869980D01*
X95136848Y-93869980D01*
X95145939Y-93826129D01*
X95160544Y-93792217D01*
X95199456Y-93727018D01*
X95243041Y-93682780D01*
X95296139Y-93655313D01*
X95329189Y-93646253D01*
X95398490Y-93640131D01*
X95467157Y-93653336D01*
X95541426Y-93687133D01*
X95547132Y-93690381D01*
X95604338Y-93723328D01*
X95414361Y-94052378D01*
X95448357Y-94062653D01*
X95482790Y-94065647D01*
X95523847Y-94059798D01*
X95531035Y-94057766D01*
X95578456Y-94032019D01*
X95608830Y-93988971D01*
X95622962Y-93927395D01*
X95623755Y-93916032D01*
X95626303Y-93881247D01*
X95629327Y-93858708D01*
X95630467Y-93855130D01*
X95643601Y-93847922D01*
X95672278Y-93836269D01*
X95687475Y-93830724D01*
X95720988Y-93820400D01*
X95738852Y-93820970D01*
X95748476Y-93833289D01*
X95750343Y-93837981D01*
X95754763Y-93865016D01*
X95755525Y-93905856D01*
X95753982Y-93933141D01*
X95738126Y-94003966D01*
X95705868Y-94073889D01*
X95662347Y-94132620D01*
X95647015Y-94147254D01*
X95586326Y-94184903D01*
X95518043Y-94199359D01*
X95441592Y-94190603D01*
X95356406Y-94158616D01*
X95314938Y-94136562D01*
X95258141Y-94098258D01*
X95232230Y-94080783D01*
X95174294Y-94022558D01*
G37*
X95174294Y-94022558D02*
X95140812Y-93961179D01*
X95131466Y-93895938D01*
X95136848Y-93869980D01*
X95266007Y-93869980D01*
X95268329Y-93919812D01*
X95287384Y-93964435D01*
X95318426Y-93993842D01*
X95328632Y-93986268D01*
X95347738Y-93961104D01*
X95372550Y-93922806D01*
X95388335Y-93896268D01*
X95415768Y-93847980D01*
X95431728Y-93816720D01*
X95437704Y-93797967D01*
X95435182Y-93787194D01*
X95426454Y-93780341D01*
X95391760Y-93772759D01*
X95349229Y-93779543D01*
X95309148Y-93797629D01*
X95282197Y-93823310D01*
X95266007Y-93869980D01*
X95136848Y-93869980D01*
X95145939Y-93826129D01*
X95160544Y-93792217D01*
X95199456Y-93727018D01*
X95243041Y-93682780D01*
X95296139Y-93655313D01*
X95329189Y-93646253D01*
X95398490Y-93640131D01*
X95467157Y-93653336D01*
X95541426Y-93687133D01*
X95547132Y-93690381D01*
X95604338Y-93723328D01*
X95414361Y-94052378D01*
X95448357Y-94062653D01*
X95482790Y-94065647D01*
X95523847Y-94059798D01*
X95531035Y-94057766D01*
X95578456Y-94032019D01*
X95608830Y-93988971D01*
X95622962Y-93927395D01*
X95623755Y-93916032D01*
X95626303Y-93881247D01*
X95629327Y-93858708D01*
X95630467Y-93855130D01*
X95643601Y-93847922D01*
X95672278Y-93836269D01*
X95687475Y-93830724D01*
X95720988Y-93820400D01*
X95738852Y-93820970D01*
X95748476Y-93833289D01*
X95750343Y-93837981D01*
X95754763Y-93865016D01*
X95755525Y-93905856D01*
X95753982Y-93933141D01*
X95738126Y-94003966D01*
X95705868Y-94073889D01*
X95662347Y-94132620D01*
X95647015Y-94147254D01*
X95586326Y-94184903D01*
X95518043Y-94199359D01*
X95441592Y-94190603D01*
X95356406Y-94158616D01*
X95314938Y-94136562D01*
X95258141Y-94098258D01*
X95232230Y-94080783D01*
X95174294Y-94022558D01*
G36*
X95115396Y-94063816D02*
G01*
X95129973Y-94101554D01*
X95134656Y-94124170D01*
X95128122Y-94140184D01*
X95109038Y-94158120D01*
X95099450Y-94166175D01*
X95069992Y-94204578D01*
X95059732Y-94249399D01*
X95070060Y-94292617D01*
X95075877Y-94302027D01*
X95095372Y-94319873D01*
X95134356Y-94347468D01*
X95190015Y-94382946D01*
X95259532Y-94424443D01*
X95269496Y-94430216D01*
X95443218Y-94530514D01*
X95374059Y-94650300D01*
X94840467Y-94342231D01*
X94875046Y-94282337D01*
X94895887Y-94248324D01*
X94910287Y-94232649D01*
X94923213Y-94231242D01*
X94932196Y-94235476D01*
X94954765Y-94248506D01*
X94948761Y-94206783D01*
X94952358Y-94164993D01*
X94970263Y-94116400D01*
X94997775Y-94069371D01*
X95030198Y-94032271D01*
X95056177Y-94015494D01*
X95090954Y-94002144D01*
X95115396Y-94063816D01*
G37*
X95115396Y-94063816D02*
X95129973Y-94101554D01*
X95134656Y-94124170D01*
X95128122Y-94140184D01*
X95109038Y-94158120D01*
X95099450Y-94166175D01*
X95069992Y-94204578D01*
X95059732Y-94249399D01*
X95070060Y-94292617D01*
X95075877Y-94302027D01*
X95095372Y-94319873D01*
X95134356Y-94347468D01*
X95190015Y-94382946D01*
X95259532Y-94424443D01*
X95269496Y-94430216D01*
X95443218Y-94530514D01*
X95374059Y-94650300D01*
X94840467Y-94342231D01*
X94875046Y-94282337D01*
X94895887Y-94248324D01*
X94910287Y-94232649D01*
X94923213Y-94231242D01*
X94932196Y-94235476D01*
X94954765Y-94248506D01*
X94948761Y-94206783D01*
X94952358Y-94164993D01*
X94970263Y-94116400D01*
X94997775Y-94069371D01*
X95030198Y-94032271D01*
X95056177Y-94015494D01*
X95090954Y-94002144D01*
X95115396Y-94063816D01*
G36*
X94630941Y-93016141D02*
G01*
X94637822Y-93030536D01*
X94645609Y-93061703D01*
X94649857Y-93085510D01*
X94659776Y-93149683D01*
X94610667Y-93167481D01*
X94576421Y-93183373D01*
X94554874Y-93205707D01*
X94539225Y-93236471D01*
X94523644Y-93290674D01*
X94529267Y-93337423D01*
X94557363Y-93380081D01*
X94609199Y-93422011D01*
X94609234Y-93422033D01*
X94673430Y-93458059D01*
X94727186Y-93472965D01*
X94772962Y-93467218D01*
X94793245Y-93456992D01*
X94831898Y-93421053D01*
X94858850Y-93374390D01*
X94869262Y-93326266D01*
X94868445Y-93312979D01*
X94866101Y-93279488D01*
X94874316Y-93259105D01*
X94898153Y-93245768D01*
X94932863Y-93235850D01*
X94990090Y-93221470D01*
X94999841Y-93279748D01*
X95001353Y-93361966D01*
X94979735Y-93441216D01*
X94936916Y-93512355D01*
X94897651Y-93552641D01*
X94836105Y-93590689D01*
X94763924Y-93607865D01*
X94719384Y-93608885D01*
X94662711Y-93597819D01*
X94598119Y-93571362D01*
X94533164Y-93533943D01*
X94475402Y-93489993D01*
X94432393Y-93443944D01*
X94428489Y-93438348D01*
X94397431Y-93370928D01*
X94388229Y-93298611D01*
X94399386Y-93225826D01*
X94429399Y-93157002D01*
X94476770Y-93096566D01*
X94540001Y-93048948D01*
X94564521Y-93036607D01*
X94599236Y-93022786D01*
X94624207Y-93015945D01*
X94630941Y-93016141D01*
G37*
X94630941Y-93016141D02*
X94637822Y-93030536D01*
X94645609Y-93061703D01*
X94649857Y-93085510D01*
X94659776Y-93149683D01*
X94610667Y-93167481D01*
X94576421Y-93183373D01*
X94554874Y-93205707D01*
X94539225Y-93236471D01*
X94523644Y-93290674D01*
X94529267Y-93337423D01*
X94557363Y-93380081D01*
X94609199Y-93422011D01*
X94609234Y-93422033D01*
X94673430Y-93458059D01*
X94727186Y-93472965D01*
X94772962Y-93467218D01*
X94793245Y-93456992D01*
X94831898Y-93421053D01*
X94858850Y-93374390D01*
X94869262Y-93326266D01*
X94868445Y-93312979D01*
X94866101Y-93279488D01*
X94874316Y-93259105D01*
X94898153Y-93245768D01*
X94932863Y-93235850D01*
X94990090Y-93221470D01*
X94999841Y-93279748D01*
X95001353Y-93361966D01*
X94979735Y-93441216D01*
X94936916Y-93512355D01*
X94897651Y-93552641D01*
X94836105Y-93590689D01*
X94763924Y-93607865D01*
X94719384Y-93608885D01*
X94662711Y-93597819D01*
X94598119Y-93571362D01*
X94533164Y-93533943D01*
X94475402Y-93489993D01*
X94432393Y-93443944D01*
X94428489Y-93438348D01*
X94397431Y-93370928D01*
X94388229Y-93298611D01*
X94399386Y-93225826D01*
X94429399Y-93157002D01*
X94476770Y-93096566D01*
X94540001Y-93048948D01*
X94564521Y-93036607D01*
X94599236Y-93022786D01*
X94624207Y-93015945D01*
X94630941Y-93016141D01*
G36*
X93883668Y-96108800D02*
G01*
X93887273Y-96113531D01*
X93898639Y-96139410D01*
X93909935Y-96175888D01*
X93911512Y-96182216D01*
X93917185Y-96214046D01*
X93912346Y-96235887D01*
X93893360Y-96259378D01*
X93884681Y-96268169D01*
X93859590Y-96296635D01*
X93849433Y-96320970D01*
X93848685Y-96346043D01*
X93852386Y-96371541D01*
X93862312Y-96394478D01*
X93881385Y-96417447D01*
X93912525Y-96443041D01*
X93958655Y-96473854D01*
X94022694Y-96512477D01*
X94061722Y-96535171D01*
X94229802Y-96632212D01*
X94166931Y-96741108D01*
X93633338Y-96433039D01*
X93664774Y-96378591D01*
X93684798Y-96346582D01*
X93699091Y-96333106D01*
X93712857Y-96334049D01*
X93717829Y-96336625D01*
X93731869Y-96343473D01*
X93737736Y-96338204D01*
X93738609Y-96315324D01*
X93738303Y-96301257D01*
X93743742Y-96260574D01*
X93759712Y-96217455D01*
X93782962Y-96175997D01*
X93810236Y-96140303D01*
X93838280Y-96114472D01*
X93863843Y-96102604D01*
X93883668Y-96108800D01*
G37*
X93883668Y-96108800D02*
X93887273Y-96113531D01*
X93898639Y-96139410D01*
X93909935Y-96175888D01*
X93911512Y-96182216D01*
X93917185Y-96214046D01*
X93912346Y-96235887D01*
X93893360Y-96259378D01*
X93884681Y-96268169D01*
X93859590Y-96296635D01*
X93849433Y-96320970D01*
X93848685Y-96346043D01*
X93852386Y-96371541D01*
X93862312Y-96394478D01*
X93881385Y-96417447D01*
X93912525Y-96443041D01*
X93958655Y-96473854D01*
X94022694Y-96512477D01*
X94061722Y-96535171D01*
X94229802Y-96632212D01*
X94166931Y-96741108D01*
X93633338Y-96433039D01*
X93664774Y-96378591D01*
X93684798Y-96346582D01*
X93699091Y-96333106D01*
X93712857Y-96334049D01*
X93717829Y-96336625D01*
X93731869Y-96343473D01*
X93737736Y-96338204D01*
X93738609Y-96315324D01*
X93738303Y-96301257D01*
X93743742Y-96260574D01*
X93759712Y-96217455D01*
X93782962Y-96175997D01*
X93810236Y-96140303D01*
X93838280Y-96114472D01*
X93863843Y-96102604D01*
X93883668Y-96108800D01*
G36*
X93637829Y-94842897D02*
G01*
X93595785Y-94779778D01*
X93578460Y-94712053D01*
X93582617Y-94671372D01*
X93719984Y-94671372D01*
X93723890Y-94715057D01*
X93732487Y-94741792D01*
X93744750Y-94761580D01*
X93766172Y-94780005D01*
X93802240Y-94802650D01*
X93820394Y-94813215D01*
X93885855Y-94845766D01*
X93940542Y-94862248D01*
X93981694Y-94862025D01*
X93997890Y-94854290D01*
X94022981Y-94825000D01*
X94043697Y-94784925D01*
X94054348Y-94746088D01*
X94054599Y-94734435D01*
X94039787Y-94694759D01*
X94005388Y-94654354D01*
X93956486Y-94617375D01*
X93898164Y-94587975D01*
X93860044Y-94575513D01*
X93808816Y-94573346D01*
X93765478Y-94591592D01*
X93734406Y-94625764D01*
X93719984Y-94671372D01*
X93582617Y-94671372D01*
X93585852Y-94639720D01*
X93589986Y-94625658D01*
X93625773Y-94547467D01*
X93675422Y-94488892D01*
X93737219Y-94451131D01*
X93809453Y-94435377D01*
X93859688Y-94437308D01*
X93898737Y-94448230D01*
X93950492Y-94470579D01*
X94007752Y-94500411D01*
X94063320Y-94533781D01*
X94109996Y-94566746D01*
X94133275Y-94587212D01*
X94159020Y-94625778D01*
X94179490Y-94678647D01*
X94191513Y-94735061D01*
X94191913Y-94784261D01*
X94191739Y-94785354D01*
X94174868Y-94836378D01*
X94143919Y-94890523D01*
X94105692Y-94936885D01*
X94087361Y-94952726D01*
X94028948Y-94987057D01*
X93969920Y-95001719D01*
X93905847Y-94996751D01*
X93832300Y-94972192D01*
X93796083Y-94955333D01*
X93753001Y-94929943D01*
X93704594Y-94901414D01*
X93637829Y-94842897D01*
G37*
X93637829Y-94842897D02*
X93595785Y-94779778D01*
X93578460Y-94712053D01*
X93582617Y-94671372D01*
X93719984Y-94671372D01*
X93723890Y-94715057D01*
X93732487Y-94741792D01*
X93744750Y-94761580D01*
X93766172Y-94780005D01*
X93802240Y-94802650D01*
X93820394Y-94813215D01*
X93885855Y-94845766D01*
X93940542Y-94862248D01*
X93981694Y-94862025D01*
X93997890Y-94854290D01*
X94022981Y-94825000D01*
X94043697Y-94784925D01*
X94054348Y-94746088D01*
X94054599Y-94734435D01*
X94039787Y-94694759D01*
X94005388Y-94654354D01*
X93956486Y-94617375D01*
X93898164Y-94587975D01*
X93860044Y-94575513D01*
X93808816Y-94573346D01*
X93765478Y-94591592D01*
X93734406Y-94625764D01*
X93719984Y-94671372D01*
X93582617Y-94671372D01*
X93585852Y-94639720D01*
X93589986Y-94625658D01*
X93625773Y-94547467D01*
X93675422Y-94488892D01*
X93737219Y-94451131D01*
X93809453Y-94435377D01*
X93859688Y-94437308D01*
X93898737Y-94448230D01*
X93950492Y-94470579D01*
X94007752Y-94500411D01*
X94063320Y-94533781D01*
X94109996Y-94566746D01*
X94133275Y-94587212D01*
X94159020Y-94625778D01*
X94179490Y-94678647D01*
X94191513Y-94735061D01*
X94191913Y-94784261D01*
X94191739Y-94785354D01*
X94174868Y-94836378D01*
X94143919Y-94890523D01*
X94105692Y-94936885D01*
X94087361Y-94952726D01*
X94028948Y-94987057D01*
X93969920Y-95001719D01*
X93905847Y-94996751D01*
X93832300Y-94972192D01*
X93796083Y-94955333D01*
X93753001Y-94929943D01*
X93704594Y-94901414D01*
X93637829Y-94842897D01*
G36*
X94352551Y-93417555D02*
G01*
X94365744Y-93443879D01*
X94373976Y-93464450D01*
X94387121Y-93504648D01*
X94387984Y-93529646D01*
X94378192Y-93544877D01*
X94339541Y-93584515D01*
X94320375Y-93618951D01*
X94317777Y-93654399D01*
X94320249Y-93668230D01*
X94330654Y-93713941D01*
X94691052Y-93922017D01*
X94621893Y-94041803D01*
X94099191Y-93740021D01*
X94133770Y-93680127D01*
X94155953Y-93644989D01*
X94171714Y-93629353D01*
X94184670Y-93629661D01*
X94184963Y-93629827D01*
X94196749Y-93633243D01*
X94202035Y-93620979D01*
X94203781Y-93600763D01*
X94208910Y-93559889D01*
X94215989Y-93528382D01*
X94233685Y-93492798D01*
X94262821Y-93455437D01*
X94295891Y-93424588D01*
X94324274Y-93408820D01*
X94340244Y-93407566D01*
X94352551Y-93417555D01*
G37*
X94352551Y-93417555D02*
X94365744Y-93443879D01*
X94373976Y-93464450D01*
X94387121Y-93504648D01*
X94387984Y-93529646D01*
X94378192Y-93544877D01*
X94339541Y-93584515D01*
X94320375Y-93618951D01*
X94317777Y-93654399D01*
X94320249Y-93668230D01*
X94330654Y-93713941D01*
X94691052Y-93922017D01*
X94621893Y-94041803D01*
X94099191Y-93740021D01*
X94133770Y-93680127D01*
X94155953Y-93644989D01*
X94171714Y-93629353D01*
X94184670Y-93629661D01*
X94184963Y-93629827D01*
X94196749Y-93633243D01*
X94202035Y-93620979D01*
X94203781Y-93600763D01*
X94208910Y-93559889D01*
X94215989Y-93528382D01*
X94233685Y-93492798D01*
X94262821Y-93455437D01*
X94295891Y-93424588D01*
X94324274Y-93408820D01*
X94340244Y-93407566D01*
X94352551Y-93417555D01*
G36*
X94669378Y-92963581D02*
G01*
X94644391Y-92896036D01*
X94642201Y-92854500D01*
X94771585Y-92854500D01*
X94780476Y-92900344D01*
X94802179Y-92937305D01*
X94817548Y-92949645D01*
X94827987Y-92942125D01*
X94847417Y-92916561D01*
X94872896Y-92877048D01*
X94888077Y-92851452D01*
X94915634Y-92803283D01*
X94931779Y-92772539D01*
X94937733Y-92754897D01*
X94934718Y-92746038D01*
X94923956Y-92741638D01*
X94919437Y-92740550D01*
X94871922Y-92739093D01*
X94825003Y-92752857D01*
X94796548Y-92772482D01*
X94776583Y-92808851D01*
X94771585Y-92854500D01*
X94642201Y-92854500D01*
X94640742Y-92826817D01*
X94659235Y-92758560D01*
X94700678Y-92693901D01*
X94723551Y-92669928D01*
X94779220Y-92630790D01*
X94843498Y-92606949D01*
X94907186Y-92601538D01*
X94919894Y-92603079D01*
X94950051Y-92612540D01*
X94991978Y-92631182D01*
X95032740Y-92652822D01*
X95108259Y-92696422D01*
X95017095Y-92854322D01*
X94979742Y-92919589D01*
X94954749Y-92966330D01*
X94941787Y-92997735D01*
X94940530Y-93016991D01*
X94950648Y-93027286D01*
X94971814Y-93031809D01*
X94998650Y-93033514D01*
X95050128Y-93024772D01*
X95090621Y-92994702D01*
X95118343Y-92945379D01*
X95131504Y-92878976D01*
X95135894Y-92817557D01*
X95190343Y-92795925D01*
X95244794Y-92774294D01*
X95257770Y-92831712D01*
X95261597Y-92900573D01*
X95245811Y-92973429D01*
X95213147Y-93042740D01*
X95166342Y-93100969D01*
X95157030Y-93109347D01*
X95095239Y-93148598D01*
X95027353Y-93165141D01*
X94951558Y-93159099D01*
X94866039Y-93130601D01*
X94864294Y-93129836D01*
X94780136Y-93083117D01*
X94753672Y-93060282D01*
X94714895Y-93026820D01*
X94669378Y-92963581D01*
G37*
X94669378Y-92963581D02*
X94644391Y-92896036D01*
X94642201Y-92854500D01*
X94771585Y-92854500D01*
X94780476Y-92900344D01*
X94802179Y-92937305D01*
X94817548Y-92949645D01*
X94827987Y-92942125D01*
X94847417Y-92916561D01*
X94872896Y-92877048D01*
X94888077Y-92851452D01*
X94915634Y-92803283D01*
X94931779Y-92772539D01*
X94937733Y-92754897D01*
X94934718Y-92746038D01*
X94923956Y-92741638D01*
X94919437Y-92740550D01*
X94871922Y-92739093D01*
X94825003Y-92752857D01*
X94796548Y-92772482D01*
X94776583Y-92808851D01*
X94771585Y-92854500D01*
X94642201Y-92854500D01*
X94640742Y-92826817D01*
X94659235Y-92758560D01*
X94700678Y-92693901D01*
X94723551Y-92669928D01*
X94779220Y-92630790D01*
X94843498Y-92606949D01*
X94907186Y-92601538D01*
X94919894Y-92603079D01*
X94950051Y-92612540D01*
X94991978Y-92631182D01*
X95032740Y-92652822D01*
X95108259Y-92696422D01*
X95017095Y-92854322D01*
X94979742Y-92919589D01*
X94954749Y-92966330D01*
X94941787Y-92997735D01*
X94940530Y-93016991D01*
X94950648Y-93027286D01*
X94971814Y-93031809D01*
X94998650Y-93033514D01*
X95050128Y-93024772D01*
X95090621Y-92994702D01*
X95118343Y-92945379D01*
X95131504Y-92878976D01*
X95135894Y-92817557D01*
X95190343Y-92795925D01*
X95244794Y-92774294D01*
X95257770Y-92831712D01*
X95261597Y-92900573D01*
X95245811Y-92973429D01*
X95213147Y-93042740D01*
X95166342Y-93100969D01*
X95157030Y-93109347D01*
X95095239Y-93148598D01*
X95027353Y-93165141D01*
X94951558Y-93159099D01*
X94866039Y-93130601D01*
X94864294Y-93129836D01*
X94780136Y-93083117D01*
X94753672Y-93060282D01*
X94714895Y-93026820D01*
X94669378Y-92963581D01*
G36*
X92618402Y-96507644D02*
G01*
X92600409Y-96460038D01*
X92593438Y-96389322D01*
X92722460Y-96389322D01*
X92729491Y-96439753D01*
X92756129Y-96484548D01*
X92757186Y-96485680D01*
X92767023Y-96494774D01*
X92775909Y-96495901D01*
X92786979Y-96485836D01*
X92803366Y-96461356D01*
X92828205Y-96419238D01*
X92837626Y-96402938D01*
X92865676Y-96352990D01*
X92881692Y-96320291D01*
X92887199Y-96300911D01*
X92883720Y-96290919D01*
X92881615Y-96289421D01*
X92859968Y-96286035D01*
X92825296Y-96288821D01*
X92812368Y-96291161D01*
X92772053Y-96304279D01*
X92745970Y-96327158D01*
X92736312Y-96342022D01*
X92722460Y-96389322D01*
X92593438Y-96389322D01*
X92593217Y-96387077D01*
X92608477Y-96315002D01*
X92643944Y-96249446D01*
X92697372Y-96196043D01*
X92708747Y-96188141D01*
X92757944Y-96166466D01*
X92818600Y-96154133D01*
X92878122Y-96153139D01*
X92902802Y-96157331D01*
X92943083Y-96171412D01*
X92989330Y-96192641D01*
X93007737Y-96202605D01*
X93064942Y-96235551D01*
X92874965Y-96564601D01*
X92908962Y-96574876D01*
X92954319Y-96578109D01*
X93002306Y-96565680D01*
X93042699Y-96541255D01*
X93059968Y-96520800D01*
X93072866Y-96486986D01*
X93081720Y-96442868D01*
X93083228Y-96427016D01*
X93086842Y-96367258D01*
X93139888Y-96345106D01*
X93173496Y-96334054D01*
X93197367Y-96331631D01*
X93202669Y-96333872D01*
X93208390Y-96351651D01*
X93212872Y-96385967D01*
X93214617Y-96415770D01*
X93206520Y-96488804D01*
X93180362Y-96560820D01*
X93139966Y-96623843D01*
X93094445Y-96666390D01*
X93030052Y-96700164D01*
X92963887Y-96712386D01*
X92892873Y-96702931D01*
X92813932Y-96671668D01*
X92780097Y-96653402D01*
X92706021Y-96605555D01*
X92704073Y-96603806D01*
X92653277Y-96558209D01*
X92618402Y-96507644D01*
G37*
X92618402Y-96507644D02*
X92600409Y-96460038D01*
X92593438Y-96389322D01*
X92722460Y-96389322D01*
X92729491Y-96439753D01*
X92756129Y-96484548D01*
X92757186Y-96485680D01*
X92767023Y-96494774D01*
X92775909Y-96495901D01*
X92786979Y-96485836D01*
X92803366Y-96461356D01*
X92828205Y-96419238D01*
X92837626Y-96402938D01*
X92865676Y-96352990D01*
X92881692Y-96320291D01*
X92887199Y-96300911D01*
X92883720Y-96290919D01*
X92881615Y-96289421D01*
X92859968Y-96286035D01*
X92825296Y-96288821D01*
X92812368Y-96291161D01*
X92772053Y-96304279D01*
X92745970Y-96327158D01*
X92736312Y-96342022D01*
X92722460Y-96389322D01*
X92593438Y-96389322D01*
X92593217Y-96387077D01*
X92608477Y-96315002D01*
X92643944Y-96249446D01*
X92697372Y-96196043D01*
X92708747Y-96188141D01*
X92757944Y-96166466D01*
X92818600Y-96154133D01*
X92878122Y-96153139D01*
X92902802Y-96157331D01*
X92943083Y-96171412D01*
X92989330Y-96192641D01*
X93007737Y-96202605D01*
X93064942Y-96235551D01*
X92874965Y-96564601D01*
X92908962Y-96574876D01*
X92954319Y-96578109D01*
X93002306Y-96565680D01*
X93042699Y-96541255D01*
X93059968Y-96520800D01*
X93072866Y-96486986D01*
X93081720Y-96442868D01*
X93083228Y-96427016D01*
X93086842Y-96367258D01*
X93139888Y-96345106D01*
X93173496Y-96334054D01*
X93197367Y-96331631D01*
X93202669Y-96333872D01*
X93208390Y-96351651D01*
X93212872Y-96385967D01*
X93214617Y-96415770D01*
X93206520Y-96488804D01*
X93180362Y-96560820D01*
X93139966Y-96623843D01*
X93094445Y-96666390D01*
X93030052Y-96700164D01*
X92963887Y-96712386D01*
X92892873Y-96702931D01*
X92813932Y-96671668D01*
X92780097Y-96653402D01*
X92706021Y-96605555D01*
X92704073Y-96603806D01*
X92653277Y-96558209D01*
X92618402Y-96507644D01*
G36*
X93126957Y-95630925D02*
G01*
X93169187Y-95642034D01*
X93221367Y-95663945D01*
X93287076Y-95697628D01*
X93369895Y-95744059D01*
X93378513Y-95749013D01*
X93571943Y-95860371D01*
X93502784Y-95980157D01*
X93324590Y-95877276D01*
X93258525Y-95839247D01*
X93210336Y-95812212D01*
X93176127Y-95794588D01*
X93151997Y-95784792D01*
X93134046Y-95781240D01*
X93118377Y-95782349D01*
X93101112Y-95786530D01*
X93055747Y-95809837D01*
X93027908Y-95847799D01*
X93020749Y-95895143D01*
X93024258Y-95915072D01*
X93029155Y-95931042D01*
X93036409Y-95944665D01*
X93049316Y-95958460D01*
X93071174Y-95974943D01*
X93105282Y-95996634D01*
X93154936Y-96026048D01*
X93215729Y-96061257D01*
X93395903Y-96165280D01*
X93326745Y-96285066D01*
X92804042Y-95983284D01*
X92838622Y-95923390D01*
X92860805Y-95888252D01*
X92876566Y-95872616D01*
X92889521Y-95872924D01*
X92889815Y-95873090D01*
X92900903Y-95876164D01*
X92906164Y-95864524D01*
X92908200Y-95836517D01*
X92921264Y-95777870D01*
X92952313Y-95720085D01*
X92995587Y-95672295D01*
X93024180Y-95652666D01*
X93058032Y-95637214D01*
X93091098Y-95629642D01*
X93126957Y-95630925D01*
G37*
X93126957Y-95630925D02*
X93169187Y-95642034D01*
X93221367Y-95663945D01*
X93287076Y-95697628D01*
X93369895Y-95744059D01*
X93378513Y-95749013D01*
X93571943Y-95860371D01*
X93502784Y-95980157D01*
X93324590Y-95877276D01*
X93258525Y-95839247D01*
X93210336Y-95812212D01*
X93176127Y-95794588D01*
X93151997Y-95784792D01*
X93134046Y-95781240D01*
X93118377Y-95782349D01*
X93101112Y-95786530D01*
X93055747Y-95809837D01*
X93027908Y-95847799D01*
X93020749Y-95895143D01*
X93024258Y-95915072D01*
X93029155Y-95931042D01*
X93036409Y-95944665D01*
X93049316Y-95958460D01*
X93071174Y-95974943D01*
X93105282Y-95996634D01*
X93154936Y-96026048D01*
X93215729Y-96061257D01*
X93395903Y-96165280D01*
X93326745Y-96285066D01*
X92804042Y-95983284D01*
X92838622Y-95923390D01*
X92860805Y-95888252D01*
X92876566Y-95872616D01*
X92889521Y-95872924D01*
X92889815Y-95873090D01*
X92900903Y-95876164D01*
X92906164Y-95864524D01*
X92908200Y-95836517D01*
X92921264Y-95777870D01*
X92952313Y-95720085D01*
X92995587Y-95672295D01*
X93024180Y-95652666D01*
X93058032Y-95637214D01*
X93091098Y-95629642D01*
X93126957Y-95630925D01*
G36*
X94837522Y-95014453D02*
G01*
X94819519Y-94968308D01*
X94814418Y-94943710D01*
X94814083Y-94922320D01*
X94819360Y-94901671D01*
X94941405Y-94901671D01*
X94942940Y-94939024D01*
X94947130Y-94949606D01*
X94970586Y-94977141D01*
X94999941Y-94981497D01*
X95033236Y-94963387D01*
X95068512Y-94923518D01*
X95083670Y-94900080D01*
X95103776Y-94858041D01*
X95107073Y-94824284D01*
X95105067Y-94814426D01*
X95083867Y-94778616D01*
X95057748Y-94758068D01*
X95019635Y-94736063D01*
X94988985Y-94789150D01*
X94956502Y-94852676D01*
X94941405Y-94901671D01*
X94819360Y-94901671D01*
X94820225Y-94898285D01*
X94834556Y-94865754D01*
X94858788Y-94818878D01*
X94868631Y-94800418D01*
X94930535Y-94684621D01*
X94896039Y-94664927D01*
X94857339Y-94648452D01*
X94826286Y-94651742D01*
X94793758Y-94675828D01*
X94793010Y-94676546D01*
X94761201Y-94718957D01*
X94742624Y-94767702D01*
X94740930Y-94810922D01*
X94741864Y-94829195D01*
X94732402Y-94842833D01*
X94707195Y-94857673D01*
X94690914Y-94865532D01*
X94657478Y-94879988D01*
X94634316Y-94887528D01*
X94628825Y-94887714D01*
X94613909Y-94865285D01*
X94606628Y-94820256D01*
X94605885Y-94802094D01*
X94613456Y-94755487D01*
X94634989Y-94699218D01*
X94666187Y-94640917D01*
X94702758Y-94588218D01*
X94740406Y-94548755D01*
X94753972Y-94538898D01*
X94784292Y-94522111D01*
X94813111Y-94512433D01*
X94843946Y-94510763D01*
X94880310Y-94518000D01*
X94925719Y-94535044D01*
X94983687Y-94562793D01*
X95057726Y-94602149D01*
X95106759Y-94629169D01*
X95318437Y-94746641D01*
X95283377Y-94807367D01*
X95260562Y-94843315D01*
X95244324Y-94859247D01*
X95232628Y-94859035D01*
X95221546Y-94856090D01*
X95216694Y-94868728D01*
X95215271Y-94888942D01*
X95204248Y-94935243D01*
X95178115Y-94987840D01*
X95142095Y-95038235D01*
X95101416Y-95077929D01*
X95097113Y-95081112D01*
X95041685Y-95106854D01*
X94982909Y-95110986D01*
X94925886Y-95095580D01*
X94908705Y-95084322D01*
X94875723Y-95062711D01*
X94837522Y-95014453D01*
G37*
X94837522Y-95014453D02*
X94819519Y-94968308D01*
X94814418Y-94943710D01*
X94814083Y-94922320D01*
X94819360Y-94901671D01*
X94941405Y-94901671D01*
X94942940Y-94939024D01*
X94947130Y-94949606D01*
X94970586Y-94977141D01*
X94999941Y-94981497D01*
X95033236Y-94963387D01*
X95068512Y-94923518D01*
X95083670Y-94900080D01*
X95103776Y-94858041D01*
X95107073Y-94824284D01*
X95105067Y-94814426D01*
X95083867Y-94778616D01*
X95057748Y-94758068D01*
X95019635Y-94736063D01*
X94988985Y-94789150D01*
X94956502Y-94852676D01*
X94941405Y-94901671D01*
X94819360Y-94901671D01*
X94820225Y-94898285D01*
X94834556Y-94865754D01*
X94858788Y-94818878D01*
X94868631Y-94800418D01*
X94930535Y-94684621D01*
X94896039Y-94664927D01*
X94857339Y-94648452D01*
X94826286Y-94651742D01*
X94793758Y-94675828D01*
X94793010Y-94676546D01*
X94761201Y-94718957D01*
X94742624Y-94767702D01*
X94740930Y-94810922D01*
X94741864Y-94829195D01*
X94732402Y-94842833D01*
X94707195Y-94857673D01*
X94690914Y-94865532D01*
X94657478Y-94879988D01*
X94634316Y-94887528D01*
X94628825Y-94887714D01*
X94613909Y-94865285D01*
X94606628Y-94820256D01*
X94605885Y-94802094D01*
X94613456Y-94755487D01*
X94634989Y-94699218D01*
X94666187Y-94640917D01*
X94702758Y-94588218D01*
X94740406Y-94548755D01*
X94753972Y-94538898D01*
X94784292Y-94522111D01*
X94813111Y-94512433D01*
X94843946Y-94510763D01*
X94880310Y-94518000D01*
X94925719Y-94535044D01*
X94983687Y-94562793D01*
X95057726Y-94602149D01*
X95106759Y-94629169D01*
X95318437Y-94746641D01*
X95283377Y-94807367D01*
X95260562Y-94843315D01*
X95244324Y-94859247D01*
X95232628Y-94859035D01*
X95221546Y-94856090D01*
X95216694Y-94868728D01*
X95215271Y-94888942D01*
X95204248Y-94935243D01*
X95178115Y-94987840D01*
X95142095Y-95038235D01*
X95101416Y-95077929D01*
X95097113Y-95081112D01*
X95041685Y-95106854D01*
X94982909Y-95110986D01*
X94925886Y-95095580D01*
X94908705Y-95084322D01*
X94875723Y-95062711D01*
X94837522Y-95014453D01*
G36*
X93618964Y-97102260D02*
G01*
X93604300Y-97043262D01*
X93604000Y-97036104D01*
X93606095Y-97008370D01*
X93730234Y-97008370D01*
X93734108Y-97046593D01*
X93751770Y-97067676D01*
X93785313Y-97074767D01*
X93809857Y-97068943D01*
X93839252Y-97045779D01*
X93866987Y-97008815D01*
X93888019Y-96966935D01*
X93897301Y-96929023D01*
X93896484Y-96916429D01*
X93877629Y-96884357D01*
X93848089Y-96861935D01*
X93806219Y-96837761D01*
X93771438Y-96898004D01*
X93742801Y-96957779D01*
X93730234Y-97008370D01*
X93606095Y-97008370D01*
X93606172Y-97007345D01*
X93615703Y-96975698D01*
X93635004Y-96934909D01*
X93660987Y-96888216D01*
X93719102Y-96787464D01*
X93676876Y-96763085D01*
X93641648Y-96748442D01*
X93613403Y-96746673D01*
X93611498Y-96747275D01*
X93587888Y-96765995D01*
X93563021Y-96800473D01*
X93541481Y-96842005D01*
X93527854Y-96881889D01*
X93526158Y-96909245D01*
X93527980Y-96925650D01*
X93522577Y-96938743D01*
X93505949Y-96951518D01*
X93474096Y-96966966D01*
X93423018Y-96988084D01*
X93418276Y-96989990D01*
X93409197Y-96982368D01*
X93400982Y-96957769D01*
X93395366Y-96924349D01*
X93394087Y-96890261D01*
X93394911Y-96880259D01*
X93404053Y-96847319D01*
X93423019Y-96802266D01*
X93447993Y-96754117D01*
X93449255Y-96751920D01*
X93492433Y-96686839D01*
X93535680Y-96643501D01*
X93582972Y-96618806D01*
X93631311Y-96610022D01*
X93650101Y-96609462D01*
X93668255Y-96611522D01*
X93689362Y-96617821D01*
X93717011Y-96629979D01*
X93754791Y-96649618D01*
X93806289Y-96678357D01*
X93875095Y-96717817D01*
X93893322Y-96728336D01*
X94104059Y-96850005D01*
X94073881Y-96902275D01*
X94052297Y-96934267D01*
X94032148Y-96955504D01*
X94024935Y-96959574D01*
X94008890Y-96972824D01*
X94005229Y-96993705D01*
X93996697Y-97026638D01*
X93976048Y-97069709D01*
X93948282Y-97114630D01*
X93918397Y-97153116D01*
X93896930Y-97173264D01*
X93839343Y-97202988D01*
X93780227Y-97208212D01*
X93716624Y-97189182D01*
X93715116Y-97188476D01*
X93690970Y-97172983D01*
X93655651Y-97150320D01*
X93618964Y-97102260D01*
G37*
X93618964Y-97102260D02*
X93604300Y-97043262D01*
X93604000Y-97036104D01*
X93606095Y-97008370D01*
X93730234Y-97008370D01*
X93734108Y-97046593D01*
X93751770Y-97067676D01*
X93785313Y-97074767D01*
X93809857Y-97068943D01*
X93839252Y-97045779D01*
X93866987Y-97008815D01*
X93888019Y-96966935D01*
X93897301Y-96929023D01*
X93896484Y-96916429D01*
X93877629Y-96884357D01*
X93848089Y-96861935D01*
X93806219Y-96837761D01*
X93771438Y-96898004D01*
X93742801Y-96957779D01*
X93730234Y-97008370D01*
X93606095Y-97008370D01*
X93606172Y-97007345D01*
X93615703Y-96975698D01*
X93635004Y-96934909D01*
X93660987Y-96888216D01*
X93719102Y-96787464D01*
X93676876Y-96763085D01*
X93641648Y-96748442D01*
X93613403Y-96746673D01*
X93611498Y-96747275D01*
X93587888Y-96765995D01*
X93563021Y-96800473D01*
X93541481Y-96842005D01*
X93527854Y-96881889D01*
X93526158Y-96909245D01*
X93527980Y-96925650D01*
X93522577Y-96938743D01*
X93505949Y-96951518D01*
X93474096Y-96966966D01*
X93423018Y-96988084D01*
X93418276Y-96989990D01*
X93409197Y-96982368D01*
X93400982Y-96957769D01*
X93395366Y-96924349D01*
X93394087Y-96890261D01*
X93394911Y-96880259D01*
X93404053Y-96847319D01*
X93423019Y-96802266D01*
X93447993Y-96754117D01*
X93449255Y-96751920D01*
X93492433Y-96686839D01*
X93535680Y-96643501D01*
X93582972Y-96618806D01*
X93631311Y-96610022D01*
X93650101Y-96609462D01*
X93668255Y-96611522D01*
X93689362Y-96617821D01*
X93717011Y-96629979D01*
X93754791Y-96649618D01*
X93806289Y-96678357D01*
X93875095Y-96717817D01*
X93893322Y-96728336D01*
X94104059Y-96850005D01*
X94073881Y-96902275D01*
X94052297Y-96934267D01*
X94032148Y-96955504D01*
X94024935Y-96959574D01*
X94008890Y-96972824D01*
X94005229Y-96993705D01*
X93996697Y-97026638D01*
X93976048Y-97069709D01*
X93948282Y-97114630D01*
X93918397Y-97153116D01*
X93896930Y-97173264D01*
X93839343Y-97202988D01*
X93780227Y-97208212D01*
X93716624Y-97189182D01*
X93715116Y-97188476D01*
X93690970Y-97172983D01*
X93655651Y-97150320D01*
X93618964Y-97102260D01*
G36*
X94565309Y-94139810D02*
G01*
X94530730Y-94199702D01*
X94508421Y-94234964D01*
X94492548Y-94250590D01*
X94479795Y-94250153D01*
X94469301Y-94248265D01*
X94463950Y-94261777D01*
X94461756Y-94293971D01*
X94447514Y-94362440D01*
X94410948Y-94422670D01*
X94356604Y-94469234D01*
X94324263Y-94487679D01*
X94294390Y-94498743D01*
X94263395Y-94501530D01*
X94227688Y-94495146D01*
X94183681Y-94478694D01*
X94127785Y-94451281D01*
X94056412Y-94412009D01*
X94001760Y-94380705D01*
X93797409Y-94262723D01*
X93860280Y-94153826D01*
X94029786Y-94251690D01*
X94110245Y-94296772D01*
X94173079Y-94328035D01*
X94221378Y-94345920D01*
X94258235Y-94350864D01*
X94286739Y-94343308D01*
X94309982Y-94323692D01*
X94329977Y-94294331D01*
X94345970Y-94260723D01*
X94350714Y-94230920D01*
X94342282Y-94202467D01*
X94318749Y-94172904D01*
X94278191Y-94139775D01*
X94218679Y-94100621D01*
X94142954Y-94055677D01*
X93973448Y-93957813D01*
X94042607Y-93838027D01*
X94565309Y-94139810D01*
G37*
X94565309Y-94139810D02*
X94530730Y-94199702D01*
X94508421Y-94234964D01*
X94492548Y-94250590D01*
X94479795Y-94250153D01*
X94469301Y-94248265D01*
X94463950Y-94261777D01*
X94461756Y-94293971D01*
X94447514Y-94362440D01*
X94410948Y-94422670D01*
X94356604Y-94469234D01*
X94324263Y-94487679D01*
X94294390Y-94498743D01*
X94263395Y-94501530D01*
X94227688Y-94495146D01*
X94183681Y-94478694D01*
X94127785Y-94451281D01*
X94056412Y-94412009D01*
X94001760Y-94380705D01*
X93797409Y-94262723D01*
X93860280Y-94153826D01*
X94029786Y-94251690D01*
X94110245Y-94296772D01*
X94173079Y-94328035D01*
X94221378Y-94345920D01*
X94258235Y-94350864D01*
X94286739Y-94343308D01*
X94309982Y-94323692D01*
X94329977Y-94294331D01*
X94345970Y-94260723D01*
X94350714Y-94230920D01*
X94342282Y-94202467D01*
X94318749Y-94172904D01*
X94278191Y-94139775D01*
X94218679Y-94100621D01*
X94142954Y-94055677D01*
X93973448Y-93957813D01*
X94042607Y-93838027D01*
X94565309Y-94139810D01*
G36*
X93537675Y-94906630D02*
G01*
X93552414Y-94937537D01*
X93557232Y-94950261D01*
X93575399Y-95001721D01*
X93529154Y-95027841D01*
X93491816Y-95056553D01*
X93458342Y-95095309D01*
X93433698Y-95136781D01*
X93422846Y-95173638D01*
X93423246Y-95184217D01*
X93437094Y-95211920D01*
X93461838Y-95228602D01*
X93488364Y-95229170D01*
X93496048Y-95224883D01*
X93512217Y-95208079D01*
X93537813Y-95176912D01*
X93567787Y-95137578D01*
X93573166Y-95130235D01*
X93624359Y-95068822D01*
X93672975Y-95030912D01*
X93722065Y-95015497D01*
X93774680Y-95021570D01*
X93829369Y-95045574D01*
X93883279Y-95087158D01*
X93914464Y-95139126D01*
X93922945Y-95201626D01*
X93908749Y-95274811D01*
X93877933Y-95347357D01*
X93845934Y-95402551D01*
X93812518Y-95443014D01*
X93784437Y-95467612D01*
X93743970Y-95495813D01*
X93702286Y-95519401D01*
X93685687Y-95526755D01*
X93640159Y-95544027D01*
X93623039Y-95481610D01*
X93605918Y-95419192D01*
X93661425Y-95391512D01*
X93709629Y-95359437D01*
X93748974Y-95318183D01*
X93776830Y-95272774D01*
X93790567Y-95228230D01*
X93787554Y-95189578D01*
X93776685Y-95171385D01*
X93750204Y-95157884D01*
X93717721Y-95168747D01*
X93679306Y-95203934D01*
X93645818Y-95247448D01*
X93591964Y-95313082D01*
X93538265Y-95353937D01*
X93483643Y-95370351D01*
X93427021Y-95362664D01*
X93371227Y-95333915D01*
X93321925Y-95288340D01*
X93295950Y-95234335D01*
X93293259Y-95171523D01*
X93313807Y-95099531D01*
X93337618Y-95051153D01*
X93368733Y-95000887D01*
X93400362Y-94964164D01*
X93441419Y-94930827D01*
X93446143Y-94927459D01*
X93481933Y-94904866D01*
X93510758Y-94891551D01*
X93525106Y-94890152D01*
X93537675Y-94906630D01*
G37*
X93537675Y-94906630D02*
X93552414Y-94937537D01*
X93557232Y-94950261D01*
X93575399Y-95001721D01*
X93529154Y-95027841D01*
X93491816Y-95056553D01*
X93458342Y-95095309D01*
X93433698Y-95136781D01*
X93422846Y-95173638D01*
X93423246Y-95184217D01*
X93437094Y-95211920D01*
X93461838Y-95228602D01*
X93488364Y-95229170D01*
X93496048Y-95224883D01*
X93512217Y-95208079D01*
X93537813Y-95176912D01*
X93567787Y-95137578D01*
X93573166Y-95130235D01*
X93624359Y-95068822D01*
X93672975Y-95030912D01*
X93722065Y-95015497D01*
X93774680Y-95021570D01*
X93829369Y-95045574D01*
X93883279Y-95087158D01*
X93914464Y-95139126D01*
X93922945Y-95201626D01*
X93908749Y-95274811D01*
X93877933Y-95347357D01*
X93845934Y-95402551D01*
X93812518Y-95443014D01*
X93784437Y-95467612D01*
X93743970Y-95495813D01*
X93702286Y-95519401D01*
X93685687Y-95526755D01*
X93640159Y-95544027D01*
X93623039Y-95481610D01*
X93605918Y-95419192D01*
X93661425Y-95391512D01*
X93709629Y-95359437D01*
X93748974Y-95318183D01*
X93776830Y-95272774D01*
X93790567Y-95228230D01*
X93787554Y-95189578D01*
X93776685Y-95171385D01*
X93750204Y-95157884D01*
X93717721Y-95168747D01*
X93679306Y-95203934D01*
X93645818Y-95247448D01*
X93591964Y-95313082D01*
X93538265Y-95353937D01*
X93483643Y-95370351D01*
X93427021Y-95362664D01*
X93371227Y-95333915D01*
X93321925Y-95288340D01*
X93295950Y-95234335D01*
X93293259Y-95171523D01*
X93313807Y-95099531D01*
X93337618Y-95051153D01*
X93368733Y-95000887D01*
X93400362Y-94964164D01*
X93441419Y-94930827D01*
X93446143Y-94927459D01*
X93481933Y-94904866D01*
X93510758Y-94891551D01*
X93525106Y-94890152D01*
X93537675Y-94906630D01*
G36*
X92260206Y-96925236D02*
G01*
X92282389Y-96890098D01*
X92289918Y-96882629D01*
X92439020Y-96882629D01*
X92445885Y-96919331D01*
X92477426Y-96959227D01*
X92533406Y-97002059D01*
X92565016Y-97021362D01*
X92627058Y-97053109D01*
X92674841Y-97066977D01*
X92711973Y-97062786D01*
X92742056Y-97040362D01*
X92762032Y-97011692D01*
X92778787Y-96975856D01*
X92780252Y-96946497D01*
X92773083Y-96923470D01*
X92763014Y-96902788D01*
X92748458Y-96885533D01*
X92724397Y-96867703D01*
X92685817Y-96845300D01*
X92652892Y-96827616D01*
X92602838Y-96801760D01*
X92568880Y-96786685D01*
X92545281Y-96780689D01*
X92526304Y-96782072D01*
X92513381Y-96786255D01*
X92475128Y-96812825D01*
X92447418Y-96854412D01*
X92439020Y-96882629D01*
X92289918Y-96882629D01*
X92298150Y-96874462D01*
X92311106Y-96874769D01*
X92311399Y-96874936D01*
X92322487Y-96878010D01*
X92327748Y-96866368D01*
X92329784Y-96838361D01*
X92343011Y-96778000D01*
X92374433Y-96719638D01*
X92418371Y-96672426D01*
X92442970Y-96656015D01*
X92479084Y-96639113D01*
X92512553Y-96630922D01*
X92547778Y-96632416D01*
X92589162Y-96644571D01*
X92641104Y-96668361D01*
X92708007Y-96704761D01*
X92736412Y-96721030D01*
X92798374Y-96757185D01*
X92842093Y-96784003D01*
X92871331Y-96804317D01*
X92889852Y-96820955D01*
X92901421Y-96836750D01*
X92907899Y-96849975D01*
X92926720Y-96921382D01*
X92922937Y-96990492D01*
X92897781Y-97052879D01*
X92852482Y-97104116D01*
X92833529Y-97117692D01*
X92785167Y-97148466D01*
X93144735Y-97356063D01*
X93146671Y-97314342D01*
X93158257Y-97264587D01*
X93185005Y-97210653D01*
X93221084Y-97162205D01*
X93257395Y-97130852D01*
X93302196Y-97113323D01*
X93355470Y-97107003D01*
X93360498Y-97107118D01*
X93383590Y-97108692D01*
X93405451Y-97112726D01*
X93429988Y-97120981D01*
X93461109Y-97135219D01*
X93502716Y-97157200D01*
X93558718Y-97188683D01*
X93621393Y-97224714D01*
X93821139Y-97340037D01*
X93751980Y-97459823D01*
X93383669Y-97247179D01*
X93336132Y-97264407D01*
X93293487Y-97286192D01*
X93270357Y-97316785D01*
X93261774Y-97356018D01*
X93261909Y-97379647D01*
X93269035Y-97401290D01*
X93285879Y-97423481D01*
X93315162Y-97448753D01*
X93359608Y-97479639D01*
X93421942Y-97518672D01*
X93463846Y-97543936D01*
X93636510Y-97647249D01*
X93606795Y-97706320D01*
X93577078Y-97765390D01*
X92495858Y-97141147D01*
X92225627Y-96985129D01*
X92260206Y-96925236D01*
G37*
X92260206Y-96925236D02*
X92282389Y-96890098D01*
X92289918Y-96882629D01*
X92439020Y-96882629D01*
X92445885Y-96919331D01*
X92477426Y-96959227D01*
X92533406Y-97002059D01*
X92565016Y-97021362D01*
X92627058Y-97053109D01*
X92674841Y-97066977D01*
X92711973Y-97062786D01*
X92742056Y-97040362D01*
X92762032Y-97011692D01*
X92778787Y-96975856D01*
X92780252Y-96946497D01*
X92773083Y-96923470D01*
X92763014Y-96902788D01*
X92748458Y-96885533D01*
X92724397Y-96867703D01*
X92685817Y-96845300D01*
X92652892Y-96827616D01*
X92602838Y-96801760D01*
X92568880Y-96786685D01*
X92545281Y-96780689D01*
X92526304Y-96782072D01*
X92513381Y-96786255D01*
X92475128Y-96812825D01*
X92447418Y-96854412D01*
X92439020Y-96882629D01*
X92289918Y-96882629D01*
X92298150Y-96874462D01*
X92311106Y-96874769D01*
X92311399Y-96874936D01*
X92322487Y-96878010D01*
X92327748Y-96866368D01*
X92329784Y-96838361D01*
X92343011Y-96778000D01*
X92374433Y-96719638D01*
X92418371Y-96672426D01*
X92442970Y-96656015D01*
X92479084Y-96639113D01*
X92512553Y-96630922D01*
X92547778Y-96632416D01*
X92589162Y-96644571D01*
X92641104Y-96668361D01*
X92708007Y-96704761D01*
X92736412Y-96721030D01*
X92798374Y-96757185D01*
X92842093Y-96784003D01*
X92871331Y-96804317D01*
X92889852Y-96820955D01*
X92901421Y-96836750D01*
X92907899Y-96849975D01*
X92926720Y-96921382D01*
X92922937Y-96990492D01*
X92897781Y-97052879D01*
X92852482Y-97104116D01*
X92833529Y-97117692D01*
X92785167Y-97148466D01*
X93144735Y-97356063D01*
X93146671Y-97314342D01*
X93158257Y-97264587D01*
X93185005Y-97210653D01*
X93221084Y-97162205D01*
X93257395Y-97130852D01*
X93302196Y-97113323D01*
X93355470Y-97107003D01*
X93360498Y-97107118D01*
X93383590Y-97108692D01*
X93405451Y-97112726D01*
X93429988Y-97120981D01*
X93461109Y-97135219D01*
X93502716Y-97157200D01*
X93558718Y-97188683D01*
X93621393Y-97224714D01*
X93821139Y-97340037D01*
X93751980Y-97459823D01*
X93383669Y-97247179D01*
X93336132Y-97264407D01*
X93293487Y-97286192D01*
X93270357Y-97316785D01*
X93261774Y-97356018D01*
X93261909Y-97379647D01*
X93269035Y-97401290D01*
X93285879Y-97423481D01*
X93315162Y-97448753D01*
X93359608Y-97479639D01*
X93421942Y-97518672D01*
X93463846Y-97543936D01*
X93636510Y-97647249D01*
X93606795Y-97706320D01*
X93577078Y-97765390D01*
X92495858Y-97141147D01*
X92225627Y-96985129D01*
X92260206Y-96925236D01*
D11*
X77470000Y-99060000D03*
X90170000Y-99060000D03*
D12*
X81280000Y-77470000D03*
D13*
X83820000Y-77470000D03*
D14*
X78740000Y-91440000D03*
D15*
X78740000Y-88900000D03*
X78740000Y-86360000D03*
D12*
X87630000Y-88900000D03*
D13*
X85090000Y-88900000D03*
D16*
X91440000Y-88900000D03*
X71440000Y-88900000D03*
D17*
X78740000Y-86360000D02*
X76200000Y-86360000D01*
X77470000Y-97155000D02*
X73660000Y-93345000D01*
X76200000Y-86360000D02*
X73660000Y-88900000D01*
X77470000Y-99060000D02*
X77470000Y-97155000D01*
X73660000Y-88900000D02*
X71440000Y-88900000D01*
X73660000Y-93345000D02*
X73660000Y-88900000D01*
X87630000Y-88900000D02*
X91440000Y-88900000D01*
X83820000Y-83820000D02*
X83820000Y-77470000D01*
X87630000Y-87630000D02*
X83820000Y-83820000D01*
X87630000Y-88900000D02*
X87630000Y-87630000D01*
X78740000Y-91440000D02*
X82550000Y-91440000D01*
X82550000Y-91440000D02*
X85090000Y-88900000D01*
X80010000Y-88900000D02*
X81280000Y-87630000D01*
X81915000Y-99060000D02*
X90170000Y-99060000D01*
X78740000Y-88900000D02*
X76835000Y-88900000D01*
X81280000Y-87630000D02*
X81280000Y-77470000D01*
X75565000Y-92710000D02*
X81915000Y-99060000D01*
X75565000Y-90170000D02*
X75565000Y-92710000D01*
X76835000Y-88900000D02*
X75565000Y-90170000D01*
X78740000Y-88900000D02*
X80010000Y-88900000D01*
M02*
